<svg width="80" height="42" viewBox="0 0 80 42" fill="none" xmlns="http://www.w3.org/2000/svg">
<rect x="0.583008" width="78.9764" height="41.811" rx="7" fill="white"/>
<g clip-path="url(#clip0_416_536)">
<path d="M22.854 13.2152C22.2007 13.9998 21.1554 14.6186 20.1101 14.5302C19.9795 13.4693 20.4912 12.3422 21.0901 11.646C21.7434 10.8393 22.8867 10.2647 23.8122 10.2205C23.921 11.3255 23.4964 12.4085 22.854 13.2152ZM23.8013 14.7402C22.2878 14.6517 20.9921 15.6131 20.2735 15.6131C19.544 15.6131 18.4442 14.7844 17.2465 14.8065C15.6895 14.8286 14.2414 15.7237 13.4465 17.1492C11.8133 20.0002 13.0219 24.2216 14.6007 26.5422C15.3737 27.6914 16.2992 28.9512 17.5187 28.907C18.6729 28.8628 19.1302 28.1445 20.5239 28.1445C21.9285 28.1445 22.3314 28.907 23.5508 28.8849C24.8139 28.8628 25.6087 27.7356 26.3818 26.5864C27.2638 25.2824 27.6231 24.0116 27.6448 23.9453C27.6231 23.9232 25.2059 22.9839 25.1841 20.1549C25.1623 17.7901 27.0895 16.663 27.1766 16.5967C26.0878 14.9612 24.3892 14.7844 23.8013 14.7402ZM32.5446 11.5355V28.7634H35.1795V22.8734H38.8271C42.1589 22.8734 44.4999 20.5528 44.4999 17.1934C44.4999 13.834 42.2025 11.5355 38.9142 11.5355H32.5446ZM35.1795 13.7898H38.2174C40.5039 13.7898 41.8105 15.0275 41.8105 17.2044C41.8105 19.3814 40.5039 20.6301 38.2065 20.6301H35.1795V13.7898ZM49.3125 28.896C50.9676 28.896 52.5028 28.0451 53.1996 26.6969H53.2541V28.7634H55.6931V20.1881C55.6931 17.7017 53.7332 16.0994 50.7171 16.0994C47.9188 16.0994 45.8501 17.7238 45.7738 19.956H48.1475C48.3435 18.8952 49.3125 18.199 50.6409 18.199C52.2524 18.199 53.1561 18.9615 53.1561 20.3649V21.3153L49.8678 21.5142C46.8082 21.702 45.1532 22.9728 45.1532 25.183C45.1532 27.4152 46.8627 28.896 49.3125 28.896ZM50.0203 26.8516C48.6157 26.8516 47.7228 26.1665 47.7228 25.1167C47.7228 24.0337 48.583 23.4038 50.2271 23.3044L53.1561 23.1165V24.089C53.1561 25.7023 51.806 26.8516 50.0203 26.8516ZM58.9487 33.4488C61.5183 33.4488 62.7269 32.4543 63.7831 29.4374L68.4106 16.2651H65.7321L62.6289 26.4427H62.5745L59.4713 16.2651H56.7166L61.1808 28.8076L60.9412 29.57C60.5384 30.863 59.8851 31.3602 58.72 31.3602C58.5131 31.3602 58.1103 31.3381 57.9469 31.316V33.3825C58.0994 33.4267 58.7527 33.4488 58.9487 33.4488Z" fill="black"/>
</g>
<defs>
<clipPath id="clip0_416_536">
<rect width="55.748" height="23.2283" fill="white" transform="translate(12.6621 10.2205)"/>
</clipPath>
</defs>
</svg>
