<svg width="25" height="25" viewBox="0 0 25 25" fill="none" xmlns="http://www.w3.org/2000/svg">
<path d="M9.62784 17.25H15.3722V15.25H9.62784V17.25ZM15.3722 17.25C17.3758 17.25 19 18.8742 19 20.8778H21C21 17.7697 18.4803 15.25 15.3722 15.25V17.25ZM9.62784 15.25C6.51967 15.25 4 17.7697 4 20.8778H6C6 18.8742 7.62424 17.25 9.62784 17.25V15.25ZM15.25 8.75C15.25 10.2688 14.0188 11.5 12.5 11.5V13.5C15.1234 13.5 17.25 11.3734 17.25 8.75H15.25ZM12.5 11.5C10.9812 11.5 9.75 10.2688 9.75 8.75H7.75C7.75 11.3734 9.87665 13.5 12.5 13.5V11.5ZM9.75 8.75C9.75 7.23122 10.9812 6 12.5 6V4C9.87665 4 7.75 6.12665 7.75 8.75H9.75ZM12.5 6C14.0188 6 15.25 7.23122 15.25 8.75H17.25C17.25 6.12665 15.1234 4 12.5 4V6ZM22.75 12.5C22.75 18.1609 18.1609 22.75 12.5 22.75V24.75C19.2655 24.75 24.75 19.2655 24.75 12.5H22.75ZM12.5 22.75C6.83908 22.75 2.25 18.1609 2.25 12.5H0.25C0.25 19.2655 5.73451 24.75 12.5 24.75V22.75ZM2.25 12.5C2.25 6.83908 6.83908 2.25 12.5 2.25V0.25C5.73451 0.25 0.25 5.73451 0.25 12.5H2.25ZM12.5 2.25C18.1609 2.25 22.75 6.83908 22.75 12.5H24.75C24.75 5.73451 19.2655 0.25 12.5 0.25V2.25Z" fill="#A5AFBB"/>
</svg>
