<svg width="25" height="26" viewBox="0 0 25 26" fill="none" xmlns="http://www.w3.org/2000/svg">
<path d="M24 10.8824V22.1765C24 23.7359 22.7128 25 21.125 25H3.875C2.28718 25 1 23.7359 1 22.1765V10.8824M16.8125 5.23529V3.82353C16.8125 2.26414 15.5253 1 13.9375 1H11.0625C9.47468 1 8.1875 2.26414 8.1875 3.82353V5.23529M12.5 13.7059V19.3529M3.875 16.5294H21.125C22.7128 16.5294 24 15.2653 24 13.7059V8.05882C24 6.49943 22.7128 5.23529 21.125 5.23529H3.875C2.28718 5.23529 1 6.49943 1 8.05882V13.7059C1 15.2653 2.28718 16.5294 3.875 16.5294Z" stroke="#FFFFFF" stroke-width="2" stroke-linecap="round" stroke-linejoin="round"/>
</svg>
