<svg width="83" height="80" viewBox="0 0 83 80" fill="none" xmlns="http://www.w3.org/2000/svg">
<path fill-rule="evenodd" clip-rule="evenodd" d="M42.1987 0.00144116C54.1962 0.076659 66.341 3.21864 74.1056 12.4254C82.1434 21.9561 84.6271 34.9638 81.987 47.1799C79.3117 59.5585 71.6677 70.4394 60.3641 76.0086C48.9739 81.6205 35.6512 81.1448 24.2055 75.6485C12.7049 70.1259 3.8365 60.0084 1.00313 47.5032C-1.82969 35.0004 1.41129 21.6829 9.78942 12.0222C17.7553 2.83687 30.086 -0.0744987 42.1987 0.00144116Z" fill="#1975FF"/>
<g style="mix-blend-mode:screen">
<path d="M40.2888 4C41.5078 4 42.7565 4.06209 43.8863 4.58986C44.9863 5.11762 45.9377 6.20418 45.9972 7.47702C46.0566 8.78091 45.1647 9.99166 44.0944 10.6436C43.0241 11.2955 41.7456 11.5439 40.5267 11.8544C34.7886 13.2514 30.2397 15.0209 25.0071 17.846C19.0014 21.1057 12.9957 24.3654 7.01981 27.6251C6.51439 27.9045 5.8603 28.1839 5.38461 27.8425C4.73052 27.3768 5.02784 26.3213 5.41434 25.6072C10.3794 16.2627 18.7041 9.49494 28.337 6.08C32.1425 4.74508 36.2157 4 40.2888 4Z" fill="url(#paint0_linear_416_629)"/>
</g>
<path d="M36.5 17.9787C36.5 17.4382 36.9287 17 37.4574 17H45.5425C46.0713 17 46.5 17.4382 46.5 17.9787V22.852C47.6637 23.2061 48.7767 23.6805 49.8252 24.2612L53.1974 20.8141C53.5713 20.4319 54.1775 20.4319 54.5514 20.8141L60.2684 26.6582C60.6424 27.0404 60.6424 27.6601 60.2684 28.0423L56.8964 31.4893C57.4646 32.5612 57.9288 33.699 58.2753 34.8888H63.0426C63.5713 34.8888 64 35.327 64 35.8675V44.1323C64 44.6728 63.5713 45.111 63.0426 45.111H58.2754C57.929 46.3007 57.4648 47.4385 56.8967 48.5104L60.2685 51.9571C60.6424 52.3393 60.6424 52.959 60.2685 53.3412L54.5515 59.1853C54.1776 59.5675 53.5713 59.5675 53.1974 59.1853L49.8257 55.7387C48.7771 56.3195 47.6639 56.7941 46.5 57.1482V62.0213C46.5 62.5618 46.0713 63 45.5425 63H37.4574C36.9287 63 36.5 62.5618 36.5 62.0213V57.1482C35.336 56.7941 34.2228 56.3195 33.1742 55.7386L29.8027 59.1851C29.4288 59.5673 28.8225 59.5673 28.4486 59.1851L22.7316 53.341C22.3577 52.9588 22.3577 52.3391 22.7316 51.9569L26.1033 48.5103C25.5352 47.4385 25.071 46.3007 24.7246 45.111H19.9574C19.4287 45.111 19 44.6728 19 44.1323V35.8675C19 35.327 19.4287 34.8888 19.9574 34.8888H24.7248C25.0712 33.6991 25.5354 32.5612 26.1036 31.4894L22.7317 28.0425C22.3578 27.6603 22.3578 27.0406 22.7317 26.6584L28.4487 20.8143C28.8226 20.4321 29.4288 20.4321 29.8027 20.8143L33.1747 24.2613C34.2232 23.6805 35.3362 23.2061 36.5 22.852V17.9787Z" stroke="white" stroke-width="2" stroke-linecap="round" stroke-linejoin="round"/>
<path d="M49.6383 40C49.6383 44.3243 45.9947 47.8298 41.5 47.8298C37.0053 47.8298 33.3617 44.3243 33.3617 40C33.3617 35.6757 37.0053 32.1702 41.5 32.1702C45.9947 32.1702 49.6383 35.6757 49.6383 40Z" stroke="white" stroke-width="2" stroke-linecap="round" stroke-linejoin="round"/>
<defs>
<linearGradient id="paint0_linear_416_629" x1="16.1133" y1="2.19723" x2="29.9741" y2="22.4149" gradientUnits="userSpaceOnUse">
<stop stop-color="#BABB98"/>
<stop offset="0.1539" stop-color="#9C9D7F"/>
<stop offset="0.7399" stop-color="#2C2D24"/>
<stop offset="1"/>
</linearGradient>
</defs>
</svg>
