<svg width="80" height="42" viewBox="0 0 80 42" fill="none" xmlns="http://www.w3.org/2000/svg">
<rect x="0.0625" width="78.9764" height="41.811" rx="7" fill="white"/>
<g clip-path="url(#clip0_416_458)">
<path d="M38.1189 20.6605V26.9247H36.1631V11.4548H41.3502C41.9693 11.4416 42.5849 11.5532 43.1614 11.7831C43.7379 12.0129 44.2639 12.3565 44.709 12.794C45.1587 13.205 45.5165 13.7089 45.7585 14.2721C46.0005 14.8352 46.1211 15.4444 46.1121 16.0589C46.125 16.6766 46.0063 17.2898 45.7641 17.8565C45.5219 18.4232 45.162 18.93 44.709 19.3422C43.802 20.221 42.6824 20.6601 41.3502 20.6592H38.1189V20.6605ZM38.1189 13.3594V18.7596H41.3988C41.7583 18.7704 42.1162 18.7049 42.4494 18.5671C42.7826 18.4294 43.0839 18.2225 43.3339 17.9597C43.5826 17.714 43.7803 17.4201 43.9154 17.0954C44.0504 16.7707 44.1199 16.4218 44.1199 16.0693C44.1199 15.7169 44.0504 15.368 43.9154 15.0433C43.7803 14.7186 43.5826 14.4247 43.3339 14.179C43.087 13.9106 42.7868 13.6987 42.4532 13.5572C42.1196 13.4156 41.7602 13.3478 41.3988 13.3581H38.1189V13.3594Z" fill="#5F6368"/>
<path d="M50.6192 15.9946C52.0648 15.9946 53.2059 16.3871 54.0424 17.1722C54.879 17.9572 55.2969 19.0336 55.2961 20.4012V26.9247H53.4253V25.4558H53.3403C52.5305 26.6655 51.4534 27.2703 50.109 27.2703C48.9614 27.2703 48.0014 26.9247 47.2288 26.2335C46.858 25.9162 46.5616 25.5189 46.3611 25.0705C46.1606 24.622 46.0611 24.1338 46.0699 23.6413C46.0699 22.5461 46.4772 21.675 47.2919 21.0283C48.1066 20.3815 49.1943 20.0572 50.5548 20.0556C51.7162 20.0556 52.6726 20.2716 53.4241 20.7036V20.2494C53.4263 19.9137 53.355 19.5817 53.2153 19.2774C53.0756 18.9732 52.871 18.7044 52.6163 18.4905C52.0991 18.0163 51.4251 17.7576 50.7285 17.7659C49.636 17.7659 48.7715 18.2341 48.135 19.1706L46.4124 18.0683C47.36 16.6859 48.7622 15.9946 50.6192 15.9946ZM48.0888 23.6845C48.0875 23.9375 48.1457 24.187 48.2585 24.4125C48.3714 24.6379 48.5356 24.8327 48.7375 24.9806C49.1701 25.3263 49.707 25.5095 50.2572 25.499C51.0825 25.4976 51.8736 25.1638 52.4572 24.5708C53.105 23.9512 53.429 23.2241 53.429 22.3897C52.8192 21.896 51.9688 21.6491 50.878 21.6491C50.0835 21.6491 49.421 21.8437 48.8906 22.233C48.3549 22.628 48.0888 23.1081 48.0888 23.6845Z" fill="#5F6368"/>
<path d="M66.0346 16.3403L59.504 31.5906H57.485L59.9085 26.2545L55.6143 16.3403H57.7401L60.8439 23.9438H60.8864L63.9051 16.3403H66.0346Z" fill="#5F6368"/>
<path d="M30.2154 19.3101C30.2161 18.7045 30.1657 18.0999 30.0647 17.5031H21.8164V20.9259H26.5407C26.444 21.4725 26.2394 21.9937 25.9392 22.4578C25.6389 22.922 25.2493 23.3196 24.7938 23.6266V25.8484H27.6133C29.2642 24.3018 30.2154 22.0146 30.2154 19.3101Z" fill="#4285F4"/>
<path d="M21.8166 27.9949C24.1769 27.9949 26.1643 27.2074 27.6135 25.8496L24.794 23.6278C24.0093 24.1685 22.9986 24.477 21.8166 24.477C19.5353 24.477 17.5989 22.9144 16.9065 20.8086H14.002V23.0983C14.7299 24.5702 15.8462 25.8076 17.2261 26.6722C18.6061 27.5369 20.1954 27.9948 21.8166 27.9949Z" fill="#34A853"/>
<path d="M16.9062 20.8086C16.5401 19.7052 16.5401 18.5102 16.9062 17.4068V15.1171H14.0016C13.3892 16.3553 13.0703 17.7219 13.0703 19.1077C13.0703 20.4935 13.3892 21.8601 14.0016 23.0983L16.9062 20.8086Z" fill="#FBBC04"/>
<path d="M21.8166 13.7383C23.0639 13.7176 24.2692 14.1964 25.1718 15.0714L27.6682 12.5348C26.0852 11.0241 23.9882 10.1947 21.8166 10.2204C20.1954 10.2205 18.6061 10.6784 17.2261 11.5431C15.8462 12.4078 14.7299 13.6451 14.002 15.117L16.9065 17.4067C17.5989 15.301 19.5353 13.7383 21.8166 13.7383Z" fill="#EA4335"/>
</g>
<defs>
<clipPath id="clip0_416_458">
<rect width="52.9606" height="21.3701" fill="white" transform="translate(13.0703 10.2205)"/>
</clipPath>
</defs>
</svg>
