<svg width="210" height="210" viewBox="0 0 210 210" fill="none" xmlns="http://www.w3.org/2000/svg">
<g clip-path="url(#clip0_416_774)">
<path fill-rule="evenodd" clip-rule="evenodd" d="M27.963 0.000954769C35.9131 0.0507866 43.9609 2.13235 49.1061 8.23185C54.4324 14.5459 56.0782 23.1635 54.3287 31.2567C52.556 39.4575 47.4907 46.6661 40.0003 50.3557C32.4526 54.0736 23.6243 53.7584 16.0398 50.1171C8.41892 46.4584 2.54226 39.7556 0.664724 31.4709C-1.21244 23.1877 0.935194 14.3649 6.48697 7.96471C11.7656 1.87943 19.9365 -0.0493554 27.963 0.000954769Z" fill="#1975FF"/>
<g style="mix-blend-mode:screen">
<path d="M29.6818 3C30.6035 3 31.5476 3.04657 32.4018 3.44239C33.2336 3.83821 33.9529 4.65314 33.9979 5.60777C34.0428 6.58568 33.3684 7.49375 32.5592 7.9827C31.7499 8.47166 30.7833 8.65793 29.8616 8.89076C25.5231 9.93853 22.0837 11.2657 18.1273 13.3845C13.5864 15.8293 9.04557 18.2741 4.52718 20.7189C4.14502 20.9284 3.65047 21.138 3.2908 20.8818C2.79625 20.5326 3.02105 19.7409 3.31328 19.2054C7.06737 12.197 13.3616 7.1212 20.645 4.56C23.5224 3.55881 26.6021 3 29.6818 3Z" fill="url(#paint0_linear_416_774)"/>
</g>
<path d="M28.2366 33.243C27.5946 33.243 26.9916 33.123 26.4276 32.883C25.8636 32.637 25.3746 32.289 24.9606 31.839C24.5526 31.389 24.2556 30.858 24.0696 30.246L25.8876 29.742C26.0616 30.3 26.3646 30.729 26.7966 31.029C27.2286 31.323 27.7086 31.467 28.2366 31.461C28.7106 31.455 29.1276 31.344 29.4876 31.128C29.8476 30.912 30.1296 30.621 30.3336 30.255C30.5376 29.883 30.6396 29.457 30.6396 28.977C30.6396 28.257 30.4146 27.663 29.9646 27.195C29.5206 26.727 28.9386 26.493 28.2186 26.493C28.0146 26.493 27.8046 26.523 27.5886 26.583C27.3786 26.643 27.1806 26.721 26.9946 26.817L26.1126 25.332L30.6846 21.291L30.8826 21.831H24.5826V20.04H32.3766V21.831L28.5786 25.485L28.5606 24.873C29.3766 24.873 30.0846 25.056 30.6846 25.422C31.2846 25.782 31.7466 26.274 32.0706 26.898C32.4006 27.516 32.5656 28.209 32.5656 28.977C32.5656 29.805 32.3706 30.54 31.9806 31.182C31.5966 31.824 31.0776 32.328 30.4236 32.694C29.7756 33.06 29.0466 33.243 28.2366 33.243Z" fill="white"/>
<g filter="url(#filter0_f_416_774)">
<path d="M98.0373 186.967C68.071 186.967 45.3864 186.4 45.3864 189.801C45.3864 193.203 51.4151 193.581 51.4151 195.282C51.4151 195.282 30.9174 191.124 27.7021 195.282C24.4867 199.439 61.4629 199.817 61.4629 199.817H98.0373C103.262 199.817 171.99 201.329 171.99 195.66C171.99 189.99 147.071 193.959 147.071 193.959C149.662 193.473 149.684 188.846 149.684 188.289C149.684 185.993 128.004 186.967 98.0373 186.967Z" fill="#AFB8C9"/>
</g>
<path d="M165.862 173.841C162.029 166.808 158.054 161.481 156.066 159.35C153.681 156.793 149.472 155.129 147.974 156.793C146.611 157.815 146.27 161.055 146.27 162.546C149.11 166.24 155.385 174.779 157.77 179.382C160.752 185.135 160.988 190.889 162.029 193.233C163.07 195.577 165.862 196.004 167.992 195.791C170.122 195.577 171.612 193.446 171.612 190.037C171.612 187.266 170.522 182.389 165.862 173.841Z" fill="url(#paint1_radial_416_774)"/>
<path d="M165.862 173.841C162.029 166.808 158.054 161.481 156.066 159.35C153.681 156.793 149.472 155.129 147.974 156.793C146.611 157.815 146.27 161.055 146.27 162.546C149.11 166.24 155.385 174.779 157.77 179.382C160.752 185.135 160.988 190.889 162.029 193.233C163.07 195.577 165.862 196.004 167.992 195.791C170.122 195.577 171.612 193.446 171.612 190.037C171.612 187.266 170.522 182.389 165.862 173.841Z" fill="url(#paint2_linear_416_774)"/>
<path d="M29.9945 173.822C34.0478 166.927 38.1881 161.739 40.2412 159.676C42.7049 157.201 46.9611 155.676 48.4039 157.384C49.7321 158.449 49.9684 161.692 49.9205 163.18C46.9667 166.775 40.4268 175.094 37.8974 179.61C34.7358 185.256 34.3149 190.99 33.2001 193.296C32.0853 195.602 29.2835 195.937 27.1639 195.656C25.0442 195.375 23.624 193.201 23.7334 189.798C23.8223 187.034 25.0674 182.203 29.9945 173.822Z" fill="url(#paint3_radial_416_774)"/>
<path d="M29.9945 173.822C34.0478 166.927 38.1881 161.739 40.2412 159.676C42.7049 157.201 46.9611 155.676 48.4039 157.384C49.7321 158.449 49.9684 161.692 49.9205 163.18C46.9667 166.775 40.4268 175.094 37.8974 179.61C34.7358 185.256 34.3149 190.99 33.2001 193.296C32.0853 195.602 29.2835 195.937 27.1639 195.656C25.0442 195.375 23.624 193.201 23.7334 189.798C23.8223 187.034 25.0674 182.203 29.9945 173.822Z" fill="url(#paint4_linear_416_774)"/>
<path d="M52.1215 168.715C56.1747 161.821 60.3151 156.632 62.3682 154.57C64.8319 152.095 69.0881 150.57 70.5309 152.278C71.859 153.342 72.0953 156.585 72.0475 158.074C69.0937 161.669 62.5537 169.987 60.0244 174.504C56.8627 180.15 56.4419 185.884 55.3271 188.189C54.2122 190.495 51.4105 190.831 49.2908 190.55C47.1712 190.269 45.751 188.094 45.8604 184.692C45.9492 181.928 47.1943 177.096 52.1215 168.715Z" fill="url(#paint5_radial_416_774)"/>
<path d="M141.974 168.715C137.921 161.821 133.781 156.632 131.728 154.57C129.264 152.095 125.008 150.57 123.565 152.278C122.237 153.342 122 156.585 122.048 158.074C125.002 161.669 131.542 169.987 134.071 174.504C137.233 180.15 137.654 185.884 138.769 188.189C139.883 190.495 142.685 190.831 144.805 190.55C146.925 190.269 148.345 188.094 148.235 184.692C148.146 181.928 146.901 177.096 141.974 168.715Z" fill="url(#paint6_radial_416_774)"/>
<path d="M32.6011 152.271C40.7286 153.313 47.5287 153.214 50.4875 152.845C54.0381 152.403 57.9434 149.912 57.4649 147.671C57.4359 145.928 54.9571 143.702 53.7214 142.807C48.9565 142.944 38.1154 143.023 32.87 142.238C26.3134 141.257 21.4049 138.001 18.8379 137.458C16.2708 136.914 14.2411 138.973 13.139 140.866C12.0368 142.759 12.9072 145.274 15.7318 147.32C18.0268 148.982 22.7214 151.004 32.6011 152.271Z" fill="url(#paint7_radial_416_774)"/>
<path d="M32.6011 152.271C40.7286 153.313 47.5287 153.214 50.4875 152.845C54.0381 152.403 57.9434 149.912 57.4649 147.671C57.4359 145.928 54.9571 143.702 53.7214 142.807C48.9565 142.944 38.1154 143.023 32.87 142.238C26.3134 141.257 21.4049 138.001 18.8379 137.458C16.2708 136.914 14.2411 138.973 13.139 140.866C12.0368 142.759 12.9072 145.274 15.7318 147.32C18.0268 148.982 22.7214 151.004 32.6011 152.271Z" fill="url(#paint8_linear_416_774)"/>
<path d="M28.2321 135.649C35.6801 139.065 42.2008 140.996 45.1352 141.526C48.6564 142.161 53.1265 140.946 53.3372 138.665C53.829 136.992 52.126 134.129 51.213 132.906C46.6235 131.618 36.2513 128.463 31.4779 126.151C25.5112 123.262 21.7958 118.691 19.5072 117.407C17.2186 116.124 14.6678 117.484 13.0516 118.963C11.4355 120.442 11.5172 123.102 13.6041 125.896C15.2996 128.167 19.1785 131.496 28.2321 135.649Z" fill="url(#paint9_radial_416_774)"/>
<path d="M28.2321 135.649C35.6801 139.065 42.2008 140.996 45.1352 141.526C48.6564 142.161 53.1265 140.946 53.3372 138.665C53.829 136.992 52.126 134.129 51.213 132.906C46.6235 131.618 36.2513 128.463 31.4779 126.151C25.5112 123.262 21.7958 118.691 19.5072 117.407C17.2186 116.124 14.6678 117.484 13.0516 118.963C11.4355 120.442 11.5172 123.102 13.6041 125.896C15.2996 128.167 19.1785 131.496 28.2321 135.649Z" fill="url(#paint10_linear_416_774)"/>
<path d="M47.2733 167.761C51.6966 171.844 63.648 175.629 68.5391 176.905C75.3442 178.68 96.8227 178.819 104.691 178.819C114.473 178.819 138.223 173.726 146.159 168.824C153.39 164.358 157.217 153.088 157.217 145.645L157.217 116.937C157.359 104.178 156.877 77.8939 153.815 69.7281C149.987 59.5208 139.852 49.7084 131.911 45.0603C123.192 39.9567 102.777 34.4278 85.7644 38.2555C68.7518 42.0833 53.8658 54.6297 47.0608 68.6648C40.2557 82.6998 38.1291 116.086 38.1291 125.443C38.1291 134.8 37.2011 146.708 38.1291 151.812C39.3277 158.404 41.7442 162.657 47.2733 167.761Z" fill="url(#paint11_radial_416_774)"/>
<path d="M47.2733 167.761C51.6966 171.844 63.648 175.629 68.5391 176.905C75.3442 178.68 96.8227 178.819 104.691 178.819C114.473 178.819 138.223 173.726 146.159 168.824C153.39 164.358 157.217 153.088 157.217 145.645L157.217 116.937C157.359 104.178 156.877 77.8939 153.815 69.7281C149.987 59.5208 139.852 49.7084 131.911 45.0603C123.192 39.9567 102.777 34.4278 85.7644 38.2555C68.7518 42.0833 53.8658 54.6297 47.0608 68.6648C40.2557 82.6998 38.1291 116.086 38.1291 125.443C38.1291 134.8 37.2011 146.708 38.1291 151.812C39.3277 158.404 41.7442 162.657 47.2733 167.761Z" fill="url(#paint12_linear_416_774)" fill-opacity="0.2"/>
<path d="M47.2733 167.761C51.6966 171.844 63.648 175.629 68.5391 176.905C75.3442 178.68 96.8227 178.819 104.691 178.819C114.473 178.819 138.223 173.726 146.159 168.824C153.39 164.358 157.217 153.088 157.217 145.645L157.217 116.937C157.359 104.178 156.877 77.8939 153.815 69.7281C149.987 59.5208 139.852 49.7084 131.911 45.0603C123.192 39.9567 102.777 34.4278 85.7644 38.2555C68.7518 42.0833 53.8658 54.6297 47.0608 68.6648C40.2557 82.6998 38.1291 116.086 38.1291 125.443C38.1291 134.8 37.2011 146.708 38.1291 151.812C39.3277 158.404 41.7442 162.657 47.2733 167.761Z" fill="url(#paint13_linear_416_774)" fill-opacity="0.4"/>
<g style="mix-blend-mode:screen">
<path d="M94.6283 41.8904C96.1174 41.8904 97.6427 41.9666 99.0228 42.6145C100.367 43.2623 101.529 44.5961 101.601 46.1586C101.674 47.7592 100.585 49.2455 99.2771 50.0458C97.9696 50.8461 96.4079 51.151 94.9188 51.5321C87.9094 53.247 82.3526 55.4192 75.9606 58.8872C68.6242 62.8887 61.2879 66.8901 53.9879 70.8916C53.3704 71.2346 52.5714 71.5776 51.9903 71.1584C51.1913 70.5868 51.5545 69.291 52.0267 68.4145C58.0919 56.9436 68.261 48.6357 80.0282 44.4437C84.677 42.805 89.6527 41.8904 94.6283 41.8904Z" fill="url(#paint14_linear_416_774)"/>
</g>
<path d="M67.7717 96.4081C70.6546 96.7467 74.2017 99.2298 74.767 100.429C75.4453 101.242 76.3215 107.822 76.6748 111.01C76.3922 114.326 75.4453 122.142 73.9191 126.882C72.3928 131.622 67.4891 133.795 65.228 134.289C60.6351 134.783 50.559 135.474 46.9978 134.289C43.4366 133.104 39.5786 128.293 38.0947 126.035V119.052L40.4265 97.6779C43.1115 97.1135 49.6263 95.9849 54.2051 95.9849C59.9285 95.9849 64.1681 95.9849 67.7717 96.4081Z" fill="url(#paint15_radial_416_774)"/>
<path d="M67.7717 96.4081C70.6546 96.7467 74.2017 99.2298 74.767 100.429C75.4453 101.242 76.3215 107.822 76.6748 111.01C76.3922 114.326 75.4453 122.142 73.9191 126.882C72.3928 131.622 67.4891 133.795 65.228 134.289C60.6351 134.783 50.559 135.474 46.9978 134.289C43.4366 133.104 39.5786 128.293 38.0947 126.035V119.052L40.4265 97.6779C43.1115 97.1135 49.6263 95.9849 54.2051 95.9849C59.9285 95.9849 64.1681 95.9849 67.7717 96.4081Z" fill="url(#paint16_diamond_416_774)" fill-opacity="0.4"/>
<path d="M67.7717 96.4081C70.6546 96.7467 74.2017 99.2298 74.767 100.429C75.4453 101.242 76.3215 107.822 76.6748 111.01C76.3922 114.326 75.4453 122.142 73.9191 126.882C72.3928 131.622 67.4891 133.795 65.228 134.289C60.6351 134.783 50.559 135.474 46.9978 134.289C43.4366 133.104 39.5786 128.293 38.0947 126.035V119.052L40.4265 97.6779C43.1115 97.1135 49.6263 95.9849 54.2051 95.9849C59.9285 95.9849 64.1681 95.9849 67.7717 96.4081Z" fill="url(#paint17_diamond_416_774)" fill-opacity="0.4"/>
<path d="M67.7717 96.4081C70.6546 96.7467 74.2017 99.2298 74.767 100.429C75.4453 101.242 76.3215 107.822 76.6748 111.01C76.3922 114.326 75.4453 122.142 73.9191 126.882C72.3928 131.622 67.4891 133.795 65.228 134.289C60.6351 134.783 50.559 135.474 46.9978 134.289C43.4366 133.104 39.5786 128.293 38.0947 126.035V119.052L40.4265 97.6779C43.1115 97.1135 49.6263 95.9849 54.2051 95.9849C59.9285 95.9849 64.1681 95.9849 67.7717 96.4081Z" fill="url(#paint18_diamond_416_774)" fill-opacity="0.4"/>
<path d="M118.391 97.7082C121.967 98.2173 124.139 100.607 124.777 101.738C125.558 102.587 127.161 104.963 127.331 107.678C127.544 111.072 126.48 120.617 124.777 125.92C123.074 131.223 120.307 133.768 114.773 135.253C109.239 136.738 103.704 135.889 98.5958 135.253C93.4873 134.616 89.0173 131.435 86.463 127.192C83.9087 122.95 83.483 118.578 83.483 111.708C83.483 106.405 84.3344 101.951 86.463 99.4051C88.5916 96.8597 95.8287 95.7991 102.427 96.0113C109.026 96.2234 113.921 97.0718 118.391 97.7082Z" fill="url(#paint19_radial_416_774)"/>
<path d="M118.391 97.7082C121.967 98.2173 124.139 100.607 124.777 101.738C125.558 102.587 127.161 104.963 127.331 107.678C127.544 111.072 126.48 120.617 124.777 125.92C123.074 131.223 120.307 133.768 114.773 135.253C109.239 136.738 103.704 135.889 98.5958 135.253C93.4873 134.616 89.0173 131.435 86.463 127.192C83.9087 122.95 83.483 118.578 83.483 111.708C83.483 106.405 84.3344 101.951 86.463 99.4051C88.5916 96.8597 95.8287 95.7991 102.427 96.0113C109.026 96.2234 113.921 97.0718 118.391 97.7082Z" fill="url(#paint20_diamond_416_774)" fill-opacity="0.4"/>
<path d="M118.391 97.7082C121.967 98.2173 124.139 100.607 124.777 101.738C125.558 102.587 127.161 104.963 127.331 107.678C127.544 111.072 126.48 120.617 124.777 125.92C123.074 131.223 120.307 133.768 114.773 135.253C109.239 136.738 103.704 135.889 98.5958 135.253C93.4873 134.616 89.0173 131.435 86.463 127.192C83.9087 122.95 83.483 118.578 83.483 111.708C83.483 106.405 84.3344 101.951 86.463 99.4051C88.5916 96.8597 95.8287 95.7991 102.427 96.0113C109.026 96.2234 113.921 97.0718 118.391 97.7082Z" fill="url(#paint21_diamond_416_774)" fill-opacity="0.4"/>
<path d="M118.391 97.7082C121.967 98.2173 124.139 100.607 124.777 101.738C125.558 102.587 127.161 104.963 127.331 107.678C127.544 111.072 126.48 120.617 124.777 125.92C123.074 131.223 120.307 133.768 114.773 135.253C109.239 136.738 103.704 135.889 98.5958 135.253C93.4873 134.616 89.0173 131.435 86.463 127.192C83.9087 122.95 83.483 118.578 83.483 111.708C83.483 106.405 84.3344 101.951 86.463 99.4051C88.5916 96.8597 95.8287 95.7991 102.427 96.0113C109.026 96.2234 113.921 97.0718 118.391 97.7082Z" fill="url(#paint22_diamond_416_774)" fill-opacity="0.4"/>
<g filter="url(#filter1_i_416_774)">
<path fill-rule="evenodd" clip-rule="evenodd" d="M125.764 100.144H157.617V102.27L138.718 102.696L136.169 103.546C133.692 105.247 128.695 109.032 128.525 110.563C128.312 112.477 126.613 123.533 124.915 128.211C123.216 132.889 120.03 135.228 115.571 136.078C112.428 136.678 107.069 136.432 102.766 136.235C100.965 136.152 99.3487 136.078 98.1579 136.078C94.1232 136.078 90.9379 134.377 88.602 132.464C86.2661 130.55 82.8684 124.384 82.019 121.194C81.1696 118.005 80.9572 109.287 81.1696 105.885C81.3395 103.163 81.5943 102.058 81.8066 101.845C81.2404 101.703 79.7256 101.42 79.046 101.42C78.3665 101.42 76.9225 101.703 76.2854 101.845C76.7101 102.625 77.5596 104.907 77.5596 107.799C77.5596 111.413 77.3472 118.643 76.4978 123.533C75.6484 128.424 72.4631 132.038 69.7025 133.952C67.494 135.483 64.252 136.007 62.9071 136.078H51.2276C49.1749 136.362 45.3294 136.333 42.4414 133.952C39.7475 131.731 38.8274 128.799 37.7397 125.334C37.3698 124.155 37.0807 124.021 36.4954 121.62C35.4337 117.262 34.5179 112.352 34.5179 109.712C34.0488 109.712 33.6685 109.332 33.6685 108.862L34.1595 103.121C34.1595 102.651 34.5398 102.27 35.0089 102.27H35.4337C35.8584 101.349 37.0475 99.2086 38.4066 98.0179C40.1055 96.5295 45.2817 94.1906 55.2623 94.1906C65.243 94.1906 70.1272 95.679 72.4631 96.9548C73.9276 97.7547 74.7052 99.0421 75.2456 99.9368C75.3948 100.184 75.5259 100.401 75.6484 100.569C76.2146 100.428 78.409 100.144 79.2584 100.144C80.1078 100.144 81.5943 100.428 82.2314 100.569C82.5145 99.9315 83.9727 97.9754 85.8414 96.9548C88.1773 95.679 94.5479 94.6158 98.795 94.1906C103.042 93.7653 113.023 94.8284 117.907 95.679C121.814 96.3594 124.773 98.9392 125.764 100.144ZM121.729 98.8684C123.458 99.9335 123.92 100.955 124.49 102.216C124.621 102.504 124.757 102.805 124.915 103.121C125.764 104.822 126.189 107.714 126.189 109.075C126.189 110.776 126.189 112.264 125.339 117.367C124.49 122.47 123.853 125.022 121.729 129.274C120.03 132.676 116.774 134.235 115.359 134.59C112.692 135.257 108.064 135.139 104.861 135.057C103.983 135.035 103.212 135.015 102.617 135.015C102.325 135.015 102.013 135.02 101.683 135.026C98.9035 135.073 94.8867 135.14 90.9379 132.251C85.7772 128.475 84.3271 122.841 83.2926 118.822C83.2204 118.542 83.1501 118.269 83.0808 118.005C82.019 113.965 82.2314 105.885 83.0808 102.696C83.9302 99.5063 86.4785 98.2305 88.8144 97.5927C91.1502 96.9548 95.6097 96.3169 98.5827 96.1043C101.556 95.8916 108.139 95.8916 113.447 96.5295C117.695 97.0398 120.243 97.9525 121.729 98.8684ZM37.4877 101.667C38.0348 100.462 38.4782 99.4851 40.1366 98.4669C41.5627 97.5912 43.6757 96.8047 47.7503 96.3169C52.8434 95.7071 56.0203 95.4757 58.8724 95.679C61.7246 95.8823 66.6327 96.3567 68.8737 96.9665C71.1147 97.5763 73.5594 98.796 74.3743 101.845C75.1892 104.894 76.0731 110.35 75.3834 116.95C74.9683 120.923 74.1706 128.176 68.8737 132.038C65.0853 134.801 61.2318 134.736 58.5651 134.691C58.2489 134.686 57.9494 134.681 57.6687 134.681C57.4665 134.681 57.2346 134.681 56.9771 134.682C53.8626 134.688 48.0004 134.703 44.9896 133.952C43.6314 133.613 41.7664 130.613 40.1366 127.36C38.3617 123.819 37.9785 121.436 37.3703 117.655C37.2805 117.096 37.1857 116.507 37.0807 115.879C36.2658 111 36.0707 109 36.0707 107.374C36.0707 106.073 36.2658 104.159 37.0807 102.532C37.2323 102.23 37.3627 101.943 37.4877 101.667Z" fill="#262939"/>
</g>
<ellipse rx="9.07767" ry="8.88855" transform="matrix(-1 0 0 1 81.2133 80.288)" fill="url(#paint23_radial_416_774)"/>
<ellipse rx="9.07767" ry="8.88855" transform="matrix(-1 0 0 1 81.2133 80.288)" fill="url(#paint24_diamond_416_774)" fill-opacity="0.4"/>
<ellipse rx="9.07767" ry="8.88855" transform="matrix(-1 0 0 1 81.2133 80.288)" fill="url(#paint25_diamond_416_774)" fill-opacity="0.4"/>
<ellipse rx="9.07767" ry="8.88855" transform="matrix(-1 0 0 1 81.2133 80.288)" fill="url(#paint26_diamond_416_774)" fill-opacity="0.4"/>
<circle r="6.61913" transform="matrix(-1 0 0 1 128.682 86.34)" fill="url(#paint27_radial_416_774)"/>
<circle r="6.61913" transform="matrix(-1 0 0 1 128.682 86.34)" fill="url(#paint28_diamond_416_774)" fill-opacity="0.4"/>
<circle r="6.61913" transform="matrix(-1 0 0 1 128.682 86.34)" fill="url(#paint29_diamond_416_774)" fill-opacity="0.4"/>
<circle r="6.61913" transform="matrix(-1 0 0 1 128.682 86.34)" fill="url(#paint30_diamond_416_774)" fill-opacity="0.4"/>
<g filter="url(#filter2_di_416_774)">
<ellipse rx="6.05178" ry="5.86266" transform="matrix(-1 0 0 1 80.8349 80.6665)" fill="url(#paint31_diamond_416_774)"/>
</g>
<g filter="url(#filter3_di_416_774)">
<circle r="4.53883" transform="matrix(-1 0 0 1 128.114 86.9074)" fill="url(#paint32_diamond_416_774)"/>
</g>
<g filter="url(#filter4_di_416_774)">
<ellipse rx="14.9403" ry="14.5621" transform="matrix(-1 0 0 1 103.719 115.464)" fill="url(#paint33_diamond_416_774)"/>
</g>
<g filter="url(#filter5_di_416_774)">
<ellipse rx="14.1839" ry="12.86" transform="matrix(-1 0 0 1 57.9519 115.275)" fill="url(#paint34_diamond_416_774)"/>
</g>
<g style="mix-blend-mode:screen">
<path d="M57.176 104.25C57.541 104.25 57.9148 104.268 58.2531 104.419C58.5824 104.571 58.8673 104.882 58.8851 105.246C58.9029 105.62 58.6358 105.967 58.3154 106.153C57.9949 106.34 57.6122 106.411 57.2472 106.5C55.5292 106.9 54.1672 107.407 52.6006 108.216C50.8024 109.15 49.0043 110.084 47.2151 111.017C47.0638 111.097 46.8679 111.178 46.7255 111.08C46.5297 110.946 46.6187 110.644 46.7344 110.439C48.221 107.763 50.7134 105.824 53.5975 104.846C54.7369 104.464 55.9565 104.25 57.176 104.25Z" fill="url(#paint35_linear_416_774)"/>
</g>
<g filter="url(#filter6_b_416_774)">
<path d="M36.4867 101.7C37.0342 100.488 37.4779 99.5061 39.1373 98.4823C40.1996 97.8269 41.6428 97.2211 43.9932 96.752L40.9015 130.766C40.3058 129.788 39.7072 128.676 39.1373 127.534C37.3613 123.972 36.9778 121.577 36.3693 117.775L36.3693 117.775L36.3688 117.772C36.279 117.211 36.1843 116.619 36.0795 115.989C35.2641 111.084 35.0689 109.073 35.0689 107.438C35.0689 106.129 35.2641 104.205 36.0795 102.57C36.2312 102.266 36.3617 101.977 36.4867 101.7Z" fill="white" fill-opacity="0.01"/>
</g>
<g style="mix-blend-mode:screen">
<path d="M102.841 102.286C103.206 102.286 103.58 102.304 103.918 102.455C104.247 102.606 104.532 102.917 104.55 103.282C104.568 103.656 104.301 104.002 103.98 104.189C103.66 104.376 103.277 104.447 102.912 104.536C101.194 104.936 99.8323 105.443 98.2656 106.252C96.4675 107.186 94.6694 108.119 92.8801 109.053C92.7288 109.133 92.533 109.213 92.3905 109.115C92.1947 108.982 92.2837 108.68 92.3994 108.475C93.886 105.799 96.3785 103.86 99.2626 102.882C100.402 102.5 101.622 102.286 102.841 102.286Z" fill="url(#paint36_linear_416_774)"/>
</g>
<path d="M40.0543 86.1605C40.3718 83.9415 41.6417 82.8889 42.6338 82.7467L41.4433 91.0679C40.5835 90.2856 39.7369 88.3795 40.0543 86.1605Z" fill="url(#paint37_linear_416_774)"/>
<path d="M158.196 122.946C158.742 123.021 159.125 123.522 159.052 124.068L158.056 131.615C157.99 132.113 157.566 132.484 157.064 132.484H147.395C146.878 132.484 146.446 132.09 146.399 131.575L145.572 122.46C145.513 121.82 146.066 121.292 146.703 121.379L158.196 122.946Z" fill="#D4A886"/>
<path d="M160.594 117.878C161.123 117.927 161.52 118.38 161.501 118.91L159.698 167.938C159.678 168.475 159.236 168.901 158.698 168.901H133.999V115.397L160.594 117.878ZM156.188 132.484C157.191 132.484 158.039 131.741 158.171 130.746L158.922 125.055C159.066 123.964 158.301 122.961 157.21 122.812L147.947 121.549C146.674 121.375 145.569 122.431 145.685 123.711L146.317 130.665C146.41 131.696 147.274 132.484 148.309 132.484H156.188Z" fill="#BC7850"/>
<path d="M130.927 118.815L117.694 147.989C117.359 148.727 116.331 148.781 115.921 148.082L98.75 118.815L115.633 143.468C116.053 144.081 116.973 144.038 117.333 143.387L130.927 118.815Z" fill="#BC7850"/>
<path d="M133.999 115.397V168.901H104.627C103.621 168.901 102.772 168.153 102.644 167.155L96.151 116.527C95.9944 115.306 96.9672 114.235 98.1974 114.274L133.999 115.397ZM115.921 148.082C116.331 148.781 117.359 148.727 117.694 147.989L130.927 118.815L117.333 143.387C116.973 144.038 116.053 144.081 115.633 143.468L98.75 118.815L115.921 148.082Z" fill="#E6B67C"/>
<path d="M171.782 154.642C172.793 149.251 170.164 142.347 166.524 139.466C164.491 137.858 162.647 136.772 161.063 136.186L160.203 147.984C160.87 148.543 161.573 148.086 162.074 148.652C163.49 150.249 163.288 154.043 161.063 157.038C158.838 160.033 149.738 162.629 144.278 162.629C138.817 162.629 130.323 160.832 127.694 160.632C125.065 160.432 123.447 161.431 122.436 162.629C121.425 163.827 120.818 166.822 123.649 168.619C126.481 170.416 135.581 170.815 139.222 171.015C142.862 171.215 153.985 170.336 159.85 168.02C165.715 165.704 170.771 160.033 171.782 154.642Z" fill="url(#paint38_radial_416_774)"/>
<path d="M171.782 154.642C172.793 149.251 170.164 142.347 166.524 139.466C164.491 137.858 162.647 136.772 161.063 136.186L160.203 147.984C160.87 148.543 161.573 148.086 162.074 148.652C163.49 150.249 163.288 154.043 161.063 157.038C158.838 160.033 149.738 162.629 144.278 162.629C138.817 162.629 130.323 160.832 127.694 160.632C125.065 160.432 123.447 161.431 122.436 162.629C121.425 163.827 120.818 166.822 123.649 168.619C126.481 170.416 135.581 170.815 139.222 171.015C142.862 171.215 153.985 170.336 159.85 168.02C165.715 165.704 170.771 160.033 171.782 154.642Z" fill="url(#paint39_linear_416_774)"/>
<path d="M171.782 142.131C172.793 136.739 170.164 129.836 166.524 126.955C164.652 125.475 162.942 124.461 161.446 123.853L161.063 135.129C161.435 135.469 161.784 135.813 162.074 136.14C163.49 137.738 163.288 141.532 161.063 144.527C158.838 147.522 149.738 150.118 144.278 150.118C138.817 150.118 130.323 148.32 127.694 148.121C125.065 147.921 123.447 148.919 122.436 150.118C121.425 151.316 120.818 154.311 123.649 156.108C126.481 157.905 135.581 158.304 139.222 158.504C142.862 158.704 153.985 157.825 159.85 155.509C165.715 153.192 170.771 147.522 171.782 142.131Z" fill="url(#paint40_radial_416_774)"/>
<path d="M171.782 142.131C172.793 136.739 170.164 129.836 166.524 126.955C164.652 125.475 162.942 124.461 161.446 123.853L161.063 135.129C161.435 135.469 161.784 135.813 162.074 136.14C163.49 137.738 163.288 141.532 161.063 144.527C158.838 147.522 149.738 150.118 144.278 150.118C138.817 150.118 130.323 148.32 127.694 148.121C125.065 147.921 123.447 148.919 122.436 150.118C121.425 151.316 120.818 154.311 123.649 156.108C126.481 157.905 135.581 158.304 139.222 158.504C142.862 158.704 153.985 157.825 159.85 155.509C165.715 153.192 170.771 147.522 171.782 142.131Z" fill="url(#paint41_linear_416_774)"/>
<g filter="url(#filter7_ii_416_774)">
<path d="M96.1926 144.83C96.8502 144.021 95.9125 142.985 94.9724 143.437C86.6788 147.423 78.9046 148.216 69.9043 146.493C69.4662 146.409 69.0218 146.619 68.7966 147.004C68.3663 147.739 67.8144 148.603 67.3745 149.349C67.123 149.776 67.248 150.319 67.6594 150.594C76.3372 156.398 88.05 154.853 96.1926 144.83Z" fill="#6E91AE"/>
</g>
<path fill-rule="evenodd" clip-rule="evenodd" d="M191.939 116.102C195.32 116.06 198.27 114.94 200.809 112.668C201.109 112.401 201.569 112.426 201.834 112.728C202.101 113.027 202.073 113.489 201.774 113.757C198.962 116.271 195.697 117.515 191.953 117.561C191.552 117.567 191.224 117.241 191.22 116.84C191.216 116.436 191.538 116.105 191.939 116.102Z" fill="#FFA319" stroke="#FFA319" stroke-width="0.5"/>
<path fill-rule="evenodd" clip-rule="evenodd" d="M187.338 148.869C186.547 149.236 185.722 149.532 184.873 149.743C184.495 149.838 183.711 149.97 183.103 149.854C182.454 149.733 181.981 149.367 181.855 148.732C181.689 147.888 181.893 147.308 182.246 146.916C182.586 146.538 183.108 146.315 183.739 146.258C184.946 146.151 186.597 146.679 187.488 147.162C188.248 146.748 188.969 146.261 189.641 145.713C194.652 141.629 195.419 133.796 191.665 126.552C190.35 124.017 186.678 121.946 182.565 120.252C176.161 117.613 168.638 115.989 166.453 115.444C165.914 115.308 165.611 115.169 165.555 115.123C165.28 114.903 165.264 114.647 165.279 114.476C165.303 114.228 165.401 114.052 165.522 113.922C165.686 113.747 165.923 113.631 166.236 113.634C166.409 113.637 166.637 113.689 166.874 113.761C167.038 113.813 167.21 113.898 167.338 113.897C168.161 113.891 168.978 113.835 169.799 113.786C172.557 113.628 175.228 113.172 177.93 112.592C186.516 110.749 195.49 109.154 203 104.294C203.337 104.076 203.787 104.172 204.003 104.511C204.22 104.848 204.122 105.299 203.784 105.52C196.126 110.478 186.987 112.139 178.23 114.019C175.931 114.512 173.654 114.917 171.33 115.133C175.066 116.091 180.196 117.561 184.551 119.517C188.425 121.256 191.675 123.412 192.953 125.876C197.066 133.812 196.043 142.374 190.555 146.845C189.967 147.323 189.346 147.761 188.696 148.149C193.116 152.53 193.468 159.358 189.419 164.171C189.16 164.481 188.702 164.519 188.395 164.261C188.09 163.999 188.052 163.54 188.311 163.231C191.959 158.893 191.523 152.693 187.338 148.869ZM185.699 147.971C185.316 148.109 184.925 148.227 184.527 148.328C184.314 148.38 183.91 148.461 183.542 148.44C183.457 148.434 183.329 148.402 183.27 148.385C183.229 148.164 183.226 148 183.322 147.894C183.442 147.76 183.643 147.732 183.864 147.712C184.419 147.661 185.101 147.785 185.699 147.971Z" fill="#FFA319" stroke="#FFA319" stroke-width="0.5"/>
</g>
<defs>
<filter id="filter0_f_416_774" x="16.5039" y="175.762" width="166.486" height="35.2383" filterUnits="userSpaceOnUse" color-interpolation-filters="sRGB">
<feFlood flood-opacity="0" result="BackgroundImageFix"/>
<feBlend mode="normal" in="SourceGraphic" in2="BackgroundImageFix" result="shape"/>
<feGaussianBlur stdDeviation="5.5" result="effect1_foregroundBlur_416_774"/>
</filter>
<filter id="filter1_i_416_774" x="33.6689" y="94.0938" width="124.948" height="43.3624" filterUnits="userSpaceOnUse" color-interpolation-filters="sRGB">
<feFlood flood-opacity="0" result="BackgroundImageFix"/>
<feBlend mode="normal" in="SourceGraphic" in2="BackgroundImageFix" result="shape"/>
<feColorMatrix in="SourceAlpha" type="matrix" values="0 0 0 0 0 0 0 0 0 0 0 0 0 0 0 0 0 0 127 0" result="hardAlpha"/>
<feOffset dx="1" dy="1"/>
<feGaussianBlur stdDeviation="1"/>
<feComposite in2="hardAlpha" operator="arithmetic" k2="-1" k3="1"/>
<feColorMatrix type="matrix" values="0 0 0 0 0.406701 0 0 0 0 0.610284 0 0 0 0 0.920833 0 0 0 1 0"/>
<feBlend mode="normal" in2="shape" result="effect1_innerShadow_416_774"/>
</filter>
<filter id="filter2_di_416_774" x="69.7832" y="69.8038" width="22.1035" height="21.7253" filterUnits="userSpaceOnUse" color-interpolation-filters="sRGB">
<feFlood flood-opacity="0" result="BackgroundImageFix"/>
<feColorMatrix in="SourceAlpha" type="matrix" values="0 0 0 0 0 0 0 0 0 0 0 0 0 0 0 0 0 0 127 0" result="hardAlpha"/>
<feOffset/>
<feGaussianBlur stdDeviation="2.5"/>
<feComposite in2="hardAlpha" operator="out"/>
<feColorMatrix type="matrix" values="0 0 0 0 0.3 0 0 0 0 0.832 0 0 0 0 1 0 0 0 0.4 0"/>
<feBlend mode="normal" in2="BackgroundImageFix" result="effect1_dropShadow_416_774"/>
<feBlend mode="normal" in="SourceGraphic" in2="effect1_dropShadow_416_774" result="shape"/>
<feColorMatrix in="SourceAlpha" type="matrix" values="0 0 0 0 0 0 0 0 0 0 0 0 0 0 0 0 0 0 127 0" result="hardAlpha"/>
<feOffset/>
<feGaussianBlur stdDeviation="2"/>
<feComposite in2="hardAlpha" operator="arithmetic" k2="-1" k3="1"/>
<feColorMatrix type="matrix" values="0 0 0 0 0.309804 0 0 0 0 0.67451 0 0 0 0 0.886275 0 0 0 1 0"/>
<feBlend mode="normal" in2="shape" result="effect2_innerShadow_416_774"/>
</filter>
<filter id="filter3_di_416_774" x="118.575" y="77.3685" width="19.0781" height="19.0776" filterUnits="userSpaceOnUse" color-interpolation-filters="sRGB">
<feFlood flood-opacity="0" result="BackgroundImageFix"/>
<feColorMatrix in="SourceAlpha" type="matrix" values="0 0 0 0 0 0 0 0 0 0 0 0 0 0 0 0 0 0 127 0" result="hardAlpha"/>
<feOffset/>
<feGaussianBlur stdDeviation="2.5"/>
<feComposite in2="hardAlpha" operator="out"/>
<feColorMatrix type="matrix" values="0 0 0 0 0.3 0 0 0 0 0.832 0 0 0 0 1 0 0 0 0.4 0"/>
<feBlend mode="normal" in2="BackgroundImageFix" result="effect1_dropShadow_416_774"/>
<feBlend mode="normal" in="SourceGraphic" in2="effect1_dropShadow_416_774" result="shape"/>
<feColorMatrix in="SourceAlpha" type="matrix" values="0 0 0 0 0 0 0 0 0 0 0 0 0 0 0 0 0 0 127 0" result="hardAlpha"/>
<feOffset/>
<feGaussianBlur stdDeviation="1.5"/>
<feComposite in2="hardAlpha" operator="arithmetic" k2="-1" k3="1"/>
<feColorMatrix type="matrix" values="0 0 0 0 0.309804 0 0 0 0 0.67451 0 0 0 0 0.886275 0 0 0 1 0"/>
<feBlend mode="normal" in2="shape" result="effect2_innerShadow_416_774"/>
</filter>
<filter id="filter4_di_416_774" x="83.7783" y="95.9019" width="39.8809" height="39.1241" filterUnits="userSpaceOnUse" color-interpolation-filters="sRGB">
<feFlood flood-opacity="0" result="BackgroundImageFix"/>
<feColorMatrix in="SourceAlpha" type="matrix" values="0 0 0 0 0 0 0 0 0 0 0 0 0 0 0 0 0 0 127 0" result="hardAlpha"/>
<feOffset/>
<feGaussianBlur stdDeviation="2.5"/>
<feComposite in2="hardAlpha" operator="out"/>
<feColorMatrix type="matrix" values="0 0 0 0 0.3 0 0 0 0 0.832 0 0 0 0 1 0 0 0 0.4 0"/>
<feBlend mode="normal" in2="BackgroundImageFix" result="effect1_dropShadow_416_774"/>
<feBlend mode="normal" in="SourceGraphic" in2="effect1_dropShadow_416_774" result="shape"/>
<feColorMatrix in="SourceAlpha" type="matrix" values="0 0 0 0 0 0 0 0 0 0 0 0 0 0 0 0 0 0 127 0" result="hardAlpha"/>
<feOffset/>
<feGaussianBlur stdDeviation="1"/>
<feComposite in2="hardAlpha" operator="arithmetic" k2="-1" k3="1"/>
<feColorMatrix type="matrix" values="0 0 0 0 0.309804 0 0 0 0 0.67451 0 0 0 0 0.886275 0 0 0 1 0"/>
<feBlend mode="normal" in2="shape" result="effect2_innerShadow_416_774"/>
</filter>
<filter id="filter5_di_416_774" x="38.7676" y="97.4149" width="38.3682" height="35.7201" filterUnits="userSpaceOnUse" color-interpolation-filters="sRGB">
<feFlood flood-opacity="0" result="BackgroundImageFix"/>
<feColorMatrix in="SourceAlpha" type="matrix" values="0 0 0 0 0 0 0 0 0 0 0 0 0 0 0 0 0 0 127 0" result="hardAlpha"/>
<feOffset/>
<feGaussianBlur stdDeviation="2.5"/>
<feComposite in2="hardAlpha" operator="out"/>
<feColorMatrix type="matrix" values="0 0 0 0 0.3 0 0 0 0 0.832 0 0 0 0 1 0 0 0 0.4 0"/>
<feBlend mode="normal" in2="BackgroundImageFix" result="effect1_dropShadow_416_774"/>
<feBlend mode="normal" in="SourceGraphic" in2="effect1_dropShadow_416_774" result="shape"/>
<feColorMatrix in="SourceAlpha" type="matrix" values="0 0 0 0 0 0 0 0 0 0 0 0 0 0 0 0 0 0 127 0" result="hardAlpha"/>
<feOffset/>
<feGaussianBlur stdDeviation="1"/>
<feComposite in2="hardAlpha" operator="arithmetic" k2="-1" k3="1"/>
<feColorMatrix type="matrix" values="0 0 0 0 0.309804 0 0 0 0 0.67451 0 0 0 0 0.886275 0 0 0 1 0"/>
<feBlend mode="normal" in2="shape" result="effect2_innerShadow_416_774"/>
</filter>
<filter id="filter6_b_416_774" x="33.0693" y="94.752" width="12.9238" height="38.0137" filterUnits="userSpaceOnUse" color-interpolation-filters="sRGB">
<feFlood flood-opacity="0" result="BackgroundImageFix"/>
<feGaussianBlur in="BackgroundImage" stdDeviation="1"/>
<feComposite in2="SourceAlpha" operator="in" result="effect1_backgroundBlur_416_774"/>
<feBlend mode="normal" in="SourceGraphic" in2="effect1_backgroundBlur_416_774" result="shape"/>
</filter>
<filter id="filter7_ii_416_774" x="67.2451" y="143.327" width="30.167" height="11.6378" filterUnits="userSpaceOnUse" color-interpolation-filters="sRGB">
<feFlood flood-opacity="0" result="BackgroundImageFix"/>
<feBlend mode="normal" in="SourceGraphic" in2="BackgroundImageFix" result="shape"/>
<feColorMatrix in="SourceAlpha" type="matrix" values="0 0 0 0 0 0 0 0 0 0 0 0 0 0 0 0 0 0 127 0" result="hardAlpha"/>
<feOffset dx="1" dy="1"/>
<feGaussianBlur stdDeviation="1"/>
<feComposite in2="hardAlpha" operator="arithmetic" k2="-1" k3="1"/>
<feColorMatrix type="matrix" values="0 0 0 0 0.12526 0 0 0 0 0.136707 0 0 0 0 0.154167 0 0 0 0.8 0"/>
<feBlend mode="normal" in2="shape" result="effect1_innerShadow_416_774"/>
<feColorMatrix in="SourceAlpha" type="matrix" values="0 0 0 0 0 0 0 0 0 0 0 0 0 0 0 0 0 0 127 0" result="hardAlpha"/>
<feOffset/>
<feGaussianBlur stdDeviation="1"/>
<feComposite in2="hardAlpha" operator="arithmetic" k2="-1" k3="1"/>
<feColorMatrix type="matrix" values="0 0 0 0 0.183333 0 0 0 0 0.201667 0 0 0 0 0.229167 0 0 0 0.7 0"/>
<feBlend mode="normal" in2="effect1_innerShadow_416_774" result="effect2_innerShadow_416_774"/>
</filter>
<linearGradient id="paint0_linear_416_774" x1="11.4028" y1="1.64792" x2="21.7678" y2="16.8895" gradientUnits="userSpaceOnUse">
<stop stop-color="#BABB98"/>
<stop offset="0.1539" stop-color="#9C9D7F"/>
<stop offset="0.7399" stop-color="#2C2D24"/>
<stop offset="1"/>
</linearGradient>
<radialGradient id="paint1_radial_416_774" cx="0" cy="0" r="1" gradientUnits="userSpaceOnUse" gradientTransform="translate(140.289 182.589) rotate(-32.9903) scale(31.274 38.6298)">
<stop stop-color="#A5C5CF"/>
<stop offset="1" stop-color="#607791"/>
</radialGradient>
<linearGradient id="paint2_linear_416_774" x1="195.25" y1="184.07" x2="158.576" y2="184.275" gradientUnits="userSpaceOnUse">
<stop stop-color="white"/>
<stop offset="1" stop-color="white" stop-opacity="0"/>
</linearGradient>
<radialGradient id="paint3_radial_416_774" cx="0" cy="0" r="1" gradientUnits="userSpaceOnUse" gradientTransform="translate(55.2503 183.372) rotate(-145.187) scale(31.2386 38.5752)">
<stop stop-color="#A5C5CF"/>
<stop offset="1" stop-color="#607791"/>
</radialGradient>
<linearGradient id="paint4_linear_416_774" x1="5.87266" y1="178.511" x2="36.9355" y2="184.468" gradientUnits="userSpaceOnUse">
<stop stop-color="white"/>
<stop offset="1" stop-color="white" stop-opacity="0"/>
</linearGradient>
<radialGradient id="paint5_radial_416_774" cx="0" cy="0" r="1" gradientUnits="userSpaceOnUse" gradientTransform="translate(72.1439 176.922) rotate(-150.255) scale(23.7525 29.331)">
<stop stop-color="#A5C5CF"/>
<stop offset="1" stop-color="#607791"/>
</radialGradient>
<radialGradient id="paint6_radial_416_774" cx="0" cy="0" r="1" gradientUnits="userSpaceOnUse" gradientTransform="translate(116.718 178.266) rotate(-34.8135) scale(31.2386 38.5752)">
<stop stop-color="#A5C5CF"/>
<stop offset="1" stop-color="#607791"/>
</radialGradient>
<radialGradient id="paint7_radial_416_774" cx="0" cy="0" r="1" gradientUnits="userSpaceOnUse" gradientTransform="translate(29.245 155.439) rotate(-76.4286) scale(26.3036 28.4777)">
<stop stop-color="#A5C5CF"/>
<stop offset="1" stop-color="#607791"/>
</radialGradient>
<linearGradient id="paint8_linear_416_774" x1="25.1298" y1="147" x2="61.4455" y2="157.815" gradientUnits="userSpaceOnUse">
<stop stop-color="#405469" stop-opacity="0"/>
<stop offset="1" stop-color="#405469"/>
</linearGradient>
<radialGradient id="paint9_radial_416_774" cx="0" cy="0" r="1" gradientUnits="userSpaceOnUse" gradientTransform="translate(24.0845 137.673) rotate(-28.6712) scale(28.6907 40.7691)">
<stop stop-color="#A5C5CF"/>
<stop offset="1" stop-color="#607791"/>
</radialGradient>
<linearGradient id="paint10_linear_416_774" x1="31.1088" y1="123.014" x2="32.105" y2="159.559" gradientUnits="userSpaceOnUse">
<stop stop-color="#405469" stop-opacity="0"/>
<stop offset="1" stop-color="#405469"/>
</linearGradient>
<radialGradient id="paint11_radial_416_774" cx="0" cy="0" r="1" gradientUnits="userSpaceOnUse" gradientTransform="translate(85.8927 71.8428) rotate(42.1485) scale(90.7331 76.8207)">
<stop stop-color="#50778E"/>
<stop offset="0.583333" stop-color="#3D6F85"/>
<stop offset="1" stop-color="#343E52"/>
</radialGradient>
<linearGradient id="paint12_linear_416_774" x1="161.778" y1="152.72" x2="75.5402" y2="132.296" gradientUnits="userSpaceOnUse">
<stop stop-color="#273132"/>
<stop offset="1" stop-color="#30578F" stop-opacity="0"/>
</linearGradient>
<linearGradient id="paint13_linear_416_774" x1="33.1778" y1="116.41" x2="95.2222" y2="135.676" gradientUnits="userSpaceOnUse">
<stop stop-color="#B7D5E6"/>
<stop offset="1" stop-color="#72EEFF" stop-opacity="0"/>
</linearGradient>
<linearGradient id="paint14_linear_416_774" x1="65.0962" y1="39.6774" x2="82.141" y2="64.418" gradientUnits="userSpaceOnUse">
<stop stop-color="#BABB98"/>
<stop offset="0.1539" stop-color="#9C9D7F"/>
<stop offset="0.7399" stop-color="#2C2D24"/>
<stop offset="1"/>
</linearGradient>
<radialGradient id="paint15_radial_416_774" cx="0" cy="0" r="1" gradientUnits="userSpaceOnUse" gradientTransform="translate(57.4132 115.544) rotate(96.3402) scale(22.232 20.7918)">
<stop offset="0.462963" stop-color="#69C7FA"/>
<stop offset="0.684954" stop-color="#195EA1"/>
<stop offset="1" stop-color="#304758"/>
</radialGradient>
<radialGradient id="paint16_diamond_416_774" cx="0" cy="0" r="1" gradientUnits="userSpaceOnUse" gradientTransform="translate(58.6566 113.126) rotate(107.51) scale(28.1821 30.0668)">
<stop offset="0.404046" stop-color="#69C7FA"/>
<stop offset="0.684954" stop-color="#195EA1" stop-opacity="0"/>
<stop offset="1" stop-color="#003B6B" stop-opacity="0"/>
</radialGradient>
<radialGradient id="paint17_diamond_416_774" cx="0" cy="0" r="1" gradientUnits="userSpaceOnUse" gradientTransform="translate(55.265 113.761) rotate(176.027) scale(24.4362 30.4947)">
<stop offset="0.404046" stop-color="#69C7FA"/>
<stop offset="0.684954" stop-color="#195EA1" stop-opacity="0"/>
<stop offset="1" stop-color="#003B6B" stop-opacity="0"/>
</radialGradient>
<radialGradient id="paint18_diamond_416_774" cx="0" cy="0" r="1" gradientUnits="userSpaceOnUse" gradientTransform="translate(56.5368 114.819) rotate(-119.015) scale(29.2815 33.3723)">
<stop offset="0.404046" stop-color="#69C7FA"/>
<stop offset="0.684954" stop-color="#195EA1" stop-opacity="0"/>
<stop offset="1" stop-color="#003B6B" stop-opacity="0"/>
</radialGradient>
<radialGradient id="paint19_radial_416_774" cx="0" cy="0" r="1" gradientUnits="userSpaceOnUse" gradientTransform="translate(103.324 116.035) rotate(91.302) scale(21.6106 23.1915)">
<stop offset="0.433484" stop-color="#69C7FA"/>
<stop offset="0.684954" stop-color="#195EA1"/>
<stop offset="1" stop-color="#304758"/>
</radialGradient>
<radialGradient id="paint20_diamond_416_774" cx="0" cy="0" r="1" gradientUnits="userSpaceOnUse" gradientTransform="translate(102.214 113.405) rotate(108.376) scale(32.4095 38.3608)">
<stop offset="0.404046" stop-color="#69C7FA"/>
<stop offset="0.684954" stop-color="#195EA1" stop-opacity="0"/>
<stop offset="1" stop-color="#003B6B" stop-opacity="0"/>
</radialGradient>
<radialGradient id="paint21_diamond_416_774" cx="0" cy="0" r="1" gradientUnits="userSpaceOnUse" gradientTransform="translate(103.491 120.193) rotate(140.651) scale(21.7454 25.6494)">
<stop offset="0.404046" stop-color="#69C7FA"/>
<stop offset="0.684954" stop-color="#195EA1" stop-opacity="0"/>
<stop offset="1" stop-color="#003B6B" stop-opacity="0"/>
</radialGradient>
<radialGradient id="paint22_diamond_416_774" cx="0" cy="0" r="1" gradientUnits="userSpaceOnUse" gradientTransform="translate(102.214 113.405) rotate(-126.387) scale(28.755 33.975)">
<stop offset="0.404046" stop-color="#69C7FA"/>
<stop offset="0.684954" stop-color="#195EA1" stop-opacity="0"/>
<stop offset="1" stop-color="#003B6B" stop-opacity="0"/>
</radialGradient>
<radialGradient id="paint23_radial_416_774" cx="0" cy="0" r="1" gradientUnits="userSpaceOnUse" gradientTransform="translate(9.30895 8.79059) rotate(84.6005) scale(9.02656 9.91626)">
<stop offset="0.53125" stop-color="#69C7FA"/>
<stop offset="0.6875" stop-color="#327E9E"/>
<stop offset="1" stop-color="#2C3E4E"/>
</radialGradient>
<radialGradient id="paint24_diamond_416_774" cx="0" cy="0" r="1" gradientUnits="userSpaceOnUse" gradientTransform="translate(9.30895 8.79057) rotate(76.2005) scale(14.4101 14.2281)">
<stop offset="0.404046" stop-color="#69C7FA"/>
<stop offset="0.684954" stop-color="#195EA1" stop-opacity="0"/>
<stop offset="1" stop-color="#003B6B" stop-opacity="0"/>
</radialGradient>
<radialGradient id="paint25_diamond_416_774" cx="0" cy="0" r="1" gradientUnits="userSpaceOnUse" gradientTransform="translate(8.81792 9.28159) rotate(43.3425) scale(11.0225 9.94145)">
<stop offset="0.404046" stop-color="#69C7FA"/>
<stop offset="0.684954" stop-color="#195EA1" stop-opacity="0"/>
<stop offset="1" stop-color="#003B6B" stop-opacity="0"/>
</radialGradient>
<radialGradient id="paint26_diamond_416_774" cx="0" cy="0" r="1" gradientUnits="userSpaceOnUse" gradientTransform="translate(9.30895 8.79057) rotate(-53.8068) scale(12.4729 14.4117)">
<stop offset="0.404046" stop-color="#69C7FA"/>
<stop offset="0.684954" stop-color="#195EA1" stop-opacity="0"/>
<stop offset="1" stop-color="#003B6B" stop-opacity="0"/>
</radialGradient>
<radialGradient id="paint27_radial_416_774" cx="0" cy="0" r="1" gradientUnits="userSpaceOnUse" gradientTransform="translate(6.68977 6.85263) rotate(108.435) scale(7.76376 6.79329)">
<stop offset="0.369792" stop-color="#69C7FA"/>
<stop offset="0.651042" stop-color="#327E9E"/>
<stop offset="0.911458" stop-color="#314352"/>
</radialGradient>
<radialGradient id="paint28_diamond_416_774" cx="0" cy="0" r="1" gradientUnits="userSpaceOnUse" gradientTransform="translate(6.68978 7.58923) rotate(74.4803) scale(9.73301 9.43203)">
<stop offset="0.404046" stop-color="#69C7FA"/>
<stop offset="0.684954" stop-color="#195EA1" stop-opacity="0"/>
<stop offset="1" stop-color="#003B6B" stop-opacity="0"/>
</radialGradient>
<radialGradient id="paint29_diamond_416_774" cx="0" cy="0" r="1" gradientUnits="userSpaceOnUse" gradientTransform="translate(5.70773 8.32576) rotate(32.7234) scale(7.80608 7.04753)">
<stop offset="0.404046" stop-color="#69C7FA"/>
<stop offset="0.684954" stop-color="#195EA1" stop-opacity="0"/>
<stop offset="1" stop-color="#003B6B" stop-opacity="0"/>
</radialGradient>
<radialGradient id="paint30_diamond_416_774" cx="0" cy="0" r="1" gradientUnits="userSpaceOnUse" gradientTransform="translate(6.68977 5.62513) rotate(-4.39871) scale(9.60324 6.74823)">
<stop offset="0.404046" stop-color="#69C7FA"/>
<stop offset="0.684954" stop-color="#195EA1" stop-opacity="0"/>
<stop offset="1" stop-color="#003B6B" stop-opacity="0"/>
</radialGradient>
<radialGradient id="paint31_diamond_416_774" cx="0" cy="0" r="1" gradientUnits="userSpaceOnUse" gradientTransform="translate(4.10656 9.63151) rotate(-35.2575) scale(9.79344 6.91706)">
<stop stop-color="#2B66FF"/>
<stop offset="0.526042" stop-color="#3748A1"/>
<stop offset="1" stop-color="#2E3172"/>
</radialGradient>
<radialGradient id="paint32_diamond_416_774" cx="0" cy="0" r="1" gradientUnits="userSpaceOnUse" gradientTransform="translate(3.07992 7.45666) rotate(-36.1193) scale(7.42487 5.29759)">
<stop stop-color="#2B66FF"/>
<stop offset="0.526042" stop-color="#3748A1"/>
<stop offset="1" stop-color="#2E3172"/>
</radialGradient>
<radialGradient id="paint33_diamond_416_774" cx="0" cy="0" r="1" gradientUnits="userSpaceOnUse" gradientTransform="translate(10.1381 23.9234) rotate(-35.4225) scale(24.227 17.146)">
<stop stop-color="#2B66FF"/>
<stop offset="0.526042" stop-color="#3748A1"/>
<stop offset="1" stop-color="#2E3172"/>
</radialGradient>
<radialGradient id="paint34_diamond_416_774" cx="0" cy="0" r="1" gradientUnits="userSpaceOnUse" gradientTransform="translate(9.62476 21.1272) rotate(-33.4895) scale(22.4739 15.4966)">
<stop stop-color="#2B66FF"/>
<stop offset="0.526042" stop-color="#3748A1"/>
<stop offset="1" stop-color="#2E3172"/>
</radialGradient>
<linearGradient id="paint35_linear_416_774" x1="49.9377" y1="103.734" x2="53.8417" y2="109.686" gradientUnits="userSpaceOnUse">
<stop stop-color="#BABB98"/>
<stop offset="0.1539" stop-color="#9C9D7F"/>
<stop offset="0.7399" stop-color="#2C2D24"/>
<stop offset="1"/>
</linearGradient>
<linearGradient id="paint36_linear_416_774" x1="95.6028" y1="101.77" x2="99.5067" y2="107.722" gradientUnits="userSpaceOnUse">
<stop stop-color="#BABB98"/>
<stop offset="0.1539" stop-color="#9C9D7F"/>
<stop offset="0.7399" stop-color="#2C2D24"/>
<stop offset="1"/>
</linearGradient>
<linearGradient id="paint37_linear_416_774" x1="43.4848" y1="93.594" x2="38.3973" y2="92.4127" gradientUnits="userSpaceOnUse">
<stop stop-color="#2B66FF"/>
<stop offset="0.526042" stop-color="#3746A1"/>
<stop offset="1" stop-color="#271B74"/>
</linearGradient>
<radialGradient id="paint38_radial_416_774" cx="0" cy="0" r="1" gradientUnits="userSpaceOnUse" gradientTransform="translate(109.695 159.234) rotate(-16.2167) scale(54.339 39.4102)">
<stop stop-color="#A5C5CF"/>
<stop offset="1" stop-color="#607791"/>
</radialGradient>
<linearGradient id="paint39_linear_416_774" x1="146.907" y1="175.984" x2="157.581" y2="144.751" gradientUnits="userSpaceOnUse">
<stop stop-color="#405469" stop-opacity="0"/>
<stop offset="1" stop-color="#405469"/>
</linearGradient>
<radialGradient id="paint40_radial_416_774" cx="0" cy="0" r="1" gradientUnits="userSpaceOnUse" gradientTransform="translate(109.695 146.723) rotate(-16.2167) scale(54.339 39.4102)">
<stop stop-color="#A5C5CF"/>
<stop offset="1" stop-color="#607791"/>
</radialGradient>
<linearGradient id="paint41_linear_416_774" x1="146.907" y1="153.889" x2="162.763" y2="122.996" gradientUnits="userSpaceOnUse">
<stop stop-color="#405469" stop-opacity="0"/>
<stop offset="1" stop-color="#405469"/>
</linearGradient>
<clipPath id="clip0_416_774">
<rect width="210" height="210" fill="white"/>
</clipPath>
</defs>
</svg>
