<svg width="210" height="210" viewBox="0 0 210 210" fill="none" xmlns="http://www.w3.org/2000/svg">
<g clip-path="url(#clip0_416_267)">
<path fill-rule="evenodd" clip-rule="evenodd" d="M27.963 0.000954769C35.9131 0.0507866 43.9609 2.13235 49.1061 8.23185C54.4324 14.5459 56.0782 23.1635 54.3287 31.2567C52.556 39.4575 47.4907 46.6661 40.0003 50.3557C32.4526 54.0736 23.6243 53.7584 16.0398 50.1171C8.41892 46.4584 2.54226 39.7556 0.664724 31.4709C-1.21244 23.1877 0.935194 14.3649 6.48697 7.96471C11.7656 1.87943 19.9365 -0.0493554 27.963 0.000954769Z" fill="#1975FF"/>
<g style="mix-blend-mode:screen">
<path d="M29.6818 3C30.6035 3 31.5476 3.04657 32.4018 3.44239C33.2336 3.83821 33.9529 4.65314 33.9979 5.60777C34.0428 6.58568 33.3684 7.49375 32.5592 7.9827C31.7499 8.47166 30.7833 8.65793 29.8616 8.89076C25.5231 9.93853 22.0837 11.2657 18.1273 13.3845C13.5864 15.8293 9.04557 18.2741 4.52718 20.7189C4.14502 20.9284 3.65047 21.138 3.2908 20.8818C2.79625 20.5326 3.02105 19.7409 3.31328 19.2054C7.06737 12.197 13.3616 7.1212 20.645 4.56C23.5224 3.55881 26.6021 3 29.6818 3Z" fill="url(#paint0_linear_416_267)"/>
</g>
<path d="M24.1178 32.991L24.1268 31.317L29.7698 26.259C30.2258 25.857 30.5348 25.473 30.6968 25.107C30.8648 24.741 30.9488 24.375 30.9488 24.009C30.9488 23.547 30.8468 23.133 30.6428 22.767C30.4388 22.395 30.1568 22.101 29.7968 21.885C29.4368 21.669 29.0228 21.561 28.5548 21.561C28.0748 21.561 27.6458 21.675 27.2678 21.903C26.8958 22.125 26.6048 22.422 26.3948 22.794C26.1848 23.166 26.0828 23.568 26.0888 24H24.1628C24.1628 23.16 24.3518 22.425 24.7298 21.795C25.1138 21.159 25.6388 20.664 26.3048 20.31C26.9708 19.95 27.7328 19.77 28.5908 19.77C29.4068 19.77 30.1388 19.956 30.7868 20.328C31.4348 20.694 31.9448 21.198 32.3168 21.84C32.6948 22.482 32.8838 23.214 32.8838 24.036C32.8838 24.63 32.8058 25.134 32.6498 25.548C32.4938 25.962 32.2598 26.346 31.9478 26.7C31.6358 27.054 31.2458 27.438 30.7778 27.852L26.4218 31.74L26.2148 31.2H32.8838V32.991H24.1178Z" fill="white"/>
<path d="M205.035 117.209C204.646 115.597 202.354 115.597 201.965 117.209L202.461 120.296C202.322 120.872 201.872 121.322 201.296 121.461L198.209 120.965C196.597 121.354 196.597 123.646 198.209 124.035L201.296 123.539C201.872 123.678 202.322 124.128 202.461 124.704L201.965 127.791C202.354 129.403 204.646 129.403 205.035 127.791L204.539 124.704C204.678 124.128 205.128 123.678 205.704 123.539L208.791 124.035C210.403 123.646 210.403 121.354 208.791 120.965L205.704 121.461C205.128 121.322 204.678 120.872 204.539 120.296L205.035 117.209Z" fill="#FFA319"/>
<path d="M187.307 36.1034C186.469 32.6322 181.531 32.6322 180.693 36.1034L181.762 42.7535C181.462 43.9939 180.494 44.9624 179.253 45.2619L172.603 44.1934C169.132 45.0313 169.132 49.9687 172.603 50.8066L179.253 49.7381C180.494 50.0376 181.462 51.0061 181.762 52.2465L180.693 58.8966C181.531 62.3678 186.469 62.3678 187.307 58.8966L186.238 52.2465C186.538 51.0061 187.506 50.0376 188.747 49.7381L195.397 50.8066C198.868 49.9687 198.868 45.0313 195.397 44.1934L188.747 45.2619C187.506 44.9624 186.538 43.9939 186.238 42.7535L187.307 36.1034Z" fill="#FFA319" stroke="white" stroke-width="1.3"/>
<path d="M24.2714 79.3947C23.8225 77.5351 21.1775 77.5351 20.7286 79.3947L21.301 82.9572C21.1406 83.6217 20.6217 84.1406 19.9572 84.301L16.3947 83.7286C14.5351 84.1775 14.5351 86.8225 16.3947 87.2714L19.9572 86.699C20.6217 86.8594 21.1406 87.3783 21.301 88.0428L20.7286 91.6053C21.1775 93.4649 23.8225 93.4649 24.2714 91.6053L23.699 88.0428C23.8594 87.3783 24.3783 86.8594 25.0428 86.699L28.6053 87.2714C30.4649 86.8225 30.4649 84.1775 28.6053 83.7286L25.0428 84.301C24.3783 84.1406 23.8594 83.6217 23.699 82.9572L24.2714 79.3947Z" fill="#FFA319"/>
<g filter="url(#filter0_f_416_267)">
<path d="M102.429 188.728C132.943 188.728 156.043 188.151 156.043 191.615C156.043 195.079 149.904 195.464 149.904 197.195C149.904 197.195 170.776 192.962 174.05 197.195C177.324 201.429 139.672 201.814 139.672 201.814H102.429C97.1087 201.814 27.1244 203.353 27.1244 197.58C27.1244 191.807 52.4988 195.848 52.4988 195.848C49.8604 195.354 49.8385 190.642 49.8385 190.075C49.8385 187.737 71.915 188.728 102.429 188.728Z" fill="#AFB8C9"/>
</g>
<path d="M33.3637 175.363C37.267 168.201 41.3149 162.777 43.3388 160.607C45.7675 158.003 50.0534 156.309 51.5791 158.003C52.9669 159.044 53.3139 162.343 53.3139 163.862C50.4226 167.623 44.0327 176.318 41.604 181.005C38.5681 186.864 38.3272 192.723 37.267 195.11C36.2068 197.497 33.3637 197.931 31.1952 197.714C29.0267 197.497 27.5088 195.327 27.5088 191.855C27.5088 189.034 28.6189 184.068 33.3637 175.363Z" fill="url(#paint1_radial_416_267)"/>
<path d="M33.3637 175.363C37.267 168.201 41.3149 162.777 43.3388 160.607C45.7675 158.003 50.0534 156.309 51.5791 158.003C52.9669 159.044 53.3139 162.343 53.3139 163.862C50.4226 167.623 44.0327 176.318 41.604 181.005C38.5681 186.864 38.3272 192.723 37.267 195.11C36.2068 197.497 33.3637 197.931 31.1952 197.714C29.0267 197.497 27.5088 195.327 27.5088 191.855C27.5088 189.034 28.6189 184.068 33.3637 175.363Z" fill="url(#paint2_linear_416_267)"/>
<path d="M171.716 175.343C167.588 168.323 163.372 163.039 161.282 160.939C158.773 158.418 154.439 156.866 152.97 158.605C151.617 159.689 151.377 162.992 151.425 164.507C154.433 168.168 161.093 176.639 163.668 181.238C166.888 186.987 167.316 192.825 168.451 195.173C169.587 197.521 172.44 197.863 174.598 197.577C176.756 197.291 178.203 195.077 178.091 191.612C178.001 188.797 176.733 183.877 171.716 175.343Z" fill="url(#paint3_radial_416_267)"/>
<path d="M171.716 175.343C167.588 168.323 163.372 163.039 161.282 160.939C158.773 158.418 154.439 156.866 152.97 158.605C151.617 159.689 151.377 162.992 151.425 164.507C154.433 168.168 161.093 176.639 163.668 181.238C166.888 186.987 167.316 192.825 168.451 195.173C169.587 197.521 172.44 197.863 174.598 197.577C176.756 197.291 178.203 195.077 178.091 191.612C178.001 188.797 176.733 183.877 171.716 175.343Z" fill="url(#paint4_linear_416_267)"/>
<path d="M149.184 170.143C145.057 163.123 140.841 157.84 138.75 155.739C136.242 153.219 131.908 151.666 130.438 153.405C129.086 154.489 128.845 157.792 128.894 159.308C131.902 162.968 138.561 171.439 141.137 176.038C144.356 181.787 144.785 187.626 145.92 189.974C147.055 192.321 149.908 192.663 152.067 192.377C154.225 192.091 155.671 189.877 155.56 186.412C155.469 183.597 154.202 178.678 149.184 170.143Z" fill="url(#paint5_radial_416_267)"/>
<path d="M57.6887 170.143C61.8161 163.123 66.0321 157.84 68.1227 155.739C70.6315 153.219 74.9655 151.666 76.4346 153.405C77.7871 154.489 78.0277 157.792 77.979 159.308C74.9712 162.968 68.3117 171.439 65.7361 176.038C62.5166 181.787 62.0881 187.626 60.9529 189.974C59.8177 192.321 56.9647 192.663 54.8063 192.377C52.6479 192.091 51.2018 189.877 51.3131 186.412C51.4036 183.597 52.6715 178.678 57.6887 170.143Z" fill="url(#paint6_radial_416_267)"/>
<path d="M28.6159 130.474C35.1058 135.272 40.6628 138.094 43.3395 139.196C46.5515 140.517 51.9482 140.533 52.4804 138.372C53.1873 136.854 53.8911 133.65 51.5563 131.06C49.2216 128.471 40.4938 126.963 32.6985 120.42C27.6815 116.208 25.7795 112.905 23.8196 111.205C21.8597 109.505 18.9045 108.784 17.1707 109.888C15.4369 110.992 14.7668 114.993 16.3157 118.112C17.5742 120.646 20.7268 124.642 28.6159 130.474Z" fill="url(#paint7_radial_416_267)"/>
<path d="M28.6159 130.474C35.1058 135.272 40.6628 138.094 43.3395 139.196C46.5515 140.517 51.9482 140.533 52.4804 138.372C53.1873 136.854 53.8911 133.65 51.5563 131.06C49.2216 128.471 40.4938 126.963 32.6985 120.42C27.6815 116.208 25.7795 112.905 23.8196 111.205C21.8597 109.505 18.9045 108.784 17.1707 109.888C15.4369 110.992 14.7668 114.993 16.3157 118.112C17.5742 120.646 20.7268 124.642 28.6159 130.474Z" fill="url(#paint8_linear_416_267)"/>
<path d="M27.8819 147.885C35.4273 150.748 41.5402 151.961 44.4146 152.297C47.8638 152.7 53.0622 151.256 52.9891 149.031C53.2585 147.379 53.068 144.104 50.1197 142.244C47.1714 140.383 38.3629 141.292 29.0883 137.103C23.1192 134.406 20.394 131.741 18.0472 130.635C15.7005 129.529 12.6611 129.634 11.2914 131.166C9.92168 132.698 10.3601 136.73 12.6957 139.313C14.5933 141.412 18.7098 144.406 27.8819 147.885Z" fill="url(#paint9_radial_416_267)"/>
<path d="M27.8819 147.885C35.4273 150.748 41.5402 151.961 44.4146 152.297C47.8638 152.7 53.0622 151.256 52.9891 149.031C53.2585 147.379 53.068 144.104 50.1197 142.244C47.1714 140.383 38.3629 141.292 29.0883 137.103C23.1192 134.406 20.394 131.741 18.0472 130.635C15.7005 129.529 12.6611 129.634 11.2914 131.166C9.92168 132.698 10.3601 136.73 12.6957 139.313C14.5933 141.412 18.7098 144.406 27.8819 147.885Z" fill="url(#paint10_linear_416_267)"/>
<path d="M175.716 132.616C169.226 137.414 163.669 140.236 160.993 141.338C157.781 142.659 152.384 142.675 151.852 140.514C151.145 138.996 150.441 135.792 152.776 133.202C155.11 130.613 163.838 129.105 171.634 122.562C176.651 118.35 178.553 115.047 180.512 113.347C182.472 111.647 185.427 110.926 187.161 112.03C188.895 113.134 189.565 117.135 188.016 120.254C186.758 122.788 183.605 126.784 175.716 132.616Z" fill="url(#paint11_radial_416_267)"/>
<path d="M175.716 132.616C169.226 137.414 163.669 140.236 160.993 141.338C157.781 142.659 152.384 142.675 151.852 140.514C151.145 138.996 150.441 135.792 152.776 133.202C155.11 130.613 163.838 129.105 171.634 122.562C176.651 118.35 178.553 115.047 180.512 113.347C182.472 111.647 185.427 110.926 187.161 112.03C188.895 113.134 189.565 117.135 188.016 120.254C186.758 122.788 183.605 126.784 175.716 132.616Z" fill="url(#paint12_linear_416_267)"/>
<path d="M176.324 154.595C168.431 156.276 162.204 156.545 159.312 156.44C155.842 156.314 150.924 154.095 151.334 151.908C151.319 150.234 152.006 147.026 155.203 145.636C158.4 144.245 166.968 146.484 176.772 143.754C183.081 141.997 186.18 139.777 188.668 139.041C191.156 138.305 194.144 138.871 195.265 140.594C196.385 142.316 195.339 146.234 192.637 148.432C190.442 150.218 185.918 152.551 176.324 154.595Z" fill="url(#paint13_radial_416_267)"/>
<path d="M176.324 154.595C168.431 156.276 162.204 156.545 159.312 156.44C155.842 156.314 150.924 154.095 151.334 151.908C151.319 150.234 152.006 147.026 155.203 145.636C158.4 144.245 166.968 146.484 176.772 143.754C183.081 141.997 186.18 139.777 188.668 139.041C191.156 138.305 194.144 138.871 195.265 140.594C196.385 142.316 195.339 146.234 192.637 148.432C190.442 150.218 185.918 152.551 176.324 154.595Z" fill="url(#paint14_linear_416_267)"/>
<path d="M154.121 169.171C149.617 173.329 137.447 177.183 132.466 178.483C125.537 180.29 107.808 180.432 95.6535 180.432C83.4993 180.432 61.5084 175.245 53.4271 170.254C46.0645 165.707 42.1669 154.23 42.1668 146.651L42.1668 117.418C42.0224 104.426 42.5133 77.6618 45.6315 69.3467C49.5294 58.9528 59.8499 48.961 67.9356 44.2279C76.8139 39.031 97.6024 33.401 114.926 37.2988C132.25 41.1965 147.408 53.9723 154.337 68.2639C161.267 82.5555 163.432 116.552 163.432 126.08C163.432 135.608 164.377 147.734 163.432 152.931C162.212 159.644 159.751 163.974 154.121 169.171Z" fill="url(#paint15_radial_416_267)"/>
<path d="M154.121 169.171C149.617 173.329 137.447 177.183 132.466 178.483C125.537 180.29 107.808 180.432 95.6535 180.432C83.4993 180.432 61.5084 175.245 53.4271 170.254C46.0645 165.707 42.1669 154.23 42.1668 146.651L42.1668 117.418C42.0224 104.426 42.5133 77.6618 45.6315 69.3467C49.5294 58.9528 59.8499 48.961 67.9356 44.2279C76.8139 39.031 97.6024 33.401 114.926 37.2988C132.25 41.1965 147.408 53.9723 154.337 68.2639C161.267 82.5555 163.432 116.552 163.432 126.08C163.432 135.608 164.377 147.734 163.432 152.931C162.212 159.644 159.751 163.974 154.121 169.171Z" fill="url(#paint16_linear_416_267)" fill-opacity="0.2"/>
<path d="M154.121 169.171C149.617 173.329 137.447 177.183 132.466 178.483C125.537 180.29 107.808 180.432 95.6535 180.432C83.4993 180.432 61.5084 175.245 53.4271 170.254C46.0645 165.707 42.1669 154.23 42.1668 146.651L42.1668 117.418C42.0224 104.426 42.5133 77.6618 45.6315 69.3467C49.5294 58.9528 59.8499 48.961 67.9356 44.2279C76.8139 39.031 97.6024 33.401 114.926 37.2988C132.25 41.1965 147.408 53.9723 154.337 68.2639C161.267 82.5555 163.432 116.552 163.432 126.08C163.432 135.608 164.377 147.734 163.432 152.931C162.212 159.644 159.751 163.974 154.121 169.171Z" fill="url(#paint17_linear_416_267)" fill-opacity="0.4"/>
<g style="mix-blend-mode:screen">
<path d="M97.0209 45.9802C96.0539 46.3231 95.0802 46.722 94.3278 47.4458C93.599 48.1611 93.1406 49.2645 93.4405 50.2603C93.7489 51.28 94.7867 51.9604 95.8136 52.1609C96.8405 52.3613 97.9224 52.1928 98.9741 52.0887C103.907 51.5495 107.999 51.6312 112.92 52.3326C118.574 53.1509 120.42 54.9469 125.264 56.4001C126.717 56.836 129.624 57.8533 131.077 56.4001C132.411 55.0661 131.561 53.6681 130.58 52.792C124.093 47.0006 115.643 44.1362 107.07 44.2187C103.687 44.2622 100.252 44.8346 97.0209 45.9802Z" fill="url(#paint18_linear_416_267)"/>
</g>
<path d="M65.877 97.8383C62.2356 98.3567 60.0248 100.79 59.3745 101.942C58.5798 102.806 56.947 105.225 56.7736 107.99C56.5568 111.446 57.6406 121.166 59.3745 126.566C61.1085 131.965 63.9262 134.557 69.5617 136.069C75.1971 137.581 80.8326 136.717 86.0345 136.069C91.2364 135.421 95.7881 132.181 98.3891 127.862C100.99 123.542 101.424 119.09 101.424 112.094C101.424 106.694 100.557 102.158 98.3891 99.5663C96.2216 96.9743 88.8522 95.8944 82.133 96.1104C75.4139 96.3264 70.4287 97.1903 65.877 97.8383Z" fill="url(#paint19_radial_416_267)"/>
<path d="M65.877 97.8383C62.2356 98.3567 60.0248 100.79 59.3745 101.942C58.5798 102.806 56.947 105.225 56.7736 107.99C56.5568 111.446 57.6406 121.166 59.3745 126.566C61.1085 131.965 63.9262 134.557 69.5617 136.069C75.1971 137.581 80.8326 136.717 86.0345 136.069C91.2364 135.421 95.7881 132.181 98.3891 127.862C100.99 123.542 101.424 119.09 101.424 112.094C101.424 106.694 100.557 102.158 98.3891 99.5663C96.2216 96.9743 88.8522 95.8944 82.133 96.1104C75.4139 96.3264 70.4287 97.1903 65.877 97.8383Z" fill="url(#paint20_diamond_416_267)" fill-opacity="0.4"/>
<path d="M65.877 97.8383C62.2356 98.3567 60.0248 100.79 59.3745 101.942C58.5798 102.806 56.947 105.225 56.7736 107.99C56.5568 111.446 57.6406 121.166 59.3745 126.566C61.1085 131.965 63.9262 134.557 69.5617 136.069C75.1971 137.581 80.8326 136.717 86.0345 136.069C91.2364 135.421 95.7881 132.181 98.3891 127.862C100.99 123.542 101.424 119.09 101.424 112.094C101.424 106.694 100.557 102.158 98.3891 99.5663C96.2216 96.9743 88.8522 95.8944 82.133 96.1104C75.4139 96.3264 70.4287 97.1903 65.877 97.8383Z" fill="url(#paint21_diamond_416_267)" fill-opacity="0.4"/>
<path d="M65.877 97.8383C62.2356 98.3567 60.0248 100.79 59.3745 101.942C58.5798 102.806 56.947 105.225 56.7736 107.99C56.5568 111.446 57.6406 121.166 59.3745 126.566C61.1085 131.965 63.9262 134.557 69.5617 136.069C75.1971 137.581 80.8326 136.717 86.0345 136.069C91.2364 135.421 95.7881 132.181 98.3891 127.862C100.99 123.542 101.424 119.09 101.424 112.094C101.424 106.694 100.557 102.158 98.3891 99.5663C96.2216 96.9743 88.8522 95.8944 82.133 96.1104C75.4139 96.3264 70.4287 97.1903 65.877 97.8383Z" fill="url(#paint22_diamond_416_267)" fill-opacity="0.4"/>
<path d="M143.535 97.3876C147.13 97.7626 149.392 100.071 150.073 101.179C150.885 101.998 152.578 104.314 152.85 107.023C153.19 110.41 152.484 119.996 150.98 125.364C149.476 130.732 146.804 133.381 141.324 135.074C135.845 136.767 130.278 136.126 125.144 135.681C120.011 135.236 115.421 132.222 112.707 128.074C109.993 123.927 109.404 119.57 109.146 112.699C108.947 107.395 109.631 102.908 111.665 100.283C113.698 97.657 120.897 96.3247 127.504 96.2893C134.112 96.2539 139.04 96.9189 143.535 97.3876Z" fill="url(#paint23_radial_416_267)"/>
<path d="M143.535 97.3876C147.13 97.7626 149.392 100.071 150.073 101.179C150.885 101.998 152.578 104.314 152.85 107.023C153.19 110.41 152.484 119.996 150.98 125.364C149.476 130.732 146.804 133.381 141.324 135.074C135.845 136.767 130.278 136.126 125.144 135.681C120.011 135.236 115.421 132.222 112.707 128.074C109.993 123.927 109.404 119.57 109.146 112.699C108.947 107.395 109.631 102.908 111.665 100.283C113.698 97.657 120.897 96.3247 127.504 96.2893C134.112 96.2539 139.04 96.9189 143.535 97.3876Z" fill="url(#paint24_diamond_416_267)" fill-opacity="0.4"/>
<path d="M143.535 97.3876C147.13 97.7626 149.392 100.071 150.073 101.179C150.885 101.998 152.578 104.314 152.85 107.023C153.19 110.41 152.484 119.996 150.98 125.364C149.476 130.732 146.804 133.381 141.324 135.074C135.845 136.767 130.278 136.126 125.144 135.681C120.011 135.236 115.421 132.222 112.707 128.074C109.993 123.927 109.404 119.57 109.146 112.699C108.947 107.395 109.631 102.908 111.665 100.283C113.698 97.657 120.897 96.3247 127.504 96.2893C134.112 96.2539 139.04 96.9189 143.535 97.3876Z" fill="url(#paint25_diamond_416_267)" fill-opacity="0.4"/>
<path d="M143.535 97.3876C147.13 97.7626 149.392 100.071 150.073 101.179C150.885 101.998 152.578 104.314 152.85 107.023C153.19 110.41 152.484 119.996 150.98 125.364C149.476 130.732 146.804 133.381 141.324 135.074C135.845 136.767 130.278 136.126 125.144 135.681C120.011 135.236 115.421 132.222 112.707 128.074C109.993 123.927 109.404 119.57 109.146 112.699C108.947 107.395 109.631 102.908 111.665 100.283C113.698 97.657 120.897 96.3247 127.504 96.2893C134.112 96.2539 139.04 96.9189 143.535 97.3876Z" fill="url(#paint26_diamond_416_267)" fill-opacity="0.4"/>
<g filter="url(#filter1_i_416_267)">
<path fill-rule="evenodd" clip-rule="evenodd" d="M56.9554 100.931H42.2773V103.019L45.9069 103.529L48.5018 104.395C51.0245 106.128 53.9714 109.981 54.1444 111.54C54.3606 113.489 56.0905 124.748 57.8204 129.511C59.5503 134.274 62.7938 136.656 67.3348 137.522C70.5356 138.133 75.9925 137.882 80.3735 137.682C82.2079 137.598 83.8536 137.522 85.0662 137.522C89.1747 137.522 92.4182 135.79 94.7968 133.841C97.1754 131.893 100.635 125.614 101.5 122.366C102.365 119.118 102.581 110.241 102.365 106.777C102.192 104.006 101.933 102.88 101.716 102.663C102.293 102.519 105.977 102.23 106.669 102.23C107.361 102.23 109.903 102.519 110.551 102.663C110.119 103.457 109.254 105.781 109.254 108.726C109.254 112.406 109.47 119.768 110.335 124.748C111.2 129.728 114.444 133.408 117.255 135.357C119.504 136.916 122.805 137.45 124.174 137.522H136.067C138.158 137.811 142.969 137.043 145.014 135.357C147.757 133.095 149.365 131.293 150.473 127.764C150.85 126.564 151.289 125.054 151.885 122.609C152.966 118.172 153.082 113.362 153.082 110.674L162.029 104.006C162.029 104.006 162.029 100.794 161.493 101.329C161.493 101.329 153.06 103.096 152.582 103.096H152.15C151.718 102.158 150.507 99.9785 149.123 98.766C147.393 97.2504 142.122 94.8687 131.959 94.8687C121.796 94.8687 116.822 96.3843 114.444 97.6835C112.952 98.498 112.161 99.8089 111.61 100.72C111.458 100.971 111.325 101.192 111.2 101.364C110.624 101.22 107.318 100.931 106.453 100.931C105.588 100.931 101.933 101.22 101.284 101.364C100.996 100.715 99.5108 98.7227 97.6079 97.6835C95.2293 96.3844 88.7422 95.3018 84.4175 94.8687C80.0927 94.4357 69.9296 95.5183 64.9562 96.3843C60.9774 97.0772 57.9645 99.7042 56.9554 100.931ZM61.0639 99.6321C59.3037 100.717 58.8331 101.757 58.2523 103.041C58.1197 103.334 57.9812 103.64 57.8204 103.962C56.9554 105.694 56.523 108.639 56.523 110.025C56.523 111.757 56.523 113.272 57.3879 118.469C58.2528 123.665 58.9016 126.263 61.0639 130.594C62.7938 134.058 66.1094 135.646 67.551 136.007C70.2661 136.686 74.9786 136.566 78.2401 136.482C79.1347 136.46 79.9201 136.44 80.5252 136.44C80.8231 136.44 81.1409 136.445 81.4765 136.451C84.307 136.498 88.3972 136.567 92.4182 133.625C97.6732 129.78 99.1499 124.043 100.203 119.951C100.277 119.665 100.348 119.387 100.419 119.118C101.5 115.005 101.284 106.777 100.419 103.529C99.554 100.282 96.9592 98.9826 94.5806 98.333C92.202 97.6835 87.661 97.0339 84.6337 96.8174C81.6064 96.6009 74.9031 96.6009 69.4971 97.2504C65.1724 97.7701 62.5776 98.6994 61.0639 99.6321ZM150.058 102.482C149.501 101.255 149.05 100.26 147.361 99.2232C145.909 98.3315 143.757 97.5307 139.608 97.0339C134.422 96.4129 131.187 96.1774 128.283 96.3844C125.378 96.5914 120.381 97.0744 118.099 97.6954C115.817 98.3164 113.327 99.5583 112.497 102.663C111.668 105.768 110.768 111.324 111.47 118.045C111.893 122.09 112.705 129.476 118.099 133.408C121.956 136.221 125.88 136.155 128.596 136.11C128.918 136.104 129.223 136.099 129.508 136.099C129.714 136.099 129.951 136.1 130.213 136.1C133.384 136.107 140.295 135.879 143.121 134.466C144.152 133.95 146.783 130.644 147.761 128.279C148.827 125.702 149.559 122.612 150.178 118.762C150.269 118.193 150.366 117.593 150.473 116.953C151.303 111.985 151.501 109.949 151.501 108.293C151.501 106.968 151.303 105.019 150.473 103.363C150.318 103.055 150.186 102.762 150.058 102.482Z" fill="#262939"/>
</g>
<ellipse cx="104.612" cy="77.0138" rx="9.24362" ry="9.05104" fill="url(#paint27_radial_416_267)"/>
<ellipse cx="104.612" cy="77.0138" rx="9.24362" ry="9.05104" fill="url(#paint28_diamond_416_267)" fill-opacity="0.4"/>
<ellipse cx="104.612" cy="77.0138" rx="9.24362" ry="9.05104" fill="url(#paint29_diamond_416_267)" fill-opacity="0.4"/>
<ellipse cx="104.612" cy="77.0138" rx="9.24362" ry="9.05104" fill="url(#paint30_diamond_416_267)" fill-opacity="0.4"/>
<circle cx="65.9911" cy="81.7622" r="5.67081" fill="url(#paint31_radial_416_267)"/>
<circle cx="65.9911" cy="81.7622" r="5.67081" fill="url(#paint32_diamond_416_267)" fill-opacity="0.4"/>
<circle cx="65.9911" cy="81.7622" r="5.67081" fill="url(#paint33_diamond_416_267)" fill-opacity="0.4"/>
<circle cx="65.9911" cy="81.7622" r="5.67081" fill="url(#paint34_diamond_416_267)" fill-opacity="0.4"/>
<circle r="5.15528" transform="matrix(-1 0 0 1 142.805 81.3665)" fill="url(#paint35_radial_416_267)"/>
<circle r="5.15528" transform="matrix(-1 0 0 1 142.805 81.3665)" fill="url(#paint36_diamond_416_267)" fill-opacity="0.4"/>
<circle r="5.15528" transform="matrix(-1 0 0 1 142.805 81.3665)" fill="url(#paint37_diamond_416_267)" fill-opacity="0.4"/>
<circle r="5.15528" transform="matrix(-1 0 0 1 142.805 81.3665)" fill="url(#paint38_diamond_416_267)" fill-opacity="0.4"/>
<g filter="url(#filter2_di_416_267)">
<ellipse cx="104.997" cy="77.3992" rx="6.16241" ry="5.96984" fill="url(#paint39_diamond_416_267)"/>
</g>
<g filter="url(#filter3_di_416_267)">
<circle cx="66.507" cy="82.2778" r="4.12422" fill="url(#paint40_diamond_416_267)"/>
</g>
<g filter="url(#filter4_di_416_267)">
<circle r="3.6087" transform="matrix(-1 0 0 1 142.29 81.882)" fill="url(#paint41_diamond_416_267)"/>
</g>
<g filter="url(#filter5_di_416_267)">
<ellipse cx="80.8179" cy="115.919" rx="15.2135" ry="14.8283" fill="url(#paint42_diamond_416_267)"/>
</g>
<g filter="url(#filter6_di_416_267)">
<ellipse cx="130.634" cy="115.726" rx="14.4431" ry="13.0951" fill="url(#paint43_diamond_416_267)"/>
</g>
<g style="mix-blend-mode:screen">
<path d="M130.353 104.5C129.981 104.5 129.6 104.518 129.256 104.672C128.92 104.826 128.63 105.143 128.612 105.514C128.594 105.895 128.866 106.248 129.192 106.438C129.519 106.628 129.908 106.7 130.28 106.791C132.029 107.198 133.416 107.715 135.012 108.539C136.843 109.489 138.674 110.44 140.496 111.391C140.65 111.472 140.849 111.554 140.994 111.454C141.193 111.318 141.103 111.01 140.985 110.802C139.471 108.077 136.933 106.103 133.996 105.107C132.836 104.717 131.594 104.5 130.353 104.5Z" fill="url(#paint44_linear_416_267)"/>
</g>
<g style="mix-blend-mode:screen">
<path d="M81.7109 103.571C81.3393 103.571 80.9586 103.589 80.6142 103.743C80.2788 103.897 79.9887 104.214 79.9706 104.585C79.9525 104.965 80.2244 105.318 80.5507 105.509C80.877 105.699 81.2668 105.771 81.6384 105.862C83.3878 106.269 84.7747 106.785 86.37 107.609C88.201 108.56 90.032 109.511 91.8539 110.461C92.008 110.543 92.2074 110.624 92.3525 110.525C92.5519 110.389 92.4612 110.081 92.3434 109.873C90.8297 107.147 88.2916 105.173 85.3548 104.177C84.1946 103.788 82.9528 103.571 81.7109 103.571Z" fill="url(#paint45_linear_416_267)"/>
</g>
<g filter="url(#filter7_ii_416_267)">
<path d="M112.371 137.817C107.16 139.564 101.384 139.691 96.131 138.133C95.8015 144.363 98.3437 152.2 101.021 155.948C101.557 156.698 102.628 158.09 103.699 158.09C104.769 158.09 105.827 156.864 106.376 155.948C109.589 150.594 111.696 144.716 112.371 137.817Z" fill="#6E91AE"/>
</g>
</g>
<defs>
<filter id="filter0_f_416_267" x="16.124" y="177.52" width="169.128" height="35.4802" filterUnits="userSpaceOnUse" color-interpolation-filters="sRGB">
<feFlood flood-opacity="0" result="BackgroundImageFix"/>
<feBlend mode="normal" in="SourceGraphic" in2="BackgroundImageFix" result="shape"/>
<feGaussianBlur stdDeviation="5.5" result="effect1_foregroundBlur_416_267"/>
</filter>
<filter id="filter1_i_416_267" x="42.2773" y="94.7701" width="120.751" height="43.1368" filterUnits="userSpaceOnUse" color-interpolation-filters="sRGB">
<feFlood flood-opacity="0" result="BackgroundImageFix"/>
<feBlend mode="normal" in="SourceGraphic" in2="BackgroundImageFix" result="shape"/>
<feColorMatrix in="SourceAlpha" type="matrix" values="0 0 0 0 0 0 0 0 0 0 0 0 0 0 0 0 0 0 127 0" result="hardAlpha"/>
<feOffset dx="1"/>
<feGaussianBlur stdDeviation="1"/>
<feComposite in2="hardAlpha" operator="arithmetic" k2="-1" k3="1"/>
<feColorMatrix type="matrix" values="0 0 0 0 0.406701 0 0 0 0 0.610284 0 0 0 0 0.920833 0 0 0 1 0"/>
<feBlend mode="normal" in2="shape" result="effect1_innerShadow_416_267"/>
</filter>
<filter id="filter2_di_416_267" x="93.835" y="66.4293" width="22.3252" height="21.9397" filterUnits="userSpaceOnUse" color-interpolation-filters="sRGB">
<feFlood flood-opacity="0" result="BackgroundImageFix"/>
<feColorMatrix in="SourceAlpha" type="matrix" values="0 0 0 0 0 0 0 0 0 0 0 0 0 0 0 0 0 0 127 0" result="hardAlpha"/>
<feOffset/>
<feGaussianBlur stdDeviation="2.5"/>
<feComposite in2="hardAlpha" operator="out"/>
<feColorMatrix type="matrix" values="0 0 0 0 0.3 0 0 0 0 0.832 0 0 0 0 1 0 0 0 0.4 0"/>
<feBlend mode="normal" in2="BackgroundImageFix" result="effect1_dropShadow_416_267"/>
<feBlend mode="normal" in="SourceGraphic" in2="effect1_dropShadow_416_267" result="shape"/>
<feColorMatrix in="SourceAlpha" type="matrix" values="0 0 0 0 0 0 0 0 0 0 0 0 0 0 0 0 0 0 127 0" result="hardAlpha"/>
<feOffset/>
<feGaussianBlur stdDeviation="2"/>
<feComposite in2="hardAlpha" operator="arithmetic" k2="-1" k3="1"/>
<feColorMatrix type="matrix" values="0 0 0 0 0.309804 0 0 0 0 0.67451 0 0 0 0 0.886275 0 0 0 1 0"/>
<feBlend mode="normal" in2="shape" result="effect2_innerShadow_416_267"/>
</filter>
<filter id="filter3_di_416_267" x="57.3828" y="73.1536" width="18.248" height="18.2484" filterUnits="userSpaceOnUse" color-interpolation-filters="sRGB">
<feFlood flood-opacity="0" result="BackgroundImageFix"/>
<feColorMatrix in="SourceAlpha" type="matrix" values="0 0 0 0 0 0 0 0 0 0 0 0 0 0 0 0 0 0 127 0" result="hardAlpha"/>
<feOffset/>
<feGaussianBlur stdDeviation="2.5"/>
<feComposite in2="hardAlpha" operator="out"/>
<feColorMatrix type="matrix" values="0 0 0 0 0.3 0 0 0 0 0.832 0 0 0 0 1 0 0 0 0.4 0"/>
<feBlend mode="normal" in2="BackgroundImageFix" result="effect1_dropShadow_416_267"/>
<feBlend mode="normal" in="SourceGraphic" in2="effect1_dropShadow_416_267" result="shape"/>
<feColorMatrix in="SourceAlpha" type="matrix" values="0 0 0 0 0 0 0 0 0 0 0 0 0 0 0 0 0 0 127 0" result="hardAlpha"/>
<feOffset/>
<feGaussianBlur stdDeviation="1.5"/>
<feComposite in2="hardAlpha" operator="arithmetic" k2="-1" k3="1"/>
<feColorMatrix type="matrix" values="0 0 0 0 0.309804 0 0 0 0 0.67451 0 0 0 0 0.886275 0 0 0 1 0"/>
<feBlend mode="normal" in2="shape" result="effect2_innerShadow_416_267"/>
</filter>
<filter id="filter4_di_416_267" x="133.681" y="73.2733" width="17.2178" height="17.2174" filterUnits="userSpaceOnUse" color-interpolation-filters="sRGB">
<feFlood flood-opacity="0" result="BackgroundImageFix"/>
<feColorMatrix in="SourceAlpha" type="matrix" values="0 0 0 0 0 0 0 0 0 0 0 0 0 0 0 0 0 0 127 0" result="hardAlpha"/>
<feOffset/>
<feGaussianBlur stdDeviation="2.5"/>
<feComposite in2="hardAlpha" operator="out"/>
<feColorMatrix type="matrix" values="0 0 0 0 0.3 0 0 0 0 0.832 0 0 0 0 1 0 0 0 0.4 0"/>
<feBlend mode="normal" in2="BackgroundImageFix" result="effect1_dropShadow_416_267"/>
<feBlend mode="normal" in="SourceGraphic" in2="effect1_dropShadow_416_267" result="shape"/>
<feColorMatrix in="SourceAlpha" type="matrix" values="0 0 0 0 0 0 0 0 0 0 0 0 0 0 0 0 0 0 127 0" result="hardAlpha"/>
<feOffset/>
<feGaussianBlur stdDeviation="1.5"/>
<feComposite in2="hardAlpha" operator="arithmetic" k2="-1" k3="1"/>
<feColorMatrix type="matrix" values="0 0 0 0 0.309804 0 0 0 0 0.67451 0 0 0 0 0.886275 0 0 0 1 0"/>
<feBlend mode="normal" in2="shape" result="effect2_innerShadow_416_267"/>
</filter>
<filter id="filter5_di_416_267" x="60.6045" y="96.0903" width="40.4268" height="39.6566" filterUnits="userSpaceOnUse" color-interpolation-filters="sRGB">
<feFlood flood-opacity="0" result="BackgroundImageFix"/>
<feColorMatrix in="SourceAlpha" type="matrix" values="0 0 0 0 0 0 0 0 0 0 0 0 0 0 0 0 0 0 127 0" result="hardAlpha"/>
<feOffset/>
<feGaussianBlur stdDeviation="2.5"/>
<feComposite in2="hardAlpha" operator="out"/>
<feColorMatrix type="matrix" values="0 0 0 0 0.3 0 0 0 0 0.832 0 0 0 0 1 0 0 0 0.4 0"/>
<feBlend mode="normal" in2="BackgroundImageFix" result="effect1_dropShadow_416_267"/>
<feBlend mode="normal" in="SourceGraphic" in2="effect1_dropShadow_416_267" result="shape"/>
<feColorMatrix in="SourceAlpha" type="matrix" values="0 0 0 0 0 0 0 0 0 0 0 0 0 0 0 0 0 0 127 0" result="hardAlpha"/>
<feOffset/>
<feGaussianBlur stdDeviation="1"/>
<feComposite in2="hardAlpha" operator="arithmetic" k2="-1" k3="1"/>
<feColorMatrix type="matrix" values="0 0 0 0 0.309804 0 0 0 0 0.67451 0 0 0 0 0.886275 0 0 0 1 0"/>
<feBlend mode="normal" in2="shape" result="effect2_innerShadow_416_267"/>
</filter>
<filter id="filter6_di_416_267" x="111.19" y="97.6309" width="38.8867" height="36.1902" filterUnits="userSpaceOnUse" color-interpolation-filters="sRGB">
<feFlood flood-opacity="0" result="BackgroundImageFix"/>
<feColorMatrix in="SourceAlpha" type="matrix" values="0 0 0 0 0 0 0 0 0 0 0 0 0 0 0 0 0 0 127 0" result="hardAlpha"/>
<feOffset/>
<feGaussianBlur stdDeviation="2.5"/>
<feComposite in2="hardAlpha" operator="out"/>
<feColorMatrix type="matrix" values="0 0 0 0 0.3 0 0 0 0 0.832 0 0 0 0 1 0 0 0 0.4 0"/>
<feBlend mode="normal" in2="BackgroundImageFix" result="effect1_dropShadow_416_267"/>
<feBlend mode="normal" in="SourceGraphic" in2="effect1_dropShadow_416_267" result="shape"/>
<feColorMatrix in="SourceAlpha" type="matrix" values="0 0 0 0 0 0 0 0 0 0 0 0 0 0 0 0 0 0 127 0" result="hardAlpha"/>
<feOffset/>
<feGaussianBlur stdDeviation="1"/>
<feComposite in2="hardAlpha" operator="arithmetic" k2="-1" k3="1"/>
<feColorMatrix type="matrix" values="0 0 0 0 0.309804 0 0 0 0 0.67451 0 0 0 0 0.886275 0 0 0 1 0"/>
<feBlend mode="normal" in2="shape" result="effect2_innerShadow_416_267"/>
</filter>
<filter id="filter7_ii_416_267" x="96.1025" y="135.817" width="17.2676" height="24.2737" filterUnits="userSpaceOnUse" color-interpolation-filters="sRGB">
<feFlood flood-opacity="0" result="BackgroundImageFix"/>
<feBlend mode="normal" in="SourceGraphic" in2="BackgroundImageFix" result="shape"/>
<feColorMatrix in="SourceAlpha" type="matrix" values="0 0 0 0 0 0 0 0 0 0 0 0 0 0 0 0 0 0 127 0" result="hardAlpha"/>
<feOffset dx="1" dy="-3"/>
<feGaussianBlur stdDeviation="1"/>
<feComposite in2="hardAlpha" operator="arithmetic" k2="-1" k3="1"/>
<feColorMatrix type="matrix" values="0 0 0 0 0.12526 0 0 0 0 0.136707 0 0 0 0 0.154167 0 0 0 0.8 0"/>
<feBlend mode="normal" in2="shape" result="effect1_innerShadow_416_267"/>
<feColorMatrix in="SourceAlpha" type="matrix" values="0 0 0 0 0 0 0 0 0 0 0 0 0 0 0 0 0 0 127 0" result="hardAlpha"/>
<feOffset dy="2"/>
<feGaussianBlur stdDeviation="1"/>
<feComposite in2="hardAlpha" operator="arithmetic" k2="-1" k3="1"/>
<feColorMatrix type="matrix" values="0 0 0 0 0.183333 0 0 0 0 0.201667 0 0 0 0 0.229167 0 0 0 0.6 0"/>
<feBlend mode="normal" in2="effect1_innerShadow_416_267" result="effect2_innerShadow_416_267"/>
</filter>
<linearGradient id="paint0_linear_416_267" x1="11.4028" y1="1.64792" x2="21.7678" y2="16.8895" gradientUnits="userSpaceOnUse">
<stop stop-color="#BABB98"/>
<stop offset="0.1539" stop-color="#9C9D7F"/>
<stop offset="0.7399" stop-color="#2C2D24"/>
<stop offset="1"/>
</linearGradient>
<radialGradient id="paint1_radial_416_267" cx="0" cy="0" r="1" gradientUnits="userSpaceOnUse" gradientTransform="translate(59.4046 184.271) rotate(-147.01) scale(31.8457 39.336)">
<stop stop-color="#A5C5CF"/>
<stop offset="1" stop-color="#607791"/>
</radialGradient>
<linearGradient id="paint2_linear_416_267" x1="3.43849" y1="185.779" x2="40.7832" y2="185.988" gradientUnits="userSpaceOnUse">
<stop stop-color="white"/>
<stop offset="1" stop-color="white" stop-opacity="0"/>
</linearGradient>
<radialGradient id="paint3_radial_416_267" cx="0" cy="0" r="1" gradientUnits="userSpaceOnUse" gradientTransform="translate(145.998 185.068) rotate(-34.8135) scale(31.8097 39.2804)">
<stop stop-color="#A5C5CF"/>
<stop offset="1" stop-color="#607791"/>
</radialGradient>
<linearGradient id="paint4_linear_416_267" x1="196.278" y1="180.118" x2="164.648" y2="186.184" gradientUnits="userSpaceOnUse">
<stop stop-color="white"/>
<stop offset="1" stop-color="white" stop-opacity="0"/>
</linearGradient>
<radialGradient id="paint5_radial_416_267" cx="0" cy="0" r="1" gradientUnits="userSpaceOnUse" gradientTransform="translate(128.796 178.5) rotate(-29.7449) scale(24.1868 29.8672)">
<stop stop-color="#A5C5CF"/>
<stop offset="1" stop-color="#607791"/>
</radialGradient>
<radialGradient id="paint6_radial_416_267" cx="0" cy="0" r="1" gradientUnits="userSpaceOnUse" gradientTransform="translate(83.4062 179.868) rotate(-145.187) scale(31.8097 39.2804)">
<stop stop-color="#A5C5CF"/>
<stop offset="1" stop-color="#607791"/>
</radialGradient>
<radialGradient id="paint7_radial_416_267" cx="0" cy="0" r="1" gradientUnits="userSpaceOnUse" gradientTransform="translate(24.426 131.596) rotate(-17.8107) scale(26.9374 40.657)">
<stop stop-color="#A5C5CF"/>
<stop offset="1" stop-color="#607791"/>
</radialGradient>
<linearGradient id="paint8_linear_416_267" x1="33.1687" y1="118.845" x2="26.6609" y2="153.967" gradientUnits="userSpaceOnUse">
<stop stop-color="#405469" stop-opacity="0"/>
<stop offset="1" stop-color="#405469"/>
</linearGradient>
<radialGradient id="paint9_radial_416_267" cx="0" cy="0" r="1" gradientUnits="userSpaceOnUse" gradientTransform="translate(24.1533 150.099) rotate(-33.5148) scale(26.929 40.6567)">
<stop stop-color="#A5C5CF"/>
<stop offset="1" stop-color="#607791"/>
</radialGradient>
<linearGradient id="paint10_linear_416_267" x1="29.1145" y1="135.46" x2="32.3519" y2="171.029" gradientUnits="userSpaceOnUse">
<stop stop-color="#405469" stop-opacity="0"/>
<stop offset="1" stop-color="#405469"/>
</linearGradient>
<radialGradient id="paint11_radial_416_267" cx="0" cy="0" r="1" gradientUnits="userSpaceOnUse" gradientTransform="translate(179.906 133.738) rotate(-162.189) scale(26.9374 40.657)">
<stop stop-color="#A5C5CF"/>
<stop offset="1" stop-color="#607791"/>
</radialGradient>
<linearGradient id="paint12_linear_416_267" x1="173.847" y1="119" x2="169.917" y2="145.949" gradientUnits="userSpaceOnUse">
<stop stop-color="#405469" stop-opacity="0"/>
<stop offset="1" stop-color="#405469"/>
</linearGradient>
<radialGradient id="paint13_radial_416_267" cx="0" cy="0" r="1" gradientUnits="userSpaceOnUse" gradientTransform="translate(179.672 157.35) rotate(-137.735) scale(26.929 40.6567)">
<stop stop-color="#A5C5CF"/>
<stop offset="1" stop-color="#607791"/>
</radialGradient>
<linearGradient id="paint14_linear_416_267" x1="176.996" y1="142.127" x2="165.21" y2="162.898" gradientUnits="userSpaceOnUse">
<stop stop-color="#405469" stop-opacity="0"/>
<stop offset="1" stop-color="#405469"/>
</linearGradient>
<radialGradient id="paint15_radial_416_267" cx="0" cy="0" r="1" gradientUnits="userSpaceOnUse" gradientTransform="translate(111.73 77.7677) rotate(120.094) scale(108.929 80.4586)">
<stop stop-color="#50778E"/>
<stop offset="0.583333" stop-color="#3D6F85"/>
<stop offset="1" stop-color="#343E52"/>
</radialGradient>
<linearGradient id="paint16_linear_416_267" x1="37.5227" y1="153.856" x2="125.337" y2="133.058" gradientUnits="userSpaceOnUse">
<stop stop-color="#273132"/>
<stop offset="1" stop-color="#30578F" stop-opacity="0"/>
</linearGradient>
<linearGradient id="paint17_linear_416_267" x1="168.474" y1="116.882" x2="105.295" y2="136.5" gradientUnits="userSpaceOnUse">
<stop stop-color="#B7D5E6"/>
<stop offset="1" stop-color="#72EEFF" stop-opacity="0"/>
</linearGradient>
<linearGradient id="paint18_linear_416_267" x1="115.708" y1="37.7941" x2="110.79" y2="57.3857" gradientUnits="userSpaceOnUse">
<stop stop-color="#BABB98"/>
<stop offset="0.1539" stop-color="#9C9D7F"/>
<stop offset="0.7399" stop-color="#2C2D24"/>
<stop offset="1"/>
</linearGradient>
<radialGradient id="paint19_radial_416_267" cx="0" cy="0" r="1" gradientUnits="userSpaceOnUse" gradientTransform="translate(81.22 116.5) rotate(88.698) scale(22.0057 23.6155)">
<stop offset="0.433484" stop-color="#69C7FA"/>
<stop offset="0.684954" stop-color="#195EA1"/>
<stop offset="1" stop-color="#304758"/>
</radialGradient>
<radialGradient id="paint20_diamond_416_267" cx="0" cy="0" r="1" gradientUnits="userSpaceOnUse" gradientTransform="translate(82.3498 113.822) rotate(71.6241) scale(33.002 39.0621)">
<stop offset="0.404046" stop-color="#69C7FA"/>
<stop offset="0.684954" stop-color="#195EA1" stop-opacity="0"/>
<stop offset="1" stop-color="#003B6B" stop-opacity="0"/>
</radialGradient>
<radialGradient id="paint21_diamond_416_267" cx="0" cy="0" r="1" gradientUnits="userSpaceOnUse" gradientTransform="translate(81.0493 120.734) rotate(39.3492) scale(22.1429 26.1183)">
<stop offset="0.404046" stop-color="#69C7FA"/>
<stop offset="0.684954" stop-color="#195EA1" stop-opacity="0"/>
<stop offset="1" stop-color="#003B6B" stop-opacity="0"/>
</radialGradient>
<radialGradient id="paint22_diamond_416_267" cx="0" cy="0" r="1" gradientUnits="userSpaceOnUse" gradientTransform="translate(82.3498 113.822) rotate(-53.6135) scale(29.2807 34.5961)">
<stop offset="0.404046" stop-color="#69C7FA"/>
<stop offset="0.684954" stop-color="#195EA1" stop-opacity="0"/>
<stop offset="1" stop-color="#003B6B" stop-opacity="0"/>
</radialGradient>
<radialGradient id="paint23_radial_416_267" cx="0" cy="0" r="1" gradientUnits="userSpaceOnUse" gradientTransform="translate(129.152 116.282) rotate(89.1539) scale(21.6293 23.2115)">
<stop offset="0.433484" stop-color="#69C7FA"/>
<stop offset="0.684954" stop-color="#195EA1"/>
<stop offset="1" stop-color="#304758"/>
</radialGradient>
<radialGradient id="paint24_diamond_416_267" cx="0" cy="0" r="1" gradientUnits="userSpaceOnUse" gradientTransform="translate(127.944 113.694) rotate(106.228) scale(32.4375 38.3939)">
<stop offset="0.404046" stop-color="#69C7FA"/>
<stop offset="0.684954" stop-color="#195EA1" stop-opacity="0"/>
<stop offset="1" stop-color="#003B6B" stop-opacity="0"/>
</radialGradient>
<radialGradient id="paint25_diamond_416_267" cx="0" cy="0" r="1" gradientUnits="userSpaceOnUse" gradientTransform="translate(129.476 120.435) rotate(138.503) scale(21.7642 25.6715)">
<stop offset="0.404046" stop-color="#69C7FA"/>
<stop offset="0.684954" stop-color="#195EA1" stop-opacity="0"/>
<stop offset="1" stop-color="#003B6B" stop-opacity="0"/>
</radialGradient>
<radialGradient id="paint26_diamond_416_267" cx="0" cy="0" r="1" gradientUnits="userSpaceOnUse" gradientTransform="translate(127.944 113.694) rotate(-128.535) scale(28.7798 34.0044)">
<stop offset="0.404046" stop-color="#69C7FA"/>
<stop offset="0.684954" stop-color="#195EA1" stop-opacity="0"/>
<stop offset="1" stop-color="#003B6B" stop-opacity="0"/>
</radialGradient>
<radialGradient id="paint27_radial_416_267" cx="0" cy="0" r="1" gradientUnits="userSpaceOnUse" gradientTransform="translate(104.847 76.9141) rotate(84.6005) scale(9.19158 10.0975)">
<stop offset="0.53125" stop-color="#69C7FA"/>
<stop offset="0.6875" stop-color="#327E9E"/>
<stop offset="1" stop-color="#2C3E4E"/>
</radialGradient>
<radialGradient id="paint28_diamond_416_267" cx="0" cy="0" r="1" gradientUnits="userSpaceOnUse" gradientTransform="translate(104.847 76.914) rotate(76.2005) scale(14.6735 14.4882)">
<stop offset="0.404046" stop-color="#69C7FA"/>
<stop offset="0.684954" stop-color="#195EA1" stop-opacity="0"/>
<stop offset="1" stop-color="#003B6B" stop-opacity="0"/>
</radialGradient>
<radialGradient id="paint29_diamond_416_267" cx="0" cy="0" r="1" gradientUnits="userSpaceOnUse" gradientTransform="translate(104.347 77.414) rotate(43.3425) scale(11.224 10.1232)">
<stop offset="0.404046" stop-color="#69C7FA"/>
<stop offset="0.684954" stop-color="#195EA1" stop-opacity="0"/>
<stop offset="1" stop-color="#003B6B" stop-opacity="0"/>
</radialGradient>
<radialGradient id="paint30_diamond_416_267" cx="0" cy="0" r="1" gradientUnits="userSpaceOnUse" gradientTransform="translate(104.847 76.914) rotate(-53.8068) scale(12.7009 14.6752)">
<stop offset="0.404046" stop-color="#69C7FA"/>
<stop offset="0.684954" stop-color="#195EA1" stop-opacity="0"/>
<stop offset="1" stop-color="#003B6B" stop-opacity="0"/>
</radialGradient>
<radialGradient id="paint31_radial_416_267" cx="0" cy="0" r="1" gradientUnits="userSpaceOnUse" gradientTransform="translate(66.0516 81.9623) rotate(108.435) scale(6.65145 5.82002)">
<stop offset="0.369792" stop-color="#69C7FA"/>
<stop offset="0.651042" stop-color="#327E9E"/>
<stop offset="0.911458" stop-color="#314352"/>
</radialGradient>
<radialGradient id="paint32_diamond_416_267" cx="0" cy="0" r="1" gradientUnits="userSpaceOnUse" gradientTransform="translate(66.0516 82.5933) rotate(74.4803) scale(8.33856 8.0807)">
<stop offset="0.404046" stop-color="#69C7FA"/>
<stop offset="0.684954" stop-color="#195EA1" stop-opacity="0"/>
<stop offset="1" stop-color="#003B6B" stop-opacity="0"/>
</radialGradient>
<radialGradient id="paint33_diamond_416_267" cx="0" cy="0" r="1" gradientUnits="userSpaceOnUse" gradientTransform="translate(65.2103 83.2244) rotate(32.7234) scale(6.6877 6.03782)">
<stop offset="0.404046" stop-color="#69C7FA"/>
<stop offset="0.684954" stop-color="#195EA1" stop-opacity="0"/>
<stop offset="1" stop-color="#003B6B" stop-opacity="0"/>
</radialGradient>
<radialGradient id="paint34_diamond_416_267" cx="0" cy="0" r="1" gradientUnits="userSpaceOnUse" gradientTransform="translate(66.0516 80.9106) rotate(-4.39871) scale(8.22738 5.7814)">
<stop offset="0.404046" stop-color="#69C7FA"/>
<stop offset="0.684954" stop-color="#195EA1" stop-opacity="0"/>
<stop offset="1" stop-color="#003B6B" stop-opacity="0"/>
</radialGradient>
<radialGradient id="paint35_radial_416_267" cx="0" cy="0" r="1" gradientUnits="userSpaceOnUse" gradientTransform="translate(5.2103 5.33714) rotate(108.435) scale(6.04677 5.29092)">
<stop offset="0.369792" stop-color="#69C7FA"/>
<stop offset="0.651042" stop-color="#327E9E"/>
<stop offset="0.911458" stop-color="#314352"/>
</radialGradient>
<radialGradient id="paint36_diamond_416_267" cx="0" cy="0" r="1" gradientUnits="userSpaceOnUse" gradientTransform="translate(5.2103 5.91083) rotate(74.4803) scale(7.58051 7.34609)">
<stop offset="0.404046" stop-color="#69C7FA"/>
<stop offset="0.684954" stop-color="#195EA1" stop-opacity="0"/>
<stop offset="1" stop-color="#003B6B" stop-opacity="0"/>
</radialGradient>
<radialGradient id="paint37_diamond_416_267" cx="0" cy="0" r="1" gradientUnits="userSpaceOnUse" gradientTransform="translate(4.44544 6.48448) rotate(32.7234) scale(6.07973 5.48893)">
<stop offset="0.404046" stop-color="#69C7FA"/>
<stop offset="0.684954" stop-color="#195EA1" stop-opacity="0"/>
<stop offset="1" stop-color="#003B6B" stop-opacity="0"/>
</radialGradient>
<radialGradient id="paint38_diamond_416_267" cx="0" cy="0" r="1" gradientUnits="userSpaceOnUse" gradientTransform="translate(5.2103 4.38111) rotate(-4.39871) scale(7.47944 5.25582)">
<stop offset="0.404046" stop-color="#69C7FA"/>
<stop offset="0.684954" stop-color="#195EA1" stop-opacity="0"/>
<stop offset="1" stop-color="#003B6B" stop-opacity="0"/>
</radialGradient>
<radialGradient id="paint39_diamond_416_267" cx="0" cy="0" r="1" gradientUnits="userSpaceOnUse" gradientTransform="translate(103.017 81.2369) rotate(-35.2575) scale(9.97247 7.04351)">
<stop stop-color="#2B66FF"/>
<stop offset="0.526042" stop-color="#3748A1"/>
<stop offset="1" stop-color="#2E3172"/>
</radialGradient>
<radialGradient id="paint40_diamond_416_267" cx="0" cy="0" r="1" gradientUnits="userSpaceOnUse" gradientTransform="translate(65.1814 84.9291) rotate(-36.1193) scale(6.74663 4.81367)">
<stop stop-color="#2B66FF"/>
<stop offset="0.526042" stop-color="#3748A1"/>
<stop offset="1" stop-color="#2E3172"/>
</radialGradient>
<radialGradient id="paint41_diamond_416_267" cx="0" cy="0" r="1" gradientUnits="userSpaceOnUse" gradientTransform="translate(2.44876 5.92857) rotate(-36.1193) scale(5.9033 4.21196)">
<stop stop-color="#2B66FF"/>
<stop offset="0.526042" stop-color="#3748A1"/>
<stop offset="1" stop-color="#2E3172"/>
</radialGradient>
<radialGradient id="paint42_diamond_416_267" cx="0" cy="0" r="1" gradientUnits="userSpaceOnUse" gradientTransform="translate(75.9279 125.451) rotate(-35.4225) scale(24.6699 17.4595)">
<stop stop-color="#2B66FF"/>
<stop offset="0.526042" stop-color="#3748A1"/>
<stop offset="1" stop-color="#2E3172"/>
</radialGradient>
<radialGradient id="paint43_diamond_416_267" cx="0" cy="0" r="1" gradientUnits="userSpaceOnUse" gradientTransform="translate(125.991 124.144) rotate(-33.4895) scale(22.8848 15.7799)">
<stop stop-color="#2B66FF"/>
<stop offset="0.526042" stop-color="#3748A1"/>
<stop offset="1" stop-color="#2E3172"/>
</radialGradient>
<linearGradient id="paint44_linear_416_267" x1="137.723" y1="103.974" x2="133.748" y2="110.035" gradientUnits="userSpaceOnUse">
<stop stop-color="#BABB98"/>
<stop offset="0.1539" stop-color="#9C9D7F"/>
<stop offset="0.7399" stop-color="#2C2D24"/>
<stop offset="1"/>
</linearGradient>
<linearGradient id="paint45_linear_416_267" x1="89.0815" y1="103.045" x2="85.1062" y2="109.106" gradientUnits="userSpaceOnUse">
<stop stop-color="#BABB98"/>
<stop offset="0.1539" stop-color="#9C9D7F"/>
<stop offset="0.7399" stop-color="#2C2D24"/>
<stop offset="1"/>
</linearGradient>
<clipPath id="clip0_416_267">
<rect width="210" height="210" fill="white"/>
</clipPath>
</defs>
</svg>
