<svg width="210" height="210" viewBox="0 0 210 210" fill="none" xmlns="http://www.w3.org/2000/svg">
<path fill-rule="evenodd" clip-rule="evenodd" d="M27.963 0.000954769C35.9131 0.0507866 43.9609 2.13235 49.1061 8.23185C54.4324 14.5459 56.0782 23.1635 54.3287 31.2567C52.556 39.4575 47.4907 46.6661 40.0003 50.3557C32.4526 54.0736 23.6243 53.7584 16.0398 50.1171C8.41892 46.4584 2.54226 39.7556 0.664724 31.4709C-1.21244 23.1877 0.935194 14.3649 6.48697 7.96471C11.7656 1.87943 19.9365 -0.0493554 27.963 0.000954769Z" fill="#1975FF"/>
<g style="mix-blend-mode:screen">
<path d="M29.6818 3C30.6035 3 31.5476 3.04657 32.4018 3.44239C33.2336 3.83821 33.9529 4.65314 33.9979 5.60777C34.0428 6.58568 33.3684 7.49375 32.5592 7.9827C31.7499 8.47166 30.7833 8.65793 29.8616 8.89076C25.5231 9.93853 22.0837 11.2657 18.1273 13.3845C13.5864 15.8293 9.04557 18.2741 4.52718 20.7189C4.14502 20.9284 3.65047 21.138 3.2908 20.8818C2.79625 20.5326 3.02105 19.7409 3.31328 19.2054C7.06737 12.197 13.3616 7.1212 20.645 4.56C23.5224 3.55881 26.6021 3 29.6818 3Z" fill="url(#paint0_linear_416_579)"/>
</g>
<path d="M27.7221 33V22.11L25.2831 23.595V21.498L27.7221 20.04H29.6391V33H27.7221Z" fill="white"/>
<path fill-rule="evenodd" clip-rule="evenodd" d="M32.5798 119.164C26.5241 122.279 19.3395 122.513 12.6889 121.732C11.8203 121.627 11.1849 120.824 11.2702 119.941C11.3543 119.052 12.128 118.415 12.995 118.515C19.0527 119.228 25.6086 119.103 31.1242 116.267C31.8979 115.869 32.8524 116.197 33.2532 116.994C33.6544 117.792 33.353 118.766 32.5798 119.164Z" fill="#FFA319" stroke="white"/>
<path fill-rule="evenodd" clip-rule="evenodd" d="M32.0398 111.922C23.0534 107.942 13.9101 102.057 6.73378 95.4629C6.10759 94.8868 6.08889 93.9152 6.69306 93.2966C7.29723 92.6779 8.29517 92.6396 8.92135 93.2158C15.8604 99.5907 24.7033 105.283 33.3916 109.127C34.1775 109.477 34.5123 110.385 34.1389 111.155C33.7655 111.925 32.8257 112.271 32.0398 111.922Z" fill="#FFA319" stroke="white"/>
<path fill-rule="evenodd" clip-rule="evenodd" d="M37.7176 100.964C35.4945 97.3207 34.3531 93.4958 32.9674 89.5251C32.6969 88.7496 33.1056 87.9042 33.8785 87.6335C34.6518 87.3627 35.499 87.7739 35.77 88.5493C37.0839 92.3144 38.1401 95.9588 40.2509 99.4197C40.678 100.12 40.457 101.035 39.7571 101.459C39.0591 101.888 38.1442 101.664 37.7176 100.964Z" fill="#FFA319" stroke="white"/>
<path fill-rule="evenodd" clip-rule="evenodd" d="M187.697 101.702C188.352 101.461 189.041 101.141 189.573 100.677C190.204 100.127 190.461 99.4178 190.633 98.6714C190.855 97.7125 190.943 96.6911 191.211 95.7307C191.311 95.374 191.502 95.2392 191.584 95.1794C191.791 95.0282 192.001 94.9878 192.198 95.003C192.432 95.0205 192.753 95.1118 192.964 95.5162C192.994 95.5741 193.034 95.6623 193.06 95.7831C193.079 95.8717 193.092 96.1487 193.112 96.2629C193.163 96.5442 193.205 96.8255 193.245 97.1084C193.378 98.0498 193.454 98.8494 193.874 99.7142C194.444 100.888 195.014 101.607 195.788 101.925C196.536 102.233 197.431 102.175 198.574 101.933C198.683 101.906 198.791 101.883 198.897 101.864C199.401 101.773 199.883 102.115 199.982 102.633C200.081 103.151 199.761 103.655 199.261 103.769C199.157 103.793 199.054 103.815 198.953 103.836C197.408 104.231 195.62 105.64 194.58 106.873C194.26 107.254 193.791 108.317 193.313 108.995C192.959 109.496 192.563 109.826 192.23 109.942C192.006 110.021 191.818 110.009 191.663 109.969C191.437 109.911 191.249 109.785 191.106 109.584C191.027 109.474 190.955 109.327 190.92 109.139C190.904 109.049 190.902 108.819 190.902 108.714C190.805 108.368 190.685 108.03 190.598 107.681C190.391 106.848 189.984 106.32 189.501 105.623C189.049 104.971 188.563 104.561 187.851 104.234C187.759 104.21 187.011 104.021 186.748 103.913C186.362 103.754 186.178 103.488 186.112 103.345C185.999 103.101 185.987 102.889 186.009 102.712C186.043 102.45 186.157 102.226 186.358 102.046C186.483 101.933 186.67 101.824 186.92 101.771C187.113 101.729 187.625 101.705 187.697 101.702ZM192.081 100.344C192.115 100.423 192.152 100.503 192.191 100.584C193.025 102.304 193.958 103.264 195.092 103.73L195.13 103.745C194.371 104.326 193.685 104.976 193.16 105.598C192.944 105.855 192.658 106.388 192.349 106.934C192.068 105.992 191.609 105.326 191.031 104.492C190.59 103.856 190.128 103.378 189.56 102.988C190.001 102.754 190.421 102.481 190.788 102.161C191.397 101.629 191.8 101.013 192.081 100.344Z" fill="#FFA319"/>
<g filter="url(#filter0_f_416_579)">
<path d="M116.06 186.968C86.0973 186.968 63.4155 186.401 63.4155 189.803C63.4155 193.204 69.4435 193.582 69.4435 195.282C69.4435 195.282 48.9482 191.125 45.7333 195.282C42.5184 199.439 79.49 199.817 79.49 199.817H116.06C121.284 199.817 190.004 201.329 190.004 195.66C190.004 189.991 165.088 193.959 165.088 193.959C167.679 193.474 167.7 188.847 167.7 188.291C167.7 185.995 146.023 186.968 116.06 186.968Z" fill="#AFB8C9"/>
</g>
<path d="M183.877 173.844C180.044 166.812 176.069 161.486 174.082 159.355C171.697 156.798 167.489 155.134 165.991 156.798C164.628 157.821 164.287 161.059 164.287 162.551C167.126 166.244 173.401 174.782 175.785 179.384C178.767 185.137 179.003 190.89 180.044 193.234C181.085 195.578 183.877 196.004 186.006 195.791C188.135 195.578 189.626 193.447 189.626 190.038C189.626 187.268 188.536 182.392 183.877 173.844Z" fill="url(#paint1_radial_416_579)"/>
<path d="M183.877 173.844C180.044 166.812 176.069 161.486 174.082 159.355C171.697 156.798 167.489 155.134 165.991 156.798C164.628 157.821 164.287 161.059 164.287 162.551C167.126 166.244 173.401 174.782 175.785 179.384C178.767 185.137 179.003 190.89 180.044 193.234C181.085 195.578 183.877 196.004 186.006 195.791C188.135 195.578 189.626 193.447 189.626 190.038C189.626 187.268 188.536 182.392 183.877 173.844Z" fill="url(#paint2_linear_416_579)"/>
<path d="M48.0251 173.825C52.0779 166.931 56.2177 161.743 58.2706 159.681C60.734 157.206 64.9897 155.681 66.4323 157.389C67.7603 158.454 67.9966 161.696 67.9487 163.185C64.9953 166.779 58.4561 175.097 55.9271 179.613C52.7658 185.258 52.345 190.991 51.2303 193.297C50.1156 195.602 47.3142 195.938 45.1948 195.657C43.0755 195.376 41.6554 193.202 41.7648 189.8C41.8537 187.036 43.0986 182.205 48.0251 173.825Z" fill="url(#paint3_radial_416_579)"/>
<path d="M48.0251 173.825C52.0779 166.931 56.2177 161.743 58.2706 159.681C60.734 157.206 64.9897 155.681 66.4323 157.389C67.7603 158.454 67.9966 161.696 67.9487 163.185C64.9953 166.779 58.4561 175.097 55.9271 179.613C52.7658 185.258 52.345 190.991 51.2303 193.297C50.1156 195.602 47.3142 195.938 45.1948 195.657C43.0755 195.376 41.6554 193.202 41.7648 189.8C41.8537 187.036 43.0986 182.205 48.0251 173.825Z" fill="url(#paint4_linear_416_579)"/>
<path d="M70.1501 168.719C74.2029 161.825 78.3427 156.638 80.3956 154.575C82.859 152.1 87.1147 150.575 88.5573 152.283C89.8853 153.348 90.1216 156.591 90.0737 158.079C87.1203 161.673 80.5811 169.991 78.0521 174.507C74.8908 180.152 74.47 185.885 73.3553 188.191C72.2406 190.496 69.4392 190.832 67.3198 190.551C65.2005 190.27 63.7804 188.096 63.8898 184.694C63.9787 181.93 65.2236 177.099 70.1501 168.719Z" fill="url(#paint5_radial_416_579)"/>
<path d="M159.991 168.719C155.939 161.825 151.799 156.638 149.746 154.575C147.283 152.1 143.027 150.575 141.584 152.283C140.256 153.348 140.02 156.591 140.068 158.079C143.021 161.673 149.56 169.991 152.09 174.507C155.251 180.152 155.672 185.885 156.786 188.191C157.901 190.496 160.702 190.832 162.822 190.551C164.941 190.27 166.361 188.096 166.252 184.694C166.163 181.93 164.918 177.099 159.991 168.719Z" fill="url(#paint6_radial_416_579)"/>
<path d="M65.3024 167.765C69.7251 171.847 81.675 175.632 86.5656 176.908C93.3698 178.683 114.846 178.821 122.713 178.821C132.494 178.821 156.241 173.729 164.176 168.828C171.406 164.363 175.233 153.093 175.233 145.652L175.233 116.947C175.375 104.189 174.893 77.9088 171.831 69.744C168.004 59.5379 157.869 49.7267 149.93 45.0792C141.212 39.9762 120.799 34.448 103.789 38.2753C86.7782 42.1026 71.894 54.6475 65.0898 68.6808C58.2856 82.7141 56.1592 116.096 56.1592 125.452C56.1592 134.808 55.2314 146.715 56.1592 151.818C57.3577 158.409 59.774 162.662 65.3024 167.765Z" fill="url(#paint7_radial_416_579)"/>
<path d="M65.3024 167.765C69.7251 171.847 81.675 175.632 86.5656 176.908C93.3698 178.683 114.846 178.821 122.713 178.821C132.494 178.821 156.241 173.729 164.176 168.828C171.406 164.363 175.233 153.093 175.233 145.652L175.233 116.947C175.375 104.189 174.893 77.9088 171.831 69.744C168.004 59.5379 157.869 49.7267 149.93 45.0792C141.212 39.9762 120.799 34.448 103.789 38.2753C86.7782 42.1026 71.894 54.6475 65.0898 68.6808C58.2856 82.7141 56.1592 116.096 56.1592 125.452C56.1592 134.808 55.2314 146.715 56.1592 151.818C57.3577 158.409 59.774 162.662 65.3024 167.765Z" fill="url(#paint8_linear_416_579)" fill-opacity="0.2"/>
<path d="M65.3024 167.765C69.7251 171.847 81.675 175.632 86.5656 176.908C93.3698 178.683 114.846 178.821 122.713 178.821C132.494 178.821 156.241 173.729 164.176 168.828C171.406 164.363 175.233 153.093 175.233 145.652L175.233 116.947C175.375 104.189 174.893 77.9088 171.831 69.744C168.004 59.5379 157.869 49.7267 149.93 45.0792C141.212 39.9762 120.799 34.448 103.789 38.2753C86.7782 42.1026 71.894 54.6475 65.0898 68.6808C58.2856 82.7141 56.1592 116.096 56.1592 125.452C56.1592 134.808 55.2314 146.715 56.1592 151.818C57.3577 158.409 59.774 162.662 65.3024 167.765Z" fill="url(#paint9_linear_416_579)" fill-opacity="0.4"/>
<g style="mix-blend-mode:screen">
<path d="M112.651 41.9097C114.14 41.9097 115.665 41.9859 117.045 42.6337C118.389 43.2814 119.551 44.6151 119.624 46.1774C119.696 47.7778 118.607 49.2639 117.3 50.0641C115.992 50.8643 114.431 51.1691 112.942 51.5502C105.933 53.2649 100.377 55.4368 93.9859 58.9044C86.6504 62.9054 79.315 66.9064 72.0159 70.9074C71.3985 71.2503 70.5996 71.5933 70.0186 71.1741C69.2197 70.6025 69.5828 69.307 70.0549 68.4306C76.1194 56.961 86.2873 48.6542 98.0531 44.4627C102.701 42.8242 107.676 41.9097 112.651 41.9097Z" fill="url(#paint10_linear_416_579)"/>
</g>
<path d="M85.7982 96.4208C88.6807 96.7593 92.2274 99.2421 92.7926 100.441C93.4709 101.254 94.3469 107.833 94.7002 111.021C94.4176 114.336 93.4709 122.151 91.9448 126.891C90.4188 131.631 85.5156 133.803 83.2548 134.297C78.6624 134.791 68.5876 135.482 65.0268 134.297C61.466 133.112 57.6085 128.302 56.1248 126.045V119.062L58.4563 97.6903C61.141 97.1261 67.655 95.9976 72.2332 95.9976C77.9559 95.9976 82.195 95.9976 85.7982 96.4208Z" fill="url(#paint11_radial_416_579)"/>
<path d="M85.7982 96.4208C88.6807 96.7593 92.2274 99.2421 92.7926 100.441C93.4709 101.254 94.3469 107.833 94.7002 111.021C94.4176 114.336 93.4709 122.151 91.9448 126.891C90.4188 131.631 85.5156 133.803 83.2548 134.297C78.6624 134.791 68.5876 135.482 65.0268 134.297C61.466 133.112 57.6085 128.302 56.1248 126.045V119.062L58.4563 97.6903C61.141 97.1261 67.655 95.9976 72.2332 95.9976C77.9559 95.9976 82.195 95.9976 85.7982 96.4208Z" fill="url(#paint12_diamond_416_579)" fill-opacity="0.4"/>
<path d="M85.7982 96.4208C88.6807 96.7593 92.2274 99.2421 92.7926 100.441C93.4709 101.254 94.3469 107.833 94.7002 111.021C94.4176 114.336 93.4709 122.151 91.9448 126.891C90.4188 131.631 85.5156 133.803 83.2548 134.297C78.6624 134.791 68.5876 135.482 65.0268 134.297C61.466 133.112 57.6085 128.302 56.1248 126.045V119.062L58.4563 97.6903C61.141 97.1261 67.655 95.9976 72.2332 95.9976C77.9559 95.9976 82.195 95.9976 85.7982 96.4208Z" fill="url(#paint13_diamond_416_579)" fill-opacity="0.4"/>
<path d="M85.7982 96.4208C88.6807 96.7593 92.2274 99.2421 92.7926 100.441C93.4709 101.254 94.3469 107.833 94.7002 111.021C94.4176 114.336 93.4709 122.151 91.9448 126.891C90.4188 131.631 85.5156 133.803 83.2548 134.297C78.6624 134.791 68.5876 135.482 65.0268 134.297C61.466 133.112 57.6085 128.302 56.1248 126.045V119.062L58.4563 97.6903C61.141 97.1261 67.655 95.9976 72.2332 95.9976C77.9559 95.9976 82.195 95.9976 85.7982 96.4208Z" fill="url(#paint14_diamond_416_579)" fill-opacity="0.4"/>
<path d="M136.411 97.7207C139.987 98.2297 142.158 100.619 142.796 101.75C143.576 102.599 145.18 104.974 145.35 107.689C145.563 111.082 144.499 120.626 142.796 125.929C141.093 131.231 138.327 133.776 132.793 135.261C127.259 136.745 121.726 135.897 116.618 135.261C111.51 134.624 107.04 131.443 104.487 127.201C101.933 122.959 101.507 118.588 101.507 111.719C101.507 106.416 102.358 101.962 104.487 99.4174C106.615 96.8723 113.851 95.8119 120.449 96.0239C127.047 96.236 131.942 97.0844 136.411 97.7207Z" fill="url(#paint15_radial_416_579)"/>
<path d="M136.411 97.7207C139.987 98.2297 142.158 100.619 142.796 101.75C143.576 102.599 145.18 104.974 145.35 107.689C145.563 111.082 144.499 120.626 142.796 125.929C141.093 131.231 138.327 133.776 132.793 135.261C127.259 136.745 121.726 135.897 116.618 135.261C111.51 134.624 107.04 131.443 104.487 127.201C101.933 122.959 101.507 118.588 101.507 111.719C101.507 106.416 102.358 101.962 104.487 99.4174C106.615 96.8723 113.851 95.8119 120.449 96.0239C127.047 96.236 131.942 97.0844 136.411 97.7207Z" fill="url(#paint16_diamond_416_579)" fill-opacity="0.4"/>
<path d="M136.411 97.7207C139.987 98.2297 142.158 100.619 142.796 101.75C143.576 102.599 145.18 104.974 145.35 107.689C145.563 111.082 144.499 120.626 142.796 125.929C141.093 131.231 138.327 133.776 132.793 135.261C127.259 136.745 121.726 135.897 116.618 135.261C111.51 134.624 107.04 131.443 104.487 127.201C101.933 122.959 101.507 118.588 101.507 111.719C101.507 106.416 102.358 101.962 104.487 99.4174C106.615 96.8723 113.851 95.8119 120.449 96.0239C127.047 96.236 131.942 97.0844 136.411 97.7207Z" fill="url(#paint17_diamond_416_579)" fill-opacity="0.4"/>
<path d="M136.411 97.7207C139.987 98.2297 142.158 100.619 142.796 101.75C143.576 102.599 145.18 104.974 145.35 107.689C145.563 111.082 144.499 120.626 142.796 125.929C141.093 131.231 138.327 133.776 132.793 135.261C127.259 136.745 121.726 135.897 116.618 135.261C111.51 134.624 107.04 131.443 104.487 127.201C101.933 122.959 101.507 118.588 101.507 111.719C101.507 106.416 102.358 101.962 104.487 99.4174C106.615 96.8723 113.851 95.8119 120.449 96.0239C127.047 96.236 131.942 97.0844 136.411 97.7207Z" fill="url(#paint18_diamond_416_579)" fill-opacity="0.4"/>
<g filter="url(#filter1_i_416_579)">
<path fill-rule="evenodd" clip-rule="evenodd" d="M143.784 100.156H175.633V102.282L156.736 102.708L154.188 103.558C151.71 105.259 146.714 109.043 146.544 110.574C146.331 112.487 144.633 123.543 142.934 128.22C141.236 132.897 138.051 135.236 133.592 136.086C130.449 136.685 125.091 136.44 120.789 136.243C118.987 136.16 117.371 136.086 116.181 136.086C112.147 136.086 108.962 134.385 106.626 132.472C104.29 130.558 100.893 124.393 100.044 121.204C99.1945 118.015 98.9822 109.298 99.1945 105.897C99.3644 103.175 99.6192 102.07 99.8315 101.857C99.2653 101.715 97.7507 101.432 97.0713 101.432C96.3918 101.432 94.948 101.715 94.311 101.857C94.7356 102.637 95.5849 104.919 95.5849 107.81C95.5849 111.424 95.3726 118.653 94.5233 123.543C93.674 128.432 90.4891 132.047 87.7288 133.96C85.5206 135.491 82.279 136.015 80.9343 136.086H69.2562C67.2037 136.369 63.3587 136.341 60.471 133.96C57.7775 131.739 56.8575 128.808 55.7699 125.343C55.4001 124.164 55.111 124.031 54.5258 121.629C53.4642 117.273 52.5486 112.363 52.5486 109.723C52.0795 109.723 51.6992 109.343 51.6992 108.873L52.1902 103.133C52.1902 102.663 52.5705 102.282 53.0395 102.282H53.4642C53.8888 101.361 55.0779 99.2209 56.4368 98.0304C58.1354 96.5422 63.311 94.2035 73.2905 94.2035C83.2699 94.2035 88.1535 95.6917 90.4891 96.9674C91.9534 97.7672 92.7309 99.0544 93.2713 99.949C93.4204 100.196 93.5515 100.413 93.674 100.582C94.2402 100.44 96.4343 100.156 97.2836 100.156C98.1329 100.156 99.6192 100.44 100.256 100.582C100.539 99.9437 101.997 97.9878 103.866 96.9674C106.201 95.6918 112.571 94.6287 116.818 94.2035C121.064 93.7783 131.044 94.8413 135.927 95.6917C139.834 96.372 142.793 98.9516 143.784 100.156ZM139.749 98.8808C141.478 99.9458 141.94 100.967 142.51 102.228C142.64 102.516 142.776 102.816 142.934 103.133C143.784 104.834 144.208 107.725 144.208 109.086C144.208 110.786 144.208 112.275 143.359 117.377C142.51 122.48 141.873 125.031 139.749 129.283C138.051 132.684 134.795 134.243 133.379 134.598C130.713 135.265 126.086 135.147 122.884 135.065C122.005 135.043 121.234 135.023 120.64 135.023C120.347 135.023 120.035 135.028 119.706 135.034C116.926 135.081 112.91 135.148 108.962 132.259C103.802 128.484 102.352 122.85 101.317 118.832C101.245 118.552 101.175 118.279 101.105 118.015C100.044 113.975 100.256 105.897 101.105 102.708C101.955 99.5186 104.503 98.243 106.838 97.6052C109.174 96.9674 113.633 96.3296 116.605 96.117C119.578 95.9043 126.16 95.9044 131.468 96.5422C135.715 97.0524 138.263 97.965 139.749 98.8808ZM55.518 101.679C56.065 100.474 56.5084 99.4974 58.1666 98.4793C59.5925 97.6037 61.7053 96.8174 65.7793 96.3296C70.8718 95.7198 74.0483 95.4885 76.9001 95.6918C79.7519 95.895 84.6594 96.3694 86.9001 96.9791C89.1408 97.5888 91.5853 98.8083 92.4001 101.857C93.2149 104.906 94.0986 110.361 93.4091 116.961C92.994 120.933 92.1964 128.185 86.9001 132.047C83.1122 134.809 79.2592 134.744 76.5928 134.699C76.2767 134.694 75.9772 134.689 75.6965 134.689C75.4944 134.689 75.2624 134.689 75.005 134.69C71.8909 134.696 66.0294 134.711 63.019 133.96C61.6609 133.621 59.7962 130.621 58.1666 127.369C56.3919 123.828 56.0087 121.446 55.4006 117.665C55.3108 117.106 55.216 116.517 55.111 115.889C54.2962 111.011 54.1012 109.011 54.1012 107.385C54.1012 106.084 54.2962 104.17 55.111 102.544C55.2626 102.242 55.393 101.955 55.518 101.679Z" fill="#262939"/>
</g>
<ellipse rx="9.07656" ry="8.88747" transform="matrix(-1 0 0 1 99.2379 80.3026)" fill="url(#paint19_radial_416_579)"/>
<ellipse rx="9.07656" ry="8.88747" transform="matrix(-1 0 0 1 99.2379 80.3026)" fill="url(#paint20_diamond_416_579)" fill-opacity="0.4"/>
<ellipse rx="9.07656" ry="8.88747" transform="matrix(-1 0 0 1 99.2379 80.3026)" fill="url(#paint21_diamond_416_579)" fill-opacity="0.4"/>
<ellipse rx="9.07656" ry="8.88747" transform="matrix(-1 0 0 1 99.2379 80.3026)" fill="url(#paint22_diamond_416_579)" fill-opacity="0.4"/>
<circle r="6.61833" transform="matrix(-1 0 0 1 146.701 86.3539)" fill="url(#paint23_radial_416_579)"/>
<circle r="6.61833" transform="matrix(-1 0 0 1 146.701 86.3539)" fill="url(#paint24_diamond_416_579)" fill-opacity="0.4"/>
<circle r="6.61833" transform="matrix(-1 0 0 1 146.701 86.3539)" fill="url(#paint25_diamond_416_579)" fill-opacity="0.4"/>
<circle r="6.61833" transform="matrix(-1 0 0 1 146.701 86.3539)" fill="url(#paint26_diamond_416_579)" fill-opacity="0.4"/>
<g filter="url(#filter2_di_416_579)">
<ellipse rx="6.05104" ry="5.86195" transform="matrix(-1 0 0 1 98.8601 80.681)" fill="url(#paint27_diamond_416_579)"/>
</g>
<g filter="url(#filter3_di_416_579)">
<circle r="4.53828" transform="matrix(-1 0 0 1 146.134 86.9211)" fill="url(#paint28_diamond_416_579)"/>
</g>
<g filter="url(#filter4_di_416_579)">
<ellipse rx="14.9385" ry="14.5603" transform="matrix(-1 0 0 1 121.74 115.474)" fill="url(#paint29_diamond_416_579)"/>
</g>
<g filter="url(#filter5_di_416_579)">
<ellipse rx="14.1821" ry="12.8585" transform="matrix(-1 0 0 1 75.979 115.285)" fill="url(#paint30_diamond_416_579)"/>
</g>
<g style="mix-blend-mode:screen">
<path d="M75.204 104.262C75.5689 104.262 75.9427 104.28 76.281 104.431C76.6103 104.582 76.8951 104.893 76.9129 105.258C76.9307 105.631 76.6637 105.978 76.3433 106.165C76.0228 106.352 75.6401 106.423 75.2752 106.512C73.5574 106.912 72.1956 107.419 70.6291 108.228C68.8312 109.161 67.0333 110.095 65.2443 111.028C65.093 111.108 64.8972 111.188 64.7548 111.091C64.559 110.957 64.648 110.655 64.7637 110.45C66.2501 107.774 68.7422 105.836 71.626 104.858C72.7653 104.476 73.9846 104.262 75.204 104.262Z" fill="url(#paint31_linear_416_579)"/>
</g>
<g filter="url(#filter6_b_416_579)">
<path d="M54.5169 101.712C55.0643 100.5 55.508 99.5184 57.1672 98.4947C58.2293 97.8393 59.6724 97.2336 62.0225 96.7645L58.9312 130.774C58.3356 129.797 57.737 128.685 57.1672 127.542C55.3914 123.982 55.008 121.586 54.3995 117.785L54.3995 117.785L54.399 117.782C54.3092 117.221 54.2146 116.63 54.1098 115.999C53.2945 111.095 53.0993 109.084 53.0993 107.449C53.0993 106.141 53.2945 104.217 54.1098 102.582C54.2614 102.278 54.3919 101.989 54.5169 101.712Z" fill="white" fill-opacity="0.01"/>
</g>
<g style="mix-blend-mode:screen">
<path d="M120.863 102.298C121.228 102.298 121.602 102.316 121.94 102.467C122.269 102.618 122.554 102.929 122.572 103.294C122.59 103.667 122.323 104.014 122.002 104.201C121.682 104.388 121.299 104.459 120.934 104.548C119.217 104.948 117.855 105.454 116.288 106.264C114.49 107.197 112.692 108.131 110.903 109.064C110.752 109.144 110.556 109.224 110.414 109.126C110.218 108.993 110.307 108.691 110.423 108.486C111.909 105.81 114.401 103.872 117.285 102.894C118.424 102.511 119.644 102.298 120.863 102.298Z" fill="url(#paint32_linear_416_579)"/>
</g>
<path d="M58.0839 86.1744C58.4014 83.9557 59.6711 82.9032 60.6631 82.761L59.4727 91.0812C58.613 90.2989 57.7665 88.3931 58.0839 86.1744Z" fill="url(#paint33_linear_416_579)"/>
<path d="M48.7916 169.96L49.1572 165.416L59.0965 166.216L71.9233 153.069L140.796 157.96L142.34 159.234C143.275 160.006 143.314 161.425 142.423 162.247L124.779 178.525C124.355 178.917 123.781 179.106 123.207 179.043L49.6801 171.034C49.142 170.975 48.7482 170.499 48.7916 169.96Z" fill="#8CAED7"/>
<path d="M138.688 159.41L122.908 173.974L121.876 174.501L110.851 157.259L138.567 159.064C138.742 159.075 138.817 159.29 138.688 159.41Z" fill="#7F9ABA"/>
<path d="M41.0207 116.682L48.9667 166.708L123.286 174.761L113.11 122.708C112.938 121.828 112.202 121.17 111.308 121.098L42.0886 115.528C41.443 115.477 40.9191 116.043 41.0207 116.682Z" fill="url(#paint34_linear_416_579)"/>
<g style="mix-blend-mode:screen">
<path d="M71.0849 118.293L95.422 173.489L86.9111 173.188C86.9111 173.188 57.1609 117.271 57.2541 117.29L71.0849 118.293ZM77.9192 118.786L96.9888 173.417L108.05 173.947L96.9628 120.173L77.9192 118.786Z" fill="url(#paint35_linear_416_579)"/>
</g>
<path d="M167.256 138.545C166.868 141.171 171.708 143.422 171.708 143.422C171.708 143.422 174.419 145.297 175.774 146.797C177.129 148.298 176.936 151.861 174.806 154.675C172.676 157.488 163.964 159.926 158.737 159.926C153.509 159.926 145.378 158.238 142.861 158.05C140.344 157.863 138.795 158.801 137.827 159.926C136.859 161.051 136.278 163.865 138.989 165.553C141.699 167.24 150.412 167.616 153.897 167.803C157.382 167.991 168.03 167.165 173.645 164.99C179.259 162.814 184.099 157.488 185.067 152.424C186.035 147.36 183.519 140.876 180.034 138.17C176.549 135.464 173.645 134.419 171.708 134.607C169.772 134.794 167.643 135.92 167.256 138.545Z" fill="url(#paint36_radial_416_579)"/>
<path d="M167.256 138.545C166.868 141.171 171.708 143.422 171.708 143.422C171.708 143.422 174.419 145.297 175.774 146.797C177.129 148.298 176.936 151.861 174.806 154.675C172.676 157.488 163.964 159.926 158.737 159.926C153.509 159.926 145.378 158.238 142.861 158.05C140.344 157.863 138.795 158.801 137.827 159.926C136.859 161.051 136.278 163.865 138.989 165.553C141.699 167.24 150.412 167.616 153.897 167.803C157.382 167.991 168.03 167.165 173.645 164.99C179.259 162.814 184.099 157.488 185.067 152.424C186.035 147.36 183.519 140.876 180.034 138.17C176.549 135.464 173.645 134.419 171.708 134.607C169.772 134.794 167.643 135.92 167.256 138.545Z" fill="url(#paint37_linear_416_579)"/>
<path d="M167.256 126.749C166.868 129.375 171.708 131.626 171.708 131.626C171.708 131.626 174.419 133.501 175.774 135.001C177.129 136.502 176.936 140.065 174.806 142.879C172.676 145.692 163.964 148.13 158.737 148.13C153.509 148.13 145.378 146.442 142.861 146.254C140.344 146.067 138.795 147.005 137.827 148.13C136.859 149.255 136.278 152.069 138.989 153.757C141.699 155.444 150.412 155.82 153.897 156.007C157.382 156.195 168.03 155.369 173.645 153.194C179.259 151.018 184.099 145.692 185.067 140.628C186.035 135.564 183.519 129.08 180.034 126.374C176.549 123.668 173.645 122.623 171.708 122.811C169.772 122.998 167.643 124.123 167.256 126.749Z" fill="url(#paint38_radial_416_579)"/>
<path d="M167.256 126.749C166.868 129.375 171.708 131.626 171.708 131.626C171.708 131.626 174.419 133.501 175.774 135.001C177.129 136.502 176.936 140.065 174.806 142.879C172.676 145.692 163.964 148.13 158.737 148.13C153.509 148.13 145.378 146.442 142.861 146.254C140.344 146.067 138.795 147.005 137.827 148.13C136.859 149.255 136.278 152.069 138.989 153.757C141.699 155.444 150.412 155.82 153.897 156.007C157.382 156.195 168.03 155.369 173.645 153.194C179.259 151.018 184.099 145.692 185.067 140.628C186.035 135.564 183.519 129.08 180.034 126.374C176.549 123.668 173.645 122.623 171.708 122.811C169.772 122.998 167.643 124.123 167.256 126.749Z" fill="url(#paint39_linear_416_579)"/>
<path d="M52.4512 169.29C46.1403 166.142 42.1316 161.408 40.2805 158.071C38.4295 154.735 37.9866 148.492 39.101 144.751C40.2153 141.01 41.2312 137.817 43.9121 135.136L45.5206 145.323C45.5206 145.323 45.7368 149.115 46.0048 150.727C46.2727 152.338 48.8945 155.303 53.8441 157.913C58.7937 160.522 67.3037 163.351 68.6719 164.352C70.0402 165.354 72.1025 167.703 70.7739 170.093C69.4454 172.482 67.4227 173.523 65.7273 173.543C64.0318 173.563 58.7621 172.438 52.4512 169.29Z" fill="url(#paint40_radial_416_579)"/>
<defs>
<filter id="filter0_f_416_579" x="35.5352" y="176.763" width="164.469" height="33.2367" filterUnits="userSpaceOnUse" color-interpolation-filters="sRGB">
<feFlood flood-opacity="0" result="BackgroundImageFix"/>
<feBlend mode="normal" in="SourceGraphic" in2="BackgroundImageFix" result="shape"/>
<feGaussianBlur stdDeviation="5" result="effect1_foregroundBlur_416_579"/>
</filter>
<filter id="filter1_i_416_579" x="51.6992" y="94.1067" width="124.934" height="43.3573" filterUnits="userSpaceOnUse" color-interpolation-filters="sRGB">
<feFlood flood-opacity="0" result="BackgroundImageFix"/>
<feBlend mode="normal" in="SourceGraphic" in2="BackgroundImageFix" result="shape"/>
<feColorMatrix in="SourceAlpha" type="matrix" values="0 0 0 0 0 0 0 0 0 0 0 0 0 0 0 0 0 0 127 0" result="hardAlpha"/>
<feOffset dx="1" dy="1"/>
<feGaussianBlur stdDeviation="1"/>
<feComposite in2="hardAlpha" operator="arithmetic" k2="-1" k3="1"/>
<feColorMatrix type="matrix" values="0 0 0 0 0.406701 0 0 0 0 0.610284 0 0 0 0 0.920833 0 0 0 1 0"/>
<feBlend mode="normal" in2="shape" result="effect1_innerShadow_416_579"/>
</filter>
<filter id="filter2_di_416_579" x="87.8086" y="69.8191" width="22.1025" height="21.7239" filterUnits="userSpaceOnUse" color-interpolation-filters="sRGB">
<feFlood flood-opacity="0" result="BackgroundImageFix"/>
<feColorMatrix in="SourceAlpha" type="matrix" values="0 0 0 0 0 0 0 0 0 0 0 0 0 0 0 0 0 0 127 0" result="hardAlpha"/>
<feOffset/>
<feGaussianBlur stdDeviation="2.5"/>
<feComposite in2="hardAlpha" operator="out"/>
<feColorMatrix type="matrix" values="0 0 0 0 0.3 0 0 0 0 0.832 0 0 0 0 1 0 0 0 0.4 0"/>
<feBlend mode="normal" in2="BackgroundImageFix" result="effect1_dropShadow_416_579"/>
<feBlend mode="normal" in="SourceGraphic" in2="effect1_dropShadow_416_579" result="shape"/>
<feColorMatrix in="SourceAlpha" type="matrix" values="0 0 0 0 0 0 0 0 0 0 0 0 0 0 0 0 0 0 127 0" result="hardAlpha"/>
<feOffset/>
<feGaussianBlur stdDeviation="2"/>
<feComposite in2="hardAlpha" operator="arithmetic" k2="-1" k3="1"/>
<feColorMatrix type="matrix" values="0 0 0 0 0.309804 0 0 0 0 0.67451 0 0 0 0 0.886275 0 0 0 1 0"/>
<feBlend mode="normal" in2="shape" result="effect2_innerShadow_416_579"/>
</filter>
<filter id="filter3_di_416_579" x="136.596" y="77.3828" width="19.0762" height="19.0765" filterUnits="userSpaceOnUse" color-interpolation-filters="sRGB">
<feFlood flood-opacity="0" result="BackgroundImageFix"/>
<feColorMatrix in="SourceAlpha" type="matrix" values="0 0 0 0 0 0 0 0 0 0 0 0 0 0 0 0 0 0 127 0" result="hardAlpha"/>
<feOffset/>
<feGaussianBlur stdDeviation="2.5"/>
<feComposite in2="hardAlpha" operator="out"/>
<feColorMatrix type="matrix" values="0 0 0 0 0.3 0 0 0 0 0.832 0 0 0 0 1 0 0 0 0.4 0"/>
<feBlend mode="normal" in2="BackgroundImageFix" result="effect1_dropShadow_416_579"/>
<feBlend mode="normal" in="SourceGraphic" in2="effect1_dropShadow_416_579" result="shape"/>
<feColorMatrix in="SourceAlpha" type="matrix" values="0 0 0 0 0 0 0 0 0 0 0 0 0 0 0 0 0 0 127 0" result="hardAlpha"/>
<feOffset/>
<feGaussianBlur stdDeviation="1.5"/>
<feComposite in2="hardAlpha" operator="arithmetic" k2="-1" k3="1"/>
<feColorMatrix type="matrix" values="0 0 0 0 0.309804 0 0 0 0 0.67451 0 0 0 0 0.886275 0 0 0 1 0"/>
<feBlend mode="normal" in2="shape" result="effect2_innerShadow_416_579"/>
</filter>
<filter id="filter4_di_416_579" x="101.802" y="95.9141" width="39.877" height="39.1206" filterUnits="userSpaceOnUse" color-interpolation-filters="sRGB">
<feFlood flood-opacity="0" result="BackgroundImageFix"/>
<feColorMatrix in="SourceAlpha" type="matrix" values="0 0 0 0 0 0 0 0 0 0 0 0 0 0 0 0 0 0 127 0" result="hardAlpha"/>
<feOffset/>
<feGaussianBlur stdDeviation="2.5"/>
<feComposite in2="hardAlpha" operator="out"/>
<feColorMatrix type="matrix" values="0 0 0 0 0.3 0 0 0 0 0.832 0 0 0 0 1 0 0 0 0.4 0"/>
<feBlend mode="normal" in2="BackgroundImageFix" result="effect1_dropShadow_416_579"/>
<feBlend mode="normal" in="SourceGraphic" in2="effect1_dropShadow_416_579" result="shape"/>
<feColorMatrix in="SourceAlpha" type="matrix" values="0 0 0 0 0 0 0 0 0 0 0 0 0 0 0 0 0 0 127 0" result="hardAlpha"/>
<feOffset/>
<feGaussianBlur stdDeviation="1"/>
<feComposite in2="hardAlpha" operator="arithmetic" k2="-1" k3="1"/>
<feColorMatrix type="matrix" values="0 0 0 0 0.309804 0 0 0 0 0.67451 0 0 0 0 0.886275 0 0 0 1 0"/>
<feBlend mode="normal" in2="shape" result="effect2_innerShadow_416_579"/>
</filter>
<filter id="filter5_di_416_579" x="56.7969" y="97.4268" width="38.3643" height="35.7169" filterUnits="userSpaceOnUse" color-interpolation-filters="sRGB">
<feFlood flood-opacity="0" result="BackgroundImageFix"/>
<feColorMatrix in="SourceAlpha" type="matrix" values="0 0 0 0 0 0 0 0 0 0 0 0 0 0 0 0 0 0 127 0" result="hardAlpha"/>
<feOffset/>
<feGaussianBlur stdDeviation="2.5"/>
<feComposite in2="hardAlpha" operator="out"/>
<feColorMatrix type="matrix" values="0 0 0 0 0.3 0 0 0 0 0.832 0 0 0 0 1 0 0 0 0.4 0"/>
<feBlend mode="normal" in2="BackgroundImageFix" result="effect1_dropShadow_416_579"/>
<feBlend mode="normal" in="SourceGraphic" in2="effect1_dropShadow_416_579" result="shape"/>
<feColorMatrix in="SourceAlpha" type="matrix" values="0 0 0 0 0 0 0 0 0 0 0 0 0 0 0 0 0 0 127 0" result="hardAlpha"/>
<feOffset/>
<feGaussianBlur stdDeviation="1"/>
<feComposite in2="hardAlpha" operator="arithmetic" k2="-1" k3="1"/>
<feColorMatrix type="matrix" values="0 0 0 0 0.309804 0 0 0 0 0.67451 0 0 0 0 0.886275 0 0 0 1 0"/>
<feBlend mode="normal" in2="shape" result="effect2_innerShadow_416_579"/>
</filter>
<filter id="filter6_b_416_579" x="51.0996" y="94.7645" width="12.9229" height="38.0096" filterUnits="userSpaceOnUse" color-interpolation-filters="sRGB">
<feFlood flood-opacity="0" result="BackgroundImageFix"/>
<feGaussianBlur in="BackgroundImage" stdDeviation="1"/>
<feComposite in2="SourceAlpha" operator="in" result="effect1_backgroundBlur_416_579"/>
<feBlend mode="normal" in="SourceGraphic" in2="effect1_backgroundBlur_416_579" result="shape"/>
</filter>
<linearGradient id="paint0_linear_416_579" x1="11.4028" y1="1.64792" x2="21.7678" y2="16.8895" gradientUnits="userSpaceOnUse">
<stop stop-color="#BABB98"/>
<stop offset="0.1539" stop-color="#9C9D7F"/>
<stop offset="0.7399" stop-color="#2C2D24"/>
<stop offset="1"/>
</linearGradient>
<radialGradient id="paint1_radial_416_579" cx="0" cy="0" r="1" gradientUnits="userSpaceOnUse" gradientTransform="translate(158.307 182.591) rotate(-32.9903) scale(31.2702 38.6251)">
<stop stop-color="#A5C5CF"/>
<stop offset="1" stop-color="#607791"/>
</radialGradient>
<linearGradient id="paint2_linear_416_579" x1="213.261" y1="184.072" x2="176.591" y2="184.277" gradientUnits="userSpaceOnUse">
<stop stop-color="white"/>
<stop offset="1" stop-color="white" stop-opacity="0"/>
</linearGradient>
<radialGradient id="paint3_radial_416_579" cx="0" cy="0" r="1" gradientUnits="userSpaceOnUse" gradientTransform="translate(73.2779 183.374) rotate(-145.187) scale(31.2348 38.5705)">
<stop stop-color="#A5C5CF"/>
<stop offset="1" stop-color="#607791"/>
</radialGradient>
<linearGradient id="paint4_linear_416_579" x1="23.9062" y1="178.513" x2="54.9653" y2="184.47" gradientUnits="userSpaceOnUse">
<stop stop-color="white"/>
<stop offset="1" stop-color="white" stop-opacity="0"/>
</linearGradient>
<radialGradient id="paint5_radial_416_579" cx="0" cy="0" r="1" gradientUnits="userSpaceOnUse" gradientTransform="translate(90.1701 176.925) rotate(-150.255) scale(23.7496 29.3274)">
<stop stop-color="#A5C5CF"/>
<stop offset="1" stop-color="#607791"/>
</radialGradient>
<radialGradient id="paint6_radial_416_579" cx="0" cy="0" r="1" gradientUnits="userSpaceOnUse" gradientTransform="translate(134.739 178.268) rotate(-34.8135) scale(31.2348 38.5705)">
<stop stop-color="#A5C5CF"/>
<stop offset="1" stop-color="#607791"/>
</radialGradient>
<radialGradient id="paint7_radial_416_579" cx="0" cy="0" r="1" gradientUnits="userSpaceOnUse" gradientTransform="translate(103.917 71.8584) rotate(42.1485) scale(90.722 76.8113)">
<stop stop-color="#50778E"/>
<stop offset="0.583333" stop-color="#3D6F85"/>
<stop offset="1" stop-color="#343E52"/>
</radialGradient>
<linearGradient id="paint8_linear_416_579" x1="179.793" y1="152.726" x2="93.5658" y2="132.304" gradientUnits="userSpaceOnUse">
<stop stop-color="#273132"/>
<stop offset="1" stop-color="#30578F" stop-opacity="0"/>
</linearGradient>
<linearGradient id="paint9_linear_416_579" x1="51.2085" y1="116.42" x2="113.245" y2="135.684" gradientUnits="userSpaceOnUse">
<stop stop-color="#B7D5E6"/>
<stop offset="1" stop-color="#72EEFF" stop-opacity="0"/>
</linearGradient>
<linearGradient id="paint10_linear_416_579" x1="83.1229" y1="39.6969" x2="100.166" y2="64.4346" gradientUnits="userSpaceOnUse">
<stop stop-color="#BABB98"/>
<stop offset="0.1539" stop-color="#9C9D7F"/>
<stop offset="0.7399" stop-color="#2C2D24"/>
<stop offset="1"/>
</linearGradient>
<radialGradient id="paint11_radial_416_579" cx="0" cy="0" r="1" gradientUnits="userSpaceOnUse" gradientTransform="translate(75.441 115.554) rotate(96.3402) scale(22.2293 20.7892)">
<stop offset="0.462963" stop-color="#69C7FA"/>
<stop offset="0.684954" stop-color="#195EA1"/>
<stop offset="1" stop-color="#304758"/>
</radialGradient>
<radialGradient id="paint12_diamond_416_579" cx="0" cy="0" r="1" gradientUnits="userSpaceOnUse" gradientTransform="translate(76.6842 113.137) rotate(107.51) scale(28.1786 30.0631)">
<stop offset="0.404046" stop-color="#69C7FA"/>
<stop offset="0.684954" stop-color="#195EA1" stop-opacity="0"/>
<stop offset="1" stop-color="#003B6B" stop-opacity="0"/>
</radialGradient>
<radialGradient id="paint13_diamond_416_579" cx="0" cy="0" r="1" gradientUnits="userSpaceOnUse" gradientTransform="translate(73.293 113.772) rotate(176.027) scale(24.4333 30.491)">
<stop offset="0.404046" stop-color="#69C7FA"/>
<stop offset="0.684954" stop-color="#195EA1" stop-opacity="0"/>
<stop offset="1" stop-color="#003B6B" stop-opacity="0"/>
</radialGradient>
<radialGradient id="paint14_diamond_416_579" cx="0" cy="0" r="1" gradientUnits="userSpaceOnUse" gradientTransform="translate(74.5647 114.83) rotate(-119.015) scale(29.2779 33.3683)">
<stop offset="0.404046" stop-color="#69C7FA"/>
<stop offset="0.684954" stop-color="#195EA1" stop-opacity="0"/>
<stop offset="1" stop-color="#003B6B" stop-opacity="0"/>
</radialGradient>
<radialGradient id="paint15_radial_416_579" cx="0" cy="0" r="1" gradientUnits="userSpaceOnUse" gradientTransform="translate(121.345 116.045) rotate(91.302) scale(21.608 23.1887)">
<stop offset="0.433484" stop-color="#69C7FA"/>
<stop offset="0.684954" stop-color="#195EA1"/>
<stop offset="1" stop-color="#304758"/>
</radialGradient>
<radialGradient id="paint16_diamond_416_579" cx="0" cy="0" r="1" gradientUnits="userSpaceOnUse" gradientTransform="translate(120.236 113.415) rotate(108.376) scale(32.4055 38.3561)">
<stop offset="0.404046" stop-color="#69C7FA"/>
<stop offset="0.684954" stop-color="#195EA1" stop-opacity="0"/>
<stop offset="1" stop-color="#003B6B" stop-opacity="0"/>
</radialGradient>
<radialGradient id="paint17_diamond_416_579" cx="0" cy="0" r="1" gradientUnits="userSpaceOnUse" gradientTransform="translate(121.513 120.202) rotate(140.651) scale(21.7428 25.6462)">
<stop offset="0.404046" stop-color="#69C7FA"/>
<stop offset="0.684954" stop-color="#195EA1" stop-opacity="0"/>
<stop offset="1" stop-color="#003B6B" stop-opacity="0"/>
</radialGradient>
<radialGradient id="paint18_diamond_416_579" cx="0" cy="0" r="1" gradientUnits="userSpaceOnUse" gradientTransform="translate(120.236 113.415) rotate(-126.387) scale(28.7515 33.9709)">
<stop offset="0.404046" stop-color="#69C7FA"/>
<stop offset="0.684954" stop-color="#195EA1" stop-opacity="0"/>
<stop offset="1" stop-color="#003B6B" stop-opacity="0"/>
</radialGradient>
<radialGradient id="paint19_radial_416_579" cx="0" cy="0" r="1" gradientUnits="userSpaceOnUse" gradientTransform="translate(9.30781 8.78952) rotate(84.6005) scale(9.02546 9.91505)">
<stop offset="0.53125" stop-color="#69C7FA"/>
<stop offset="0.6875" stop-color="#327E9E"/>
<stop offset="1" stop-color="#2C3E4E"/>
</radialGradient>
<radialGradient id="paint20_diamond_416_579" cx="0" cy="0" r="1" gradientUnits="userSpaceOnUse" gradientTransform="translate(9.30781 8.7895) rotate(76.2005) scale(14.4083 14.2264)">
<stop offset="0.404046" stop-color="#69C7FA"/>
<stop offset="0.684954" stop-color="#195EA1" stop-opacity="0"/>
<stop offset="1" stop-color="#003B6B" stop-opacity="0"/>
</radialGradient>
<radialGradient id="paint21_diamond_416_579" cx="0" cy="0" r="1" gradientUnits="userSpaceOnUse" gradientTransform="translate(8.81685 9.28046) rotate(43.3425) scale(11.0211 9.94023)">
<stop offset="0.404046" stop-color="#69C7FA"/>
<stop offset="0.684954" stop-color="#195EA1" stop-opacity="0"/>
<stop offset="1" stop-color="#003B6B" stop-opacity="0"/>
</radialGradient>
<radialGradient id="paint22_diamond_416_579" cx="0" cy="0" r="1" gradientUnits="userSpaceOnUse" gradientTransform="translate(9.30781 8.7895) rotate(-53.8068) scale(12.4713 14.41)">
<stop offset="0.404046" stop-color="#69C7FA"/>
<stop offset="0.684954" stop-color="#195EA1" stop-opacity="0"/>
<stop offset="1" stop-color="#003B6B" stop-opacity="0"/>
</radialGradient>
<radialGradient id="paint23_radial_416_579" cx="0" cy="0" r="1" gradientUnits="userSpaceOnUse" gradientTransform="translate(6.68896 6.85179) rotate(108.435) scale(7.76282 6.79246)">
<stop offset="0.369792" stop-color="#69C7FA"/>
<stop offset="0.651042" stop-color="#327E9E"/>
<stop offset="0.911458" stop-color="#314352"/>
</radialGradient>
<radialGradient id="paint24_diamond_416_579" cx="0" cy="0" r="1" gradientUnits="userSpaceOnUse" gradientTransform="translate(6.68896 7.5883) rotate(74.4803) scale(9.73183 9.43088)">
<stop offset="0.404046" stop-color="#69C7FA"/>
<stop offset="0.684954" stop-color="#195EA1" stop-opacity="0"/>
<stop offset="1" stop-color="#003B6B" stop-opacity="0"/>
</radialGradient>
<radialGradient id="paint25_diamond_416_579" cx="0" cy="0" r="1" gradientUnits="userSpaceOnUse" gradientTransform="translate(5.70703 8.32475) rotate(32.7234) scale(7.80513 7.04667)">
<stop offset="0.404046" stop-color="#69C7FA"/>
<stop offset="0.684954" stop-color="#195EA1" stop-opacity="0"/>
<stop offset="1" stop-color="#003B6B" stop-opacity="0"/>
</radialGradient>
<radialGradient id="paint26_diamond_416_579" cx="0" cy="0" r="1" gradientUnits="userSpaceOnUse" gradientTransform="translate(6.68896 5.62445) rotate(-4.39871) scale(9.60207 6.7474)">
<stop offset="0.404046" stop-color="#69C7FA"/>
<stop offset="0.684954" stop-color="#195EA1" stop-opacity="0"/>
<stop offset="1" stop-color="#003B6B" stop-opacity="0"/>
</radialGradient>
<radialGradient id="paint27_diamond_416_579" cx="0" cy="0" r="1" gradientUnits="userSpaceOnUse" gradientTransform="translate(4.10606 9.63034) rotate(-35.2575) scale(9.79225 6.91621)">
<stop stop-color="#2B66FF"/>
<stop offset="0.526042" stop-color="#3748A1"/>
<stop offset="1" stop-color="#2E3172"/>
</radialGradient>
<radialGradient id="paint28_diamond_416_579" cx="0" cy="0" r="1" gradientUnits="userSpaceOnUse" gradientTransform="translate(3.07955 7.45575) rotate(-36.1193) scale(7.42397 5.29695)">
<stop stop-color="#2B66FF"/>
<stop offset="0.526042" stop-color="#3748A1"/>
<stop offset="1" stop-color="#2E3172"/>
</radialGradient>
<radialGradient id="paint29_diamond_416_579" cx="0" cy="0" r="1" gradientUnits="userSpaceOnUse" gradientTransform="translate(10.1368 23.9205) rotate(-35.4225) scale(24.224 17.1439)">
<stop stop-color="#2B66FF"/>
<stop offset="0.526042" stop-color="#3748A1"/>
<stop offset="1" stop-color="#2E3172"/>
</radialGradient>
<radialGradient id="paint30_diamond_416_579" cx="0" cy="0" r="1" gradientUnits="userSpaceOnUse" gradientTransform="translate(9.62359 21.1246) rotate(-33.4895) scale(22.4712 15.4947)">
<stop stop-color="#2B66FF"/>
<stop offset="0.526042" stop-color="#3748A1"/>
<stop offset="1" stop-color="#2E3172"/>
</radialGradient>
<linearGradient id="paint31_linear_416_579" x1="67.9666" y1="103.746" x2="71.8701" y2="109.698" gradientUnits="userSpaceOnUse">
<stop stop-color="#BABB98"/>
<stop offset="0.1539" stop-color="#9C9D7F"/>
<stop offset="0.7399" stop-color="#2C2D24"/>
<stop offset="1"/>
</linearGradient>
<linearGradient id="paint32_linear_416_579" x1="113.626" y1="101.782" x2="117.529" y2="107.733" gradientUnits="userSpaceOnUse">
<stop stop-color="#BABB98"/>
<stop offset="0.1539" stop-color="#9C9D7F"/>
<stop offset="0.7399" stop-color="#2C2D24"/>
<stop offset="1"/>
</linearGradient>
<linearGradient id="paint33_linear_416_579" x1="61.514" y1="93.6069" x2="56.4272" y2="92.4258" gradientUnits="userSpaceOnUse">
<stop stop-color="#2B66FF"/>
<stop offset="0.526042" stop-color="#3746A1"/>
<stop offset="1" stop-color="#271B74"/>
</linearGradient>
<linearGradient id="paint34_linear_416_579" x1="131.22" y1="175.332" x2="106.427" y2="102.225" gradientUnits="userSpaceOnUse">
<stop stop-color="#F9EBC4"/>
<stop offset="1" stop-color="#B7DBFD"/>
</linearGradient>
<linearGradient id="paint35_linear_416_579" x1="64.8956" y1="96.1347" x2="109.582" y2="179.62" gradientUnits="userSpaceOnUse">
<stop stop-color="#93A57F"/>
<stop offset="0.0668103" stop-color="#80906F"/>
<stop offset="0.2204" stop-color="#59644D"/>
<stop offset="0.376" stop-color="#394031"/>
<stop offset="0.5317" stop-color="#20241C"/>
<stop offset="0.6874" stop-color="#0E100C"/>
<stop offset="0.8433" stop-color="#040403"/>
<stop offset="1"/>
</linearGradient>
<radialGradient id="paint36_radial_416_579" cx="0" cy="0" r="1" gradientUnits="userSpaceOnUse" gradientTransform="translate(125.63 156.738) rotate(-15.9265) scale(51.9446 37.0713)">
<stop stop-color="#A5C5CF"/>
<stop offset="1" stop-color="#607791"/>
</radialGradient>
<linearGradient id="paint37_linear_416_579" x1="161.254" y1="172.471" x2="171.13" y2="143.019" gradientUnits="userSpaceOnUse">
<stop stop-color="#405469" stop-opacity="0"/>
<stop offset="1" stop-color="#405469"/>
</linearGradient>
<radialGradient id="paint38_radial_416_579" cx="0" cy="0" r="1" gradientUnits="userSpaceOnUse" gradientTransform="translate(125.63 144.942) rotate(-15.9265) scale(51.9446 37.0713)">
<stop stop-color="#A5C5CF"/>
<stop offset="1" stop-color="#607791"/>
</radialGradient>
<linearGradient id="paint39_linear_416_579" x1="161.254" y1="151.672" x2="175.981" y2="122.427" gradientUnits="userSpaceOnUse">
<stop stop-color="#405469" stop-opacity="0"/>
<stop offset="1" stop-color="#405469"/>
</linearGradient>
<radialGradient id="paint40_radial_416_579" cx="0" cy="0" r="1" gradientUnits="userSpaceOnUse" gradientTransform="translate(78.6517 171.918) rotate(-132.593) scale(43.4082 25.0525)">
<stop stop-color="#A5C5CF"/>
<stop offset="1" stop-color="#607791"/>
</radialGradient>
</defs>
</svg>
