<svg width="67" height="65" viewBox="0 0 67 65" fill="none" xmlns="http://www.w3.org/2000/svg">
<path fill-rule="evenodd" clip-rule="evenodd" d="M34.064 0.00117094C43.7487 0.0622854 53.5524 2.61515 59.8202 10.0957C66.3085 17.8393 68.3134 28.408 66.1823 38.3336C64.0227 48.3913 57.8523 57.232 48.7277 61.757C39.5332 66.3167 28.7787 65.9301 19.5394 61.4644C10.2558 56.9773 3.09693 48.7569 0.809755 38.5963C-1.47698 28.4378 1.13924 17.6173 7.90231 9.76804C14.3326 2.30496 24.2863 -0.0605302 34.064 0.00117094Z" fill="#1975FF"/>
<g style="mix-blend-mode:screen">
<path d="M36.7067 3C37.8365 3 38.9938 3.05692 40.0409 3.5407C41.0605 4.02448 41.9423 5.0205 41.9974 6.18727C42.0525 7.3825 41.2258 8.49236 40.2338 9.08997C39.2418 9.68758 38.0569 9.91524 36.9272 10.1998C31.6089 11.4804 27.3929 13.1025 22.5431 15.6922C16.9769 18.6802 11.4107 21.6683 5.87202 24.6564C5.40358 24.9125 4.79735 25.1686 4.35647 24.8556C3.75024 24.4287 4.0258 23.4611 4.38402 22.8066C8.98581 14.2408 16.7014 8.03703 25.6294 4.90667C29.1565 3.68299 32.9316 3 36.7067 3Z" fill="url(#paint0_linear_901_475)"/>
</g>
<path d="M33.3558 31.3057L33.6206 32.5787M33.6206 32.5787C34.8897 32.3147 35.7229 33.1374 35.7891 33.4556M33.6206 32.5787C32.6687 32.7767 31.2147 33.7432 31.6119 35.6527C32.0092 37.5621 33.4107 37.9346 34.6798 37.6706M34.6798 37.6706L34.9446 38.9436M34.6798 37.6706C35.9489 37.4066 36.3849 36.3199 36.3187 36.0016M17.9092 42.9778L38.7236 56.4486L52.1756 35.8496L45.7177 37.193L41.1693 15.3279C40.5514 12.3578 36.2946 13.0456 36.9519 16.2053L38.2665 22.5246C38.858 25.3684 34.6275 26.1825 34.049 23.402L31.157 9.49932C30.4997 6.33963 26.2428 7.02737 26.9396 10.3766L28.9903 20.2349C29.5556 22.9522 25.4437 23.6757 24.9047 21.0848L24.0897 17.1668C23.4587 14.1335 18.9777 15.0656 19.6087 18.0989L24.4989 41.607L17.9092 42.9778ZM39.8613 33.9366C40.5194 37.1003 38.496 40.1969 35.3418 40.8531C32.1877 41.5092 29.0972 39.4764 28.4391 36.3127C27.781 33.149 29.8044 30.0523 32.9585 29.3962C36.1127 28.7401 39.2031 30.7729 39.8613 33.9366Z" stroke="white" stroke-width="2" stroke-linecap="round" stroke-linejoin="round"/>
<defs>
<linearGradient id="paint0_linear_901_475" x1="14.3001" y1="1.34746" x2="26.9548" y2="20.0105" gradientUnits="userSpaceOnUse">
<stop stop-color="#BABB98"/>
<stop offset="0.1539" stop-color="#9C9D7F"/>
<stop offset="0.7399" stop-color="#2C2D24"/>
<stop offset="1"/>
</linearGradient>
</defs>
</svg>
