<svg width="300" height="300" viewBox="0 0 300 300" fill="none" xmlns="http://www.w3.org/2000/svg">
<path d="M150 300C232.843 300 300 232.843 300 150C300 67.1573 232.843 0 150 0C67.1573 0 0 67.1573 0 150C0 232.843 67.1573 300 150 300Z" fill="white"/>
<path fill-rule="evenodd" clip-rule="evenodd" d="M235.605 63.886C239.201 59.4033 238.482 52.8545 233.999 49.2588C229.517 45.663 222.968 46.382 219.372 50.8646C215.776 55.3473 216.495 61.8961 220.978 65.4918C223.743 67.7095 227.293 68.286 230.452 67.3503C230.674 67.2641 230.905 67.1866 231.143 67.1191C232.839 66.4851 234.39 65.4003 235.605 63.886ZM190.426 78.8997C200.942 78.4502 210.333 77.4123 219.071 73.7511C217.992 73.1953 216.953 72.5239 215.97 71.7353C208.039 65.3736 206.767 53.7872 213.129 45.8564C219.491 37.9256 231.077 36.6536 239.008 43.0153C243.133 46.3247 245.457 51.0479 245.841 55.9349C251.925 49.9584 256.935 43.1248 260.139 35.2452C260.971 33.1976 263.311 32.271 265.365 33.1757C267.419 34.0804 268.409 36.4737 267.577 38.5214C261.793 52.7487 251.144 63.0292 239.545 71.2908C237.956 72.6714 236.171 73.7408 234.279 74.4894C221.102 83.692 205.702 86.4507 190.794 87.0879C188.605 87.1814 186.748 85.4243 186.646 83.1632C186.545 80.9021 188.237 78.9932 190.426 78.8997Z" fill="#8CAED7"/>
<path d="M210.821 75.5223C203.68 48.8703 176.285 33.0538 149.633 40.1952L103.544 52.5446L129.405 149.06L175.494 136.711C202.146 129.569 217.963 102.174 210.821 75.5223Z" fill="url(#paint0_radial_416_540)"/>
<path d="M164.323 117.103C161.185 131.514 152.476 142.734 140.101 146.05L128.147 149.253C108.135 154.615 86.0987 137.281 78.9346 110.545C71.7706 83.8079 82.1902 57.7862 102.199 52.4167L114.191 49.2035C126.566 45.8875 139.73 51.2299 149.641 62.1604C156.13 69.5797 160.831 78.3883 163.382 87.909C165.933 97.4297 166.266 107.409 164.356 117.078L164.323 117.103Z" fill="#8CAED7"/>
<path d="M164.323 117.103C161.185 131.514 152.476 142.734 140.101 146.05L128.147 149.253C108.135 154.615 86.0987 137.281 78.9346 110.545C71.7706 83.8079 82.1902 57.7862 102.199 52.4167L114.191 49.2035C126.566 45.8875 139.73 51.2299 149.641 62.1604C156.13 69.5797 160.831 78.3883 163.382 87.909C165.933 97.4297 166.266 107.409 164.356 117.078L164.323 117.103Z" fill="url(#paint1_radial_416_540)"/>
<path d="M152.234 120.343C149.105 134.727 140.416 145.933 128.072 149.273C108.076 154.631 86.0576 137.277 78.8975 110.555C71.7375 83.8334 82.1366 57.8252 102.125 52.4372C114.477 49.1273 127.603 54.4797 137.515 65.4103C144.008 72.8267 148.712 81.6352 151.263 91.1568C153.814 100.678 154.145 110.659 152.23 120.328L152.234 120.343Z" fill="#EFC565"/>
<path d="M152.234 120.343C149.105 134.727 140.416 145.933 128.072 149.273C108.076 154.631 86.0576 137.277 78.8975 110.555C71.7375 83.8334 82.1366 57.8252 102.125 52.4372C114.477 49.1273 127.603 54.4797 137.515 65.4103C144.008 72.8267 148.712 81.6352 151.263 91.1568C153.814 100.678 154.145 110.659 152.23 120.328L152.234 120.343Z" fill="url(#paint2_linear_416_540)"/>
<path d="M118.572 109.489C115.96 106.796 112.45 105.512 109.103 106.401C103.689 107.852 100.758 114.463 102.552 121.157C104.346 127.851 110.188 132.104 115.604 130.66C118.948 129.764 121.347 126.9 122.26 123.251C122.824 120.806 122.786 118.294 122.147 115.909C121.508 113.523 120.285 111.328 118.573 109.493L118.572 109.489Z" fill="white"/>
<path d="M109.821 76.8321C107.209 74.1385 103.699 72.8549 100.352 73.7435C94.9383 75.1942 92.0072 81.8053 93.801 88.4997C95.5947 95.1941 101.437 99.4463 106.853 98.0031C110.197 97.1069 112.596 94.2424 113.509 90.594C114.074 88.1488 114.035 85.6366 113.396 83.2513C112.757 80.8659 111.534 78.671 109.822 76.8359L109.821 76.8321Z" fill="white"/>
<path d="M79.617 128.084C80.8247 132.591 85.4575 135.266 89.9646 134.058L113.253 127.818C118.044 126.534 120.887 121.609 119.604 116.818C118.32 112.027 113.395 109.183 108.603 110.467L85.3154 116.707C80.8083 117.915 78.1335 122.548 79.3412 127.055L79.617 128.084Z" fill="#EFC565"/>
<path d="M70.6176 94.4962C71.8212 98.9882 76.4383 101.654 80.9302 100.45L104.788 94.0576C109.28 92.854 111.946 88.2368 110.742 83.7449C109.538 79.253 104.921 76.5873 100.429 77.7909L76.5716 84.1836C72.0797 85.3872 69.414 90.0043 70.6176 94.4962Z" fill="#EFC565"/>
<path fill-rule="evenodd" clip-rule="evenodd" d="M39.3737 246.52C55.3299 230.006 76.2893 222.06 97.0976 217.217C100.071 216.524 103.042 218.374 103.734 221.347C104.426 224.32 102.577 227.292 99.6036 227.984C79.6334 232.632 61.114 239.929 47.3238 254.201C45.2026 256.397 41.7033 256.457 39.508 254.335C37.3126 252.214 37.2525 248.715 39.3737 246.52Z" fill="#8CAED7"/>
<path d="M81.533 229.513C74.3739 202.795 90.2296 175.332 116.948 168.173L164.225 155.505L190.15 252.259L142.873 264.927C116.155 272.086 88.692 256.231 81.533 229.513Z" fill="url(#paint3_radial_416_540)"/>
<path d="M136.336 245.096C146.403 256.157 159.738 261.593 172.285 258.231L184.443 254.973C204.731 249.537 215.293 223.146 208.03 196.039C200.767 168.932 178.427 151.366 158.136 156.794L145.978 160.052C133.431 163.414 124.581 174.778 121.412 189.402C119.394 199.201 119.732 209.34 122.398 218.984C124.911 228.669 129.687 237.619 136.336 245.096Z" fill="#8CAED7"/>
<path d="M136.336 245.096C146.403 256.157 159.738 261.593 172.285 258.231L184.443 254.973C204.731 249.537 215.293 223.146 208.03 196.039C200.767 168.932 178.427 151.366 158.136 156.794L145.978 160.052C133.431 163.414 124.581 174.778 121.412 189.402C119.394 199.201 119.732 209.34 122.398 218.984C124.911 228.669 129.687 237.619 136.336 245.096Z" fill="url(#paint4_radial_416_540)"/>
<path d="M148.591 241.812C158.638 252.854 171.94 258.29 184.48 254.963C204.753 249.531 215.288 223.131 208.029 196.039C200.77 168.947 178.454 151.382 158.175 156.792C145.643 160.15 136.839 171.501 133.668 186.117C131.649 195.917 131.987 206.056 134.654 215.7C137.166 225.385 141.943 234.334 148.591 241.812Z" fill="url(#paint5_linear_416_540)"/>
<path d="M176.395 211.502C181.358 210.173 186.801 214.389 188.551 220.919C190.3 227.45 187.695 233.823 182.732 235.152C177.769 236.482 172.327 232.266 170.577 225.736C168.827 219.205 171.432 212.832 176.395 211.502Z" fill="white"/>
<path d="M166.257 173.667C171.221 172.337 176.663 176.553 178.413 183.084C180.163 189.614 177.558 195.987 172.594 197.317C167.631 198.647 162.189 194.43 160.439 187.9C158.689 181.369 161.294 174.997 166.257 173.667Z" fill="white"/>
<path fill-rule="evenodd" clip-rule="evenodd" d="M238.8 111.581C245.273 113.178 251.506 113.073 258.072 113.265C259.354 113.302 260.42 112.292 260.458 111.009C260.497 109.727 259.485 108.656 258.203 108.618C251.977 108.437 246.053 108.583 239.905 107.068C238.661 106.761 237.402 107.524 237.101 108.77C236.792 110.015 237.556 111.275 238.8 111.581Z" fill="#FFA319"/>
<path fill-rule="evenodd" clip-rule="evenodd" d="M226.257 125.142C236.129 135.974 248.827 146.18 261.649 153.313C262.769 153.935 264.183 153.53 264.801 152.409C265.419 151.287 265.017 149.871 263.897 149.249C251.5 142.351 239.218 132.48 229.679 122.006C228.814 121.06 227.346 120.994 226.404 121.859C225.462 122.725 225.392 124.196 226.257 125.142Z" fill="#FFA319"/>
<path fill-rule="evenodd" clip-rule="evenodd" d="M215.475 127.891C213.845 137.798 216.626 148.009 220.557 157.017C221.075 158.192 222.442 158.729 223.608 158.215C224.782 157.7 225.315 156.328 224.805 155.153C221.221 146.949 218.564 137.671 220.047 128.648C220.256 127.382 219.399 126.185 218.139 125.977C216.88 125.767 215.683 126.626 215.475 127.891Z" fill="#FFA319"/>
<path fill-rule="evenodd" clip-rule="evenodd" d="M43.9867 162.766C45.1742 162.34 46.4239 161.774 47.3876 160.954C48.5321 159.98 48.9976 158.725 49.3102 157.405C49.7115 155.708 49.8718 153.901 50.3584 152.202C50.5386 151.571 50.8854 151.332 51.0341 151.226C51.4102 150.959 51.7903 150.888 52.1479 150.914C52.5718 150.945 53.154 151.107 53.5368 151.822C53.5914 151.925 53.6624 152.081 53.7102 152.295C53.745 152.451 53.7675 152.941 53.8044 153.144C53.8965 153.641 53.9736 154.139 54.046 154.639C54.2869 156.305 54.4254 157.719 55.1864 159.25C56.219 161.327 57.2537 162.598 58.6569 163.161C60.0137 163.705 61.636 163.603 63.7087 163.176C63.906 163.128 64.1012 163.087 64.2943 163.053C65.2082 162.892 66.0818 163.496 66.2613 164.413C66.4408 165.33 65.86 166.222 64.9543 166.424C64.7653 166.466 64.5789 166.506 64.3947 166.542C61.5937 167.24 58.3511 169.733 56.4668 171.915C55.886 172.588 55.0356 174.47 54.1681 175.67C53.528 176.555 52.8086 177.139 52.2046 177.345C51.7999 177.484 51.4586 177.463 51.1768 177.393C50.7673 177.291 50.4274 177.067 50.1667 176.712C50.0247 176.517 49.893 176.257 49.8302 175.924C49.8002 175.764 49.7968 175.357 49.7974 175.173C49.6207 174.561 49.4043 173.962 49.2467 173.344C48.8706 171.87 48.1328 170.937 47.2565 169.703C46.4368 168.549 45.5564 167.824 44.2658 167.245C44.0979 167.204 42.7432 166.87 42.2648 166.678C41.5659 166.397 41.2328 165.926 41.112 165.673C40.9066 165.242 40.8854 164.866 40.9264 164.553C40.9871 164.09 41.1932 163.694 41.5591 163.375C41.7856 163.176 42.1242 162.983 42.5773 162.889C42.9275 162.815 43.8563 162.772 43.9867 162.766ZM51.9343 160.363C51.9971 160.504 52.064 160.646 52.135 160.789C53.6474 163.831 55.3386 165.53 57.3943 166.354L57.4632 166.381C56.088 167.409 54.8431 168.558 53.8917 169.66C53.5 170.114 52.9813 171.056 52.421 172.023C51.9118 170.356 51.0792 169.178 50.0322 167.703C49.2323 166.578 48.3942 165.731 47.3643 165.041C48.1635 164.628 48.9259 164.144 49.59 163.579C50.6956 162.638 51.4265 161.548 51.9343 160.363Z" fill="#FFA319"/>
<defs>
<radialGradient id="paint0_radial_416_540" cx="0" cy="0" r="1" gradientUnits="userSpaceOnUse" gradientTransform="translate(168.055 58.0717) rotate(156.407) scale(83.4389 63.9202)">
<stop stop-color="#50778E"/>
<stop offset="1" stop-color="#343E52"/>
</radialGradient>
<radialGradient id="paint1_radial_416_540" cx="0" cy="0" r="1" gradientUnits="userSpaceOnUse" gradientTransform="translate(117.997 129.084) rotate(-24.6136) scale(74.8993 63.9495)">
<stop stop-color="#50778E"/>
<stop offset="1" stop-color="#343E52"/>
</radialGradient>
<linearGradient id="paint2_linear_416_540" x1="102.142" y1="152.298" x2="143.655" y2="63.3042" gradientUnits="userSpaceOnUse">
<stop stop-color="#F9EBC4"/>
<stop offset="1" stop-color="#B7DBFD"/>
</linearGradient>
<radialGradient id="paint3_radial_416_540" cx="0" cy="0" r="1" gradientUnits="userSpaceOnUse" gradientTransform="translate(110.319 192.818) rotate(-6.50212) scale(84.5747 64.0944)">
<stop stop-color="#50778E"/>
<stop offset="1" stop-color="#343E52"/>
</radialGradient>
<radialGradient id="paint4_radial_416_540" cx="0" cy="0" r="1" gradientUnits="userSpaceOnUse" gradientTransform="translate(162.005 237.779) rotate(-24.6121) scale(75.9493 64.8365)">
<stop stop-color="#50778E"/>
<stop offset="1" stop-color="#343E52"/>
</radialGradient>
<linearGradient id="paint5_linear_416_540" x1="194.406" y1="193.376" x2="140.725" y2="221.235" gradientUnits="userSpaceOnUse">
<stop stop-color="#F9EBC4"/>
<stop offset="1" stop-color="#B7DBFD"/>
</linearGradient>
</defs>
</svg>
