<svg width="300" height="300" viewBox="0 0 300 300" fill="none" xmlns="http://www.w3.org/2000/svg">
<path d="M150 300C232.843 300 300 232.843 300 150C300 67.1573 232.843 0 150 0C67.1573 0 0 67.1573 0 150C0 232.843 67.1573 300 150 300Z" fill="white"/>
<path d="M220.102 19.0909H78.9008C73.6469 19.0909 68.6081 21.3207 64.893 25.2897C61.1779 29.2587 59.0908 34.6418 59.0908 40.2549V212.153H59.3329V272.518C59.3328 274.849 59.8917 277.141 60.9564 279.175C62.021 281.209 63.556 282.918 65.4146 284.139C67.2733 285.359 69.3938 286.05 71.5736 286.146C73.7534 286.242 75.9199 285.74 77.8663 284.687L142.997 249.414C144.772 248.463 146.729 247.968 148.714 247.968C150.7 247.968 152.657 248.463 154.432 249.414L221.566 284.946C223.513 285.977 225.675 286.459 227.846 286.348C230.018 286.236 232.126 285.535 233.972 284.309C235.818 283.083 237.341 281.374 238.396 279.343C239.451 277.313 240.003 275.028 240 272.706L239.824 212.153V40.1961C239.809 34.6095 237.728 29.2556 234.033 25.302C230.339 21.3484 225.331 19.1157 220.102 19.0909Z" fill="#E1DCEB"/>
<path d="M220.102 19.0909H78.9008C73.6469 19.0909 68.6081 21.3207 64.893 25.2897C61.1779 29.2587 59.0908 34.6418 59.0908 40.2549V212.153H59.3329V272.518C59.3328 274.849 59.8917 277.141 60.9564 279.175C62.021 281.209 63.556 282.918 65.4146 284.139C67.2733 285.359 69.3938 286.05 71.5736 286.146C73.7534 286.242 75.9199 285.74 77.8663 284.687L142.997 249.414C144.772 248.463 146.729 247.968 148.714 247.968C150.7 247.968 152.657 248.463 154.432 249.414L221.566 284.946C223.513 285.977 225.675 286.459 227.846 286.348C230.018 286.236 232.126 285.535 233.972 284.309C235.818 283.083 237.341 281.374 238.396 279.343C239.451 277.313 240.003 275.028 240 272.706L239.824 212.153V40.1961C239.809 34.6095 237.728 29.2556 234.033 25.302C230.339 21.3484 225.331 19.1157 220.102 19.0909Z" fill="url(#paint0_radial_416_563)"/>
<circle cx="149.546" cy="109.476" r="63.7684" fill="url(#paint1_linear_416_563)"/>
<path d="M152.853 73.3461L161.822 92.3541C162.088 92.9177 162.481 93.4052 162.967 93.7747C163.453 94.1443 164.017 94.3848 164.612 94.4756L184.659 97.4998C185.338 97.6086 185.975 97.9123 186.498 98.3772C187.022 98.8421 187.412 99.4499 187.625 100.133C187.837 100.816 187.865 101.547 187.704 102.246C187.543 102.944 187.2 103.582 186.712 104.088L172.226 118.88C171.796 119.318 171.473 119.86 171.288 120.458C171.102 121.056 171.059 121.693 171.162 122.312L174.588 143.198C174.706 143.912 174.63 144.646 174.369 145.318C174.108 145.989 173.673 146.57 173.112 146.996C172.552 147.422 171.889 147.675 171.198 147.727C170.507 147.779 169.816 147.627 169.203 147.29L151.272 137.407C150.74 137.115 150.147 136.962 149.546 136.962C148.945 136.962 148.353 137.115 147.82 137.407L129.889 147.29C129.277 147.625 128.586 147.775 127.897 147.723C127.207 147.67 126.545 147.417 125.985 146.991C125.426 146.565 124.991 145.985 124.731 145.315C124.47 144.644 124.394 143.911 124.51 143.198L127.93 122.312C128.033 121.693 127.99 121.056 127.804 120.458C127.619 119.86 127.297 119.318 126.866 118.88L112.38 104.088C111.893 103.582 111.55 102.944 111.389 102.246C111.228 101.547 111.255 100.816 111.468 100.133C111.681 99.4499 112.071 98.8421 112.594 98.3772C113.118 97.9123 113.754 97.6086 114.433 97.4998L134.481 94.4559C135.075 94.3651 135.64 94.1245 136.126 93.755C136.612 93.3854 137.005 92.8979 137.271 92.3344L146.24 73.3264C146.552 72.6889 147.026 72.1543 147.611 71.7816C148.196 71.4089 148.867 71.2128 149.552 71.2148C150.237 71.2168 150.907 71.417 151.49 71.7932C152.072 72.1694 152.544 72.7068 152.853 73.3461Z" fill="#EFC565"/>
<g filter="url(#filter0_f_416_563)">
<ellipse cx="149.147" cy="180.09" rx="57.8243" ry="12.3909" fill="#6B6B6B" fill-opacity="0.39"/>
</g>
<g style="mix-blend-mode:screen">
<path d="M99.8799 78.7958C99.0946 80.1933 98.3398 81.778 98.7059 83.3341C99.261 85.5904 102.021 86.6412 104.225 86.1281C106.43 85.6151 108.19 83.982 109.889 82.4358C120.831 72.6901 133.541 65.0417 147.238 60.0022C148.938 59.3791 150.71 58.7442 152.001 57.4568C153.292 56.1694 153.949 53.985 152.98 52.4117C151.956 50.7319 149.702 50.4835 147.789 50.4873C127.865 50.6938 109.772 61.2196 99.8799 78.7958Z" fill="url(#paint2_linear_416_563)"/>
</g>
<path fill-rule="evenodd" clip-rule="evenodd" d="M45.4584 203.218C41.6715 208.094 39.4143 213.409 36.7817 218.893C36.2677 219.964 36.7215 221.246 37.7919 221.761C38.863 222.276 40.1498 221.823 40.6645 220.752C43.1606 215.552 45.2661 210.484 48.8621 205.851C49.5897 204.914 49.4177 203.561 48.4769 202.838C47.5397 202.108 46.1853 202.281 45.4584 203.218Z" fill="#FFA319"/>
<path fill-rule="evenodd" clip-rule="evenodd" d="M38.6996 187.498C25.8187 191.775 12.4036 198.681 1.54207 206.847C0.594185 207.56 0.405128 208.909 1.12186 209.854C1.8386 210.799 3.18813 210.992 4.13602 210.278C14.6384 202.383 27.6127 195.705 40.0657 191.574C41.1924 191.198 41.8004 189.981 41.4227 188.858C41.045 187.734 39.8263 187.122 38.6996 187.498Z" fill="#FFA319"/>
<path fill-rule="evenodd" clip-rule="evenodd" d="M40.4355 177.341C32.6654 172.234 22.9779 170.744 13.8754 170.681C12.6862 170.677 11.718 171.632 11.7138 172.812C11.7073 173.999 12.6677 174.967 13.8541 174.978C22.1453 175.032 30.9969 176.275 38.0743 180.925C39.067 181.578 40.4025 181.303 41.0526 180.316C41.7034 179.329 41.4276 177.993 40.4355 177.341Z" fill="#FFA319"/>
<circle cx="260.454" cy="86.8182" r="6.81818" fill="#FFA319"/>
<circle cx="271.818" cy="116.364" r="3.63636" fill="#FFA319"/>
<defs>
<filter id="filter0_f_416_563" x="70.6317" y="147.009" width="157.03" height="66.163" filterUnits="userSpaceOnUse" color-interpolation-filters="sRGB">
<feFlood flood-opacity="0" result="BackgroundImageFix"/>
<feBlend mode="normal" in="SourceGraphic" in2="BackgroundImageFix" result="shape"/>
<feGaussianBlur stdDeviation="10.3453" result="effect1_foregroundBlur_416_563"/>
</filter>
<radialGradient id="paint0_radial_416_563" cx="0" cy="0" r="1" gradientUnits="userSpaceOnUse" gradientTransform="translate(127.237 78.0323) rotate(12.3108) scale(156.403 168.942)">
<stop stop-color="#50778E"/>
<stop offset="1" stop-color="#343E52"/>
</radialGradient>
<linearGradient id="paint1_linear_416_563" x1="105.606" y1="50.5279" x2="179.024" y2="167.575" gradientUnits="userSpaceOnUse">
<stop stop-color="#F9EBC4"/>
<stop offset="1" stop-color="#B7DBFD"/>
</linearGradient>
<linearGradient id="paint2_linear_416_563" x1="89.609" y1="39.7403" x2="149.842" y2="84.6471" gradientUnits="userSpaceOnUse">
<stop stop-color="#BABB98"/>
<stop offset="0.1539" stop-color="#9C9D7F"/>
<stop offset="0.7399" stop-color="#2C2D24"/>
<stop offset="1"/>
</linearGradient>
</defs>
</svg>
