<svg width="67" height="65" viewBox="0 0 67 65" fill="none" xmlns="http://www.w3.org/2000/svg">
<path fill-rule="evenodd" clip-rule="evenodd" d="M34.064 0.00117094C43.7487 0.0622854 53.5524 2.61515 59.8202 10.0957C66.3085 17.8393 68.3134 28.4081 66.1823 38.3336C64.0227 48.3913 57.8523 57.232 48.7277 61.757C39.5332 66.3167 28.7787 65.9301 19.5394 61.4644C10.2558 56.9773 3.09693 48.7569 0.809755 38.5963C-1.47698 28.4378 1.13924 17.6173 7.90231 9.76804C14.3326 2.30496 24.2863 -0.0605302 34.064 0.00117094Z" fill="#1975FF"/>
<g style="mix-blend-mode:screen">
<path d="M36.7067 3C37.8365 3 38.9938 3.05692 40.0409 3.5407C41.0605 4.02448 41.9423 5.0205 41.9974 6.18727C42.0525 7.3825 41.2258 8.49236 40.2338 9.08997C39.2418 9.68758 38.0569 9.91524 36.9272 10.1998C31.6089 11.4804 27.3929 13.1025 22.5431 15.6922C16.9769 18.6802 11.4107 21.6683 5.87202 24.6564C5.40358 24.9125 4.79735 25.1686 4.35647 24.8556C3.75024 24.4287 4.0258 23.4611 4.38402 22.8066C8.98581 14.2408 16.7014 8.03703 25.6294 4.90667C29.1565 3.68299 32.9316 3 36.7067 3Z" fill="url(#paint0_linear_901_474)"/>
</g>
<path d="M14.5942 26.9402L19.2453 51.026C19.466 52.1689 20.5586 52.9189 21.6856 52.7013L52.9513 46.6637C54.0783 46.446 54.813 45.3431 54.5923 44.2003L49.9412 20.1145M14.5942 26.9402L13.4084 20.7995C13.1877 19.6567 13.9224 18.5538 15.0494 18.3362L46.3151 12.2985C47.4421 12.0809 48.5347 12.8309 48.7554 13.9738L49.9412 20.1145M14.5942 26.9402L49.9412 20.1145M32.2196 19.1008L39.0797 17.7761M43.6647 15.5109L44.1928 18.2453M42.6826 17.0804L45.1606 16.6019M19.1616 21.6225C19.264 22.1531 18.9229 22.6651 18.3996 22.7662C17.8764 22.8672 17.3691 22.519 17.2667 21.9884C17.1642 21.4578 17.5053 20.9457 18.0286 20.8447C18.5518 20.7436 19.0591 21.0918 19.1616 21.6225ZM23.9717 20.6936C24.0741 21.2242 23.733 21.7362 23.2097 21.8373C22.6865 21.9383 22.1792 21.5901 22.0768 21.0595C21.9743 20.5289 22.3154 20.0168 22.8387 19.9158C23.362 19.8148 23.8692 20.163 23.9717 20.6936ZM28.7818 19.7647C28.8842 20.2953 28.5431 20.8074 28.0198 20.9084C27.4966 21.0095 26.9893 20.6612 26.8869 20.1306C26.7844 19.6 27.1255 19.088 27.6488 18.9869C28.1721 18.8859 28.6793 19.2341 28.7818 19.7647ZM35.9372 41.4499L29.6227 37.3002C28.9208 36.8389 28.4381 36.1226 28.281 35.3089C27.9538 33.6144 29.099 31.9684 30.839 31.6324C31.6746 31.471 32.5384 31.6395 33.2403 32.1008L34.2614 32.7718L34.9592 31.7689C35.4389 31.0794 36.1778 30.6014 37.0134 30.44C38.7534 30.104 40.4292 31.2053 40.7564 32.8998C40.9135 33.7135 40.7323 34.558 40.2526 35.2475L35.9372 41.4499Z" stroke="white" stroke-width="2" stroke-linecap="round" stroke-linejoin="round"/>
<defs>
<linearGradient id="paint0_linear_901_474" x1="14.3001" y1="1.34746" x2="26.9548" y2="20.0105" gradientUnits="userSpaceOnUse">
<stop stop-color="#BABB98"/>
<stop offset="0.1539" stop-color="#9C9D7F"/>
<stop offset="0.7399" stop-color="#2C2D24"/>
<stop offset="1"/>
</linearGradient>
</defs>
</svg>
