<svg width="35" height="33" viewBox="0 0 35 33" fill="none" xmlns="http://www.w3.org/2000/svg">
<path fill-rule="evenodd" clip-rule="evenodd" d="M17.7946 0.000594479C22.8538 0.0316218 27.9751 1.32769 31.2494 5.12549C34.6388 9.0569 35.6861 14.4225 34.5728 19.4617C33.4447 24.5679 30.2213 29.0562 25.4548 31.3535C20.6517 33.6684 15.0336 33.4722 10.2071 31.205C5.35749 28.9269 1.6178 24.7535 0.423006 19.5951C-0.771555 14.4376 0.595123 8.94418 4.12807 4.95916C7.48719 1.17021 12.6869 -0.0307307 17.7946 0.000594479Z" fill="#FFA319"/>
<path d="M25.6897 12.7241C26.0896 12.3433 26.105 11.7103 25.7241 11.3103C25.3433 10.9104 24.7103 10.895 24.3103 11.2759L25.6897 12.7241ZM14.5 22L13.8104 22.7241C14.1966 23.092 14.8035 23.092 15.1897 22.7241L14.5 22ZM10.6897 16.9901C10.2897 16.6092 9.65675 16.6247 9.27586 17.0246C8.89498 17.4245 8.91042 18.0575 9.31035 18.4384L10.6897 16.9901ZM24.3103 11.2759L13.8104 21.2759L15.1897 22.7241L25.6897 12.7241L24.3103 11.2759ZM9.31035 18.4384L13.8104 22.7241L15.1897 21.2759L10.6897 16.9901L9.31035 18.4384Z" fill="white"/>
</svg>
