<svg width="53" height="45" viewBox="0 0 53 45" fill="none" xmlns="http://www.w3.org/2000/svg">
<path fill-rule="evenodd" clip-rule="evenodd" d="M26.0266 1.9112C18.4773 2.18917 12.0984 6.85983 9.93146 13.6963C8.47114 18.3035 9.1313 23.3678 11.7465 27.6188C12.3376 28.5797 13.9688 30.4609 14.8658 31.2161C16.8559 32.8919 19.3361 34.2081 21.9317 34.9662C23.2321 35.346 25.7891 35.6579 27.1583 35.6038C28.1879 35.5632 29.8546 35.3212 30.811 35.0736C32.0627 34.7494 34.0683 34.002 35.0019 33.5116C35.1795 33.4183 35.2352 33.4673 35.7862 34.2015L36.3793 34.9918L38.9556 32.8793L41.5319 30.7669L41.3006 30.5316C41.1734 30.4023 40.8531 30.0814 40.5889 29.8185L40.1086 29.3407L40.5689 28.7248C41.1673 27.9241 42.0751 26.4001 42.4291 25.6023C42.7881 24.7928 43.2405 23.4842 43.46 22.6205C43.6253 21.9697 43.9353 18.6843 43.8415 18.5773C43.8021 18.5323 39.9072 20.9054 39.5003 21.2224C39.3801 21.3159 39.2343 21.6413 39.0841 22.1506C38.3455 24.6556 36.9929 26.6862 34.9396 28.3724C32.9125 30.0371 30.6697 30.9876 27.9926 31.3162C26.7843 31.4647 24.0669 31.2185 22.8604 30.8515C20.4115 30.1065 18.4678 28.8921 16.7987 27.0646C15.3341 25.461 14.3885 23.71 13.8738 21.6494C13.4855 20.0945 13.4258 19.0032 13.6323 17.2336C13.8656 15.234 14.313 13.9076 15.3074 12.2674C17.0704 9.35964 20.0559 7.25573 23.559 6.45257C27.1741 5.62372 30.9509 6.36282 34.0701 8.50949C36.2775 10.0286 37.699 11.8792 38.8316 14.708C39.3081 15.898 39.3733 16.0132 39.5147 15.9145C39.6007 15.8544 40.4231 15.3336 41.3425 14.7571C42.2619 14.1806 43.0164 13.68 43.0193 13.6448C43.0332 13.4751 42.0882 11.35 41.6956 10.6678C40.4024 8.42127 38.5964 6.4711 36.449 5.00246C34.9233 3.95911 33.1357 3.11997 31.2896 2.58072C30.3838 2.31613 29.9727 2.24842 28.2901 2.08684C27.2177 1.98394 26.1991 1.90493 26.0266 1.9112ZM49.5035 10.765C48.6521 11.2946 46.5153 12.6234 44.7551 13.7179C42.995 14.8123 39.9309 16.7179 37.946 17.9524C35.9612 19.1869 34.2895 20.2095 34.2313 20.2248C34.1672 20.2417 33.3083 18.165 32.0575 14.969C30.7813 11.7084 29.8959 9.56966 29.7451 9.38342C29.6107 9.21737 29.3369 9.01906 29.1366 8.94278C28.8225 8.82299 28.7148 8.82004 28.3531 8.92109C27.8774 9.05398 27.5704 9.38114 27.2943 10.0492C25.4157 14.5944 22.2856 22.0267 22.2287 22.0772C22.1874 22.1139 21.8573 21.464 21.4953 20.633C19.224 15.4189 19.3126 15.5751 18.558 15.452C17.9937 15.3598 17.8411 15.4326 15.7386 16.7969L14.3501 17.6979L14.3733 18.0161C14.3861 18.1911 14.4024 18.8701 14.4097 19.5248C14.4169 20.1796 14.4463 20.7173 14.4748 20.7196C14.5034 20.7219 15.2262 20.2758 16.081 19.7284C16.9358 19.1808 17.6551 18.7345 17.6795 18.7367C17.7039 18.7388 18.4136 20.3241 19.2567 22.2597C20.0997 24.1953 20.882 25.9412 20.995 26.1395C21.4559 26.9485 22.3146 27.2317 22.9415 26.7814C23.117 26.6554 23.3392 26.4109 23.4354 26.238C23.5317 26.0652 24.7411 23.2136 26.123 19.9013C27.5048 16.589 28.6524 13.8646 28.673 13.8471C28.6938 13.8296 28.8237 14.1127 28.962 14.4763C29.1002 14.8399 29.8788 16.8269 30.6922 18.8919C32.345 23.0881 32.5109 23.3958 33.1897 23.5261C33.4369 23.5735 33.7088 23.5645 33.9063 23.5023C34.1797 23.4161 50.1305 13.5632 50.7225 13.1148C50.9293 12.9581 50.9412 12.8988 51.062 11.4258C51.1308 10.5862 51.1567 9.87737 51.1194 9.85069C51.0821 9.82402 50.355 10.2354 49.5035 10.765ZM7.20824 22.2494C6.66293 22.6086 5.18935 23.5448 3.93353 24.3299L1.65031 25.7574L1.51344 27.4267C1.40504 28.7487 1.40105 29.0807 1.49424 29.0227C5.44557 26.5644 9.00762 24.2717 9.01487 24.182C9.02785 24.0227 8.34132 21.6484 8.27534 21.6241C8.23372 21.6087 7.75356 21.8901 7.20824 22.2494ZM39.185 33.3301L36.7578 35.3244L38.1277 36.9415C42.7062 42.3463 44.155 43.9793 44.6182 44.2573C45.2291 44.6238 46.1839 44.7741 46.9512 44.6244C48.4291 44.3362 49.3719 43.277 49.5027 41.7578C49.5896 40.7501 49.3862 40.2637 48.3633 39.0328C46.345 36.6042 41.8008 31.3512 41.7119 31.3439C41.657 31.3394 40.5198 32.2332 39.185 33.3301Z" fill="#34495E"/>
<path d="M44.6672 13.9878L49.4183 10.9157C50.2703 10.3647 50.9977 9.9365 51.0348 9.96401C51.072 9.99152 51.044 10.7255 50.9727 11.5952C50.8476 13.1208 50.8355 13.1823 50.6286 13.3451C50.0359 13.8113 34.0762 24.0623 33.8029 24.1524C33.6055 24.2174 33.3339 24.2276 33.0872 24.1792C32.4096 24.0463 32.245 23.7282 30.607 19.3881C29.801 17.2524 29.0295 15.1972 28.8926 14.8211C28.7556 14.445 28.6266 14.1522 28.6059 14.1704C28.5852 14.1886 27.4309 17.0132 26.0408 20.4473C24.6506 23.8813 23.4342 26.8377 23.3375 27.017C23.2408 27.1963 23.0182 27.4502 22.8426 27.5812C22.2151 28.0494 21.3584 27.7587 20.9006 26.9224C20.7883 26.7174 20.0124 24.9119 19.1764 22.9102C18.3403 20.9085 17.6363 19.269 17.612 19.267C17.5876 19.2648 16.8679 19.7291 16.0125 20.2987C15.1572 20.8682 14.434 21.3323 14.4055 21.33C14.3769 21.3276 14.3493 20.771 14.344 20.093C14.3388 19.415 14.3245 18.712 14.3123 18.5309L14.2901 18.2015L15.6795 17.2642C17.7834 15.8451 17.9359 15.7693 18.4992 15.863C19.2525 15.9882 19.1645 15.8267 21.4169 21.2189C21.776 22.0784 22.1037 22.7504 22.1451 22.7122C22.202 22.6598 25.3506 14.9542 27.2405 10.242C27.5183 9.54934 27.8259 9.20963 28.3013 9.07058C28.6628 8.96484 28.7704 8.96758 29.0837 9.09066C29.2835 9.16904 29.5563 9.37356 29.6901 9.54509C29.8402 9.73748 30.7179 11.9495 31.9824 15.3218C33.222 18.6275 34.0734 20.7753 34.1374 20.7576C34.1956 20.7416 35.8682 19.6776 37.8542 18.3933C39.8402 17.1089 42.906 15.1264 44.6672 13.9878Z" fill="#1975FF"/>
<path d="M3.86706 25.1005C5.12361 24.2837 6.59809 23.3097 7.14378 22.9361C7.68947 22.5625 8.16985 22.2696 8.21137 22.2854C8.2772 22.3103 8.95561 24.7669 8.94216 24.9319C8.93464 25.0247 5.37031 27.4096 1.41671 29.9672C1.32347 30.0275 1.32847 29.6837 1.44074 28.3144L1.5825 26.5856L3.86706 25.1005Z" fill="#1975FF"/>
</svg>
