<svg width="580" height="363" viewBox="0 0 580 363" fill="none" xmlns="http://www.w3.org/2000/svg">
<g filter="url(#filter0_f_416_740)">
<path d="M316.734 316.457C255.705 316.457 209.507 315.302 209.507 322.23C209.507 329.157 221.785 329.927 221.785 333.391C221.785 333.391 180.04 324.924 173.491 333.391C166.943 341.858 242.248 342.628 242.248 342.628H316.734C327.375 342.628 467.343 345.707 467.343 334.161C467.343 322.615 416.594 330.697 416.594 330.697C421.871 329.708 421.915 320.285 421.915 319.151C421.915 314.475 377.762 316.457 316.734 316.457Z" fill="#AFB8C9"/>
</g>
<path d="M25.5075 72.2851C22.1353 53.5436 20.0455 34.3762 19.333 15.2088L27.3599 14.9249C27.6924 24.2483 28.4048 33.5717 29.4022 42.8951L42.5112 42.1852C41.8463 33.2877 41.5613 24.3902 41.5613 15.4928H49.5882C49.5882 32.4831 50.8231 49.6155 53.1979 66.4165L45.266 67.5524C44.4586 61.7785 43.7461 55.9573 43.1762 50.1361L30.3522 50.846C31.2071 57.5664 32.252 64.2868 33.4394 70.9126L25.5075 72.2851ZM62.0797 63.8135H58.185L58.09 59.9327C57.9476 54.9634 57.6151 50.0414 57.2351 44.8828C56.6651 36.9792 56.0952 28.839 56.2377 20.0835L56.3327 15.7767L60.6073 16.2027C67.3043 16.8179 74.7613 17.1492 80.6033 17.0546L80.7458 25.0528C75.8537 25.1475 69.9166 24.9582 64.1696 24.5322C64.2171 28.6023 64.3596 32.5305 64.597 36.4113L78.6085 35.7014L78.9884 43.6996L65.1195 44.4095C65.4045 48.3376 65.6895 52.0765 65.8319 55.8153C72.5764 55.5787 79.2734 54.8214 83.0256 54.3482L84.0705 62.2518C79.5109 62.7724 70.4866 63.8135 62.0797 63.8135ZM92.4774 62.6304C92.2874 62.6304 92.0974 62.6304 91.9074 62.6304L88.1552 62.583L85.4005 16.2027L93.3798 15.7294L95.7072 54.5375C97.987 54.3955 100.267 54.2062 102.737 53.9222L103.687 53.8276L104.494 61.7785L103.544 61.8731C99.8393 62.2991 96.3721 62.6304 92.4774 62.6304ZM108.911 61.1159V56.9511C108.911 43.2737 107.961 29.4069 106.156 15.8241L114.088 14.7829C115.798 27.3245 116.701 40.0554 116.891 52.6917C117.46 52.6444 118.03 52.5971 118.648 52.5497C120.69 52.3604 122.78 52.1711 124.917 52.1238L125.25 60.122C123.303 60.2167 121.403 60.3587 119.36 60.548C117.318 60.7373 115.228 60.9266 113.091 60.9739L108.911 61.1159ZM128.717 59.8381L128.575 55.5313C128.195 42.8951 127.292 30.1168 125.962 17.5752L125.487 13.3631L129.762 13.1738C135.937 12.8898 141.494 13.0791 146.813 13.7417L149.901 14.1203L150.28 17.1965C151.848 29.7382 153.273 42.0905 153.415 54.8214L153.463 58.9862L149.283 58.8442C143.061 58.6549 138.074 58.8442 133.039 59.3648L128.717 59.8381ZM134.417 21.03C135.414 31.016 136.079 41.0966 136.459 51.0826C139.261 50.8933 142.206 50.7987 145.341 50.7987C145.008 40.9547 143.963 31.2053 142.729 21.314C140.069 21.0774 137.314 20.9827 134.417 21.03ZM166.619 59.7908L158.64 58.8442C158.972 56.0046 159.21 53.1177 159.352 50.2307L167.379 50.562C167.189 53.6856 166.952 56.7618 166.619 59.7908ZM159.447 44.0782C159.352 33.7136 157.88 23.3964 155.125 13.3157L162.867 11.186C165.812 21.8819 167.379 32.9564 167.474 43.9836L159.447 44.0782Z" fill="#FFA319"/>
<path d="M164.128 125.979C164.172 126.859 163.398 127.486 162.542 127.281C154.13 125.265 146.424 120.555 140.828 113.976C135.235 107.352 131.859 98.9092 131.326 90.2588C131.274 89.4184 131.936 88.6936 132.776 88.6319C133.748 88.5605 134.56 89.3275 134.606 90.3008C134.979 98.1086 137.956 106.271 142.915 112.204C147.984 118.309 155.084 122.667 162.846 124.393C163.572 124.554 164.091 125.236 164.128 125.979Z" fill="#FFA319"/>
<path fill-rule="evenodd" clip-rule="evenodd" d="M523.253 200.97C527.981 204.08 533.205 205.254 539.029 204.409C539.716 204.309 540.327 204.776 540.389 205.454C540.455 206.128 539.948 206.758 539.261 206.858C532.814 207.792 527.027 206.498 521.792 203.054C521.23 202.687 521.106 201.918 521.507 201.344C521.912 200.767 522.695 200.599 523.253 200.97Z" fill="#FFA319" stroke="#FFA319" stroke-width="0.5"/>
<path fill-rule="evenodd" clip-rule="evenodd" d="M483.632 243.19C482.163 242.969 480.719 242.617 479.329 242.121C478.71 241.9 477.489 241.353 476.763 240.618C475.987 239.838 475.702 238.875 476.173 237.855C476.799 236.501 477.67 235.87 478.557 235.644C479.411 235.426 480.361 235.597 481.293 236.109C483.075 237.087 484.826 239.385 485.571 240.907C487.046 241.03 488.537 241.015 490.026 240.867C501.113 239.764 510.123 229.36 512.27 215.555C513.02 210.722 510.033 204.34 506.052 198.079C499.854 188.33 491.077 178.972 488.602 176.151C487.993 175.452 487.714 174.97 487.683 174.853C487.525 174.283 487.763 173.905 487.958 173.675C488.243 173.346 488.556 173.187 488.855 173.116C489.261 173.022 489.706 173.079 490.138 173.377C490.374 173.543 490.637 173.83 490.893 174.155C491.067 174.383 491.22 174.664 491.398 174.784C492.544 175.546 493.734 176.232 494.921 176.932C498.904 179.292 503.067 181.148 507.4 182.857C521.169 188.288 535.223 194.435 550.561 194.572C551.249 194.578 551.776 195.136 551.731 195.821C551.69 196.502 551.096 197.051 550.404 197.048C534.761 196.91 520.411 190.702 506.368 185.164C502.683 183.71 499.116 182.151 495.676 180.28C499.881 185.142 505.499 192.037 509.55 198.897C513.153 204.997 515.47 211.105 514.741 215.803C512.39 230.926 502.285 242.125 490.143 243.33C488.844 243.458 487.538 243.498 486.244 243.44C487.924 253.804 481.484 263.829 470.99 266.87C470.317 267.066 469.643 266.691 469.481 266.037C469.323 265.38 469.736 264.691 470.409 264.495C479.865 261.755 485.551 252.542 483.632 243.19ZM482.272 240.378C481.6 240.215 480.939 240.016 480.285 239.786C479.937 239.661 479.295 239.397 478.807 239.023C478.694 238.934 478.55 238.768 478.485 238.689C478.653 238.338 478.815 238.101 479.057 238.04C479.357 237.963 479.665 238.111 479.991 238.29C480.812 238.738 481.632 239.554 482.272 240.378Z" fill="#FFA319" stroke="#FFA319" stroke-width="0.5"/>
<circle cx="488.134" cy="105.281" r="5.00696" fill="#1975FF"/>
<path fill-rule="evenodd" clip-rule="evenodd" d="M116.455 271.078C117.789 270.608 119.192 269.983 120.274 269.079C121.559 268.005 122.081 266.621 122.432 265.165C122.883 263.293 123.063 261.3 123.609 259.426C123.812 258.73 124.201 258.467 124.368 258.35C124.79 258.055 125.217 257.976 125.619 258.006C126.094 258.04 126.748 258.218 127.178 259.007C127.239 259.12 127.319 259.292 127.373 259.528C127.412 259.701 127.437 260.242 127.478 260.465C127.582 261.013 127.668 261.562 127.75 262.114C128.02 263.951 128.176 265.512 129.03 267.199C130.189 269.491 131.351 270.893 132.927 271.513C134.45 272.114 136.272 272.001 138.599 271.53C138.82 271.477 139.039 271.432 139.256 271.394C140.282 271.217 141.263 271.884 141.465 272.895C141.666 273.906 141.014 274.89 139.997 275.113C139.785 275.159 139.576 275.203 139.369 275.243C136.224 276.013 132.583 278.762 130.468 281.17C129.816 281.912 128.861 283.987 127.887 285.311C127.168 286.287 126.36 286.931 125.682 287.159C125.228 287.312 124.845 287.288 124.528 287.211C124.068 287.099 123.687 286.852 123.394 286.46C123.235 286.246 123.087 285.958 123.016 285.591C122.983 285.415 122.979 284.966 122.98 284.763C122.781 284.087 122.538 283.428 122.361 282.746C121.939 281.12 121.111 280.09 120.127 278.73C119.206 277.457 118.218 276.657 116.769 276.019C116.58 275.973 115.059 275.605 114.522 275.393C113.737 275.083 113.363 274.564 113.228 274.284C112.997 273.809 112.973 273.395 113.019 273.049C113.088 272.539 113.319 272.102 113.73 271.749C113.984 271.53 114.364 271.317 114.873 271.213C115.266 271.132 116.309 271.085 116.455 271.078ZM125.379 268.428C125.449 268.583 125.524 268.739 125.604 268.897C127.302 272.253 129.201 274.126 131.509 275.035L131.586 275.065C130.042 276.199 128.645 277.467 127.576 278.682C127.137 279.182 126.554 280.222 125.925 281.288C125.353 279.449 124.419 278.15 123.243 276.524C122.345 275.282 121.404 274.348 120.248 273.587C121.145 273.131 122.001 272.598 122.747 271.974C123.988 270.937 124.809 269.734 125.379 268.428Z" fill="#1975FF" stroke="white" stroke-width="1.5"/>
<path d="M454.863 289.726C447.057 275.403 438.961 264.554 434.913 260.214C430.056 255.006 421.484 251.618 418.433 255.006C415.657 257.089 414.963 263.686 414.963 266.724C420.746 274.247 433.525 291.636 438.383 301.01C444.455 312.728 444.936 324.446 447.057 329.22C449.177 333.994 454.863 334.862 459.2 334.428C463.537 333.994 466.573 329.654 466.573 322.71C466.573 317.068 464.353 307.136 454.863 289.726Z" fill="url(#paint0_radial_416_740)"/>
<path d="M454.863 289.726C447.057 275.403 438.961 264.554 434.913 260.214C430.056 255.006 421.484 251.618 418.433 255.006C415.657 257.089 414.963 263.686 414.963 266.724C420.746 274.247 433.525 291.636 438.383 301.01C444.455 312.728 444.936 324.446 447.057 329.22C449.177 333.994 454.863 334.862 459.2 334.428C463.537 333.994 466.573 329.654 466.573 322.71C466.573 317.068 464.353 307.136 454.863 289.726Z" fill="url(#paint1_linear_416_740)"/>
<path d="M178.16 289.686C186.414 275.645 194.846 265.079 199.028 260.878C204.045 255.837 212.713 252.731 215.652 256.21C218.356 258.378 218.838 264.983 218.74 268.014C212.725 275.335 199.406 292.277 194.254 301.475C187.815 312.973 186.958 324.651 184.688 329.346C182.418 334.042 176.712 334.726 172.395 334.154C168.078 333.581 165.186 329.153 165.409 322.224C165.59 316.594 168.125 306.754 178.16 289.686Z" fill="url(#paint2_radial_416_740)"/>
<path d="M178.16 289.686C186.414 275.645 194.846 265.079 199.028 260.878C204.045 255.837 212.713 252.731 215.652 256.21C218.356 258.378 218.838 264.983 218.74 268.014C212.725 275.335 199.406 292.277 194.254 301.475C187.815 312.973 186.958 324.651 184.688 329.346C182.418 334.042 176.712 334.726 172.395 334.154C168.078 333.581 165.186 329.153 165.409 322.224C165.59 316.594 168.125 306.754 178.16 289.686Z" fill="url(#paint3_linear_416_740)"/>
<path d="M223.223 279.287C231.478 265.246 239.91 254.679 244.091 250.479C249.109 245.438 257.777 242.332 260.715 245.811C263.42 247.979 263.901 254.584 263.804 257.615C257.788 264.936 244.469 281.878 239.318 291.076C232.879 302.574 232.022 314.251 229.751 318.947C227.481 323.643 221.775 324.327 217.458 323.755C213.142 323.182 210.249 318.754 210.472 311.825C210.653 306.195 213.189 296.355 223.223 279.287Z" fill="url(#paint4_radial_416_740)"/>
<path d="M406.213 279.287C397.959 265.246 389.527 254.679 385.345 250.479C380.328 245.438 371.66 242.332 368.722 245.811C366.017 247.979 365.535 254.584 365.633 257.615C371.648 264.936 384.968 281.878 390.119 291.076C396.558 302.574 397.415 314.251 399.685 318.947C401.955 323.643 407.661 324.327 411.978 323.755C416.295 323.182 419.187 318.754 418.965 311.825C418.784 306.195 416.248 296.355 406.213 279.287Z" fill="url(#paint5_radial_416_740)"/>
<path d="M165.974 240.278C180.577 246.493 193.305 249.884 199.015 250.751C205.867 251.792 214.456 249.202 214.742 244.774C215.604 241.508 212.154 236.056 210.321 233.737C201.366 231.489 181.115 225.937 171.749 221.717C160.042 216.441 152.604 207.791 148.104 205.429C143.604 203.066 138.739 205.837 135.689 208.787C132.639 211.737 132.94 216.882 137.13 222.18C140.534 226.486 148.223 232.724 165.974 240.278Z" fill="url(#paint6_radial_416_740)"/>
<path d="M165.974 240.278C180.577 246.493 193.305 249.884 199.015 250.751C205.867 251.792 214.456 249.202 214.742 244.774C215.604 241.508 212.154 236.056 210.321 233.737C201.366 231.489 181.115 225.937 171.749 221.717C160.042 216.441 152.604 207.791 148.104 205.429C143.604 203.066 138.739 205.837 135.689 208.787C132.639 211.737 132.94 216.882 137.13 222.18C140.534 226.486 148.223 232.724 165.974 240.278Z" fill="url(#paint7_linear_416_740)"/>
<path d="M157.593 205.31C170.597 214.409 182.349 220.357 187.756 222.386C194.245 224.821 203.184 224.062 204.379 219.788C205.898 216.772 203.649 210.723 202.334 208.076C194.038 204.025 175.372 194.408 167.081 188.343C156.717 180.762 151.227 170.761 147.313 167.519C143.398 164.278 138.065 165.983 134.471 168.239C130.877 170.495 130.108 175.591 133.113 181.641C135.554 186.557 141.787 194.249 157.593 205.31Z" fill="url(#paint8_radial_416_740)"/>
<path d="M157.593 205.31C170.597 214.409 182.349 220.357 187.756 222.386C194.245 224.821 203.184 224.062 204.379 219.788C205.898 216.772 203.649 210.723 202.334 208.076C194.038 204.025 175.372 194.408 167.081 188.343C156.717 180.762 151.227 170.761 147.313 167.519C143.398 164.278 138.065 165.983 134.471 168.239C130.877 170.495 130.108 175.591 133.113 181.641C135.554 186.557 141.787 194.249 157.593 205.31Z" fill="url(#paint9_linear_416_740)"/>
<path d="M213.349 277.343C222.358 285.658 246.697 293.367 256.658 295.965C270.517 299.581 314.276 300.585 330.284 299.863C360.5 298.5 398.574 289.491 414.737 279.508C429.462 270.414 437.257 247.46 437.257 232.303L437.257 173.837C437.546 147.852 436.564 94.3236 430.328 77.6933C422.532 56.9055 401.891 36.9219 385.72 27.4559C367.963 17.062 326.386 5.80208 291.739 13.5975C257.091 21.3929 226.775 46.9445 212.916 75.5278C199.057 104.111 194.726 172.104 194.726 191.16C194.726 210.215 192.837 234.468 194.726 244.862C197.167 258.287 202.089 266.949 213.349 277.343Z" fill="url(#paint10_radial_416_740)"/>
<path d="M213.349 277.343C222.358 285.658 246.697 293.367 256.658 295.965C270.517 299.581 314.276 300.585 330.284 299.863C360.5 298.5 398.574 289.491 414.737 279.508C429.462 270.414 437.257 247.46 437.257 232.303L437.257 173.837C437.546 147.852 436.564 94.3236 430.328 77.6933C422.532 56.9055 401.891 36.9219 385.72 27.4559C367.963 17.062 326.386 5.80208 291.739 13.5975C257.091 21.3929 226.775 46.9445 212.916 75.5278C199.057 104.111 194.726 172.104 194.726 191.16C194.726 210.215 192.837 234.468 194.726 244.862C197.167 258.287 202.089 266.949 213.349 277.343Z" fill="url(#paint11_linear_416_740)" fill-opacity="0.2"/>
<path d="M213.349 277.343C222.358 285.658 246.697 293.367 256.658 295.965C270.517 299.581 314.276 300.585 330.284 299.863C360.5 298.5 398.574 289.491 414.737 279.508C429.462 270.414 437.257 247.46 437.257 232.303L437.257 173.837C437.546 147.852 436.564 94.3236 430.328 77.6933C422.532 56.9055 401.891 36.9219 385.72 27.4559C367.963 17.062 326.386 5.80208 291.739 13.5975C257.091 21.3929 226.775 46.9445 212.916 75.5278C199.057 104.111 194.726 172.104 194.726 191.16C194.726 210.215 192.837 234.468 194.726 244.862C197.167 258.287 202.089 266.949 213.349 277.343Z" fill="url(#paint12_linear_416_740)" fill-opacity="0.4"/>
<g filter="url(#filter1_ii_416_740)">
<path d="M312.058 221.582C312.891 221.186 313.784 222.014 313.417 222.859C307.269 237 297.311 249.874 285.214 259.345C284.838 259.639 284.306 259.623 283.954 259.301C276.655 252.639 270.613 242.449 265.805 233.624C265.442 232.959 265.926 232.15 266.683 232.139C282.411 231.905 297.978 228.281 312.058 221.582Z" fill="#6E91AE"/>
</g>
<g style="mix-blend-mode:screen">
<path d="M315.226 21.355C318.312 21.355 321.473 21.5128 324.333 22.8545C327.118 24.1962 329.526 26.9586 329.677 30.1945C329.827 33.5093 327.57 36.5873 324.86 38.2447C322.151 39.9021 318.914 40.5335 315.829 41.3227C301.303 44.8743 289.788 49.373 276.541 56.555C261.338 64.842 246.135 73.1291 231.008 81.4161C229.728 82.1264 228.072 82.8367 226.868 81.9685C225.212 80.7847 225.965 78.1013 226.943 76.286C239.512 52.5299 260.586 35.3245 284.971 26.6429C294.604 23.2492 304.915 21.355 315.226 21.355Z" fill="url(#paint13_linear_416_740)"/>
</g>
<path d="M255.096 132.029C260.967 132.719 268.191 137.776 269.342 140.218C270.724 141.873 272.508 155.274 273.228 161.767C272.652 168.519 270.724 184.437 267.615 194.091C264.507 203.745 254.52 208.17 249.915 209.176C240.562 210.181 220.041 211.589 212.788 209.176C205.536 206.762 197.679 196.964 194.657 192.367V178.145L199.406 134.615C204.874 133.466 218.142 131.167 227.467 131.167C239.123 131.167 247.757 131.167 255.096 132.029Z" fill="url(#paint14_radial_416_740)"/>
<path d="M255.096 132.029C260.967 132.719 268.191 137.776 269.342 140.218C270.724 141.873 272.508 155.274 273.228 161.767C272.652 168.519 270.724 184.437 267.615 194.091C264.507 203.745 254.52 208.17 249.915 209.176C240.562 210.181 220.041 211.589 212.788 209.176C205.536 206.762 197.679 196.964 194.657 192.367V178.145L199.406 134.615C204.874 133.466 218.142 131.167 227.467 131.167C239.123 131.167 247.757 131.167 255.096 132.029Z" fill="url(#paint15_diamond_416_740)" fill-opacity="0.4"/>
<path d="M255.096 132.029C260.967 132.719 268.191 137.776 269.342 140.218C270.724 141.873 272.508 155.274 273.228 161.767C272.652 168.519 270.724 184.437 267.615 194.091C264.507 203.745 254.52 208.17 249.915 209.176C240.562 210.181 220.041 211.589 212.788 209.176C205.536 206.762 197.679 196.964 194.657 192.367V178.145L199.406 134.615C204.874 133.466 218.142 131.167 227.467 131.167C239.123 131.167 247.757 131.167 255.096 132.029Z" fill="url(#paint16_diamond_416_740)" fill-opacity="0.4"/>
<path d="M255.096 132.029C260.967 132.719 268.191 137.776 269.342 140.218C270.724 141.873 272.508 155.274 273.228 161.767C272.652 168.519 270.724 184.437 267.615 194.091C264.507 203.745 254.52 208.17 249.915 209.176C240.562 210.181 220.041 211.589 212.788 209.176C205.536 206.762 197.679 196.964 194.657 192.367V178.145L199.406 134.615C204.874 133.466 218.142 131.167 227.467 131.167C239.123 131.167 247.757 131.167 255.096 132.029Z" fill="url(#paint17_diamond_416_740)" fill-opacity="0.4"/>
<path d="M358.185 134.677C365.468 135.714 369.89 140.581 371.19 142.885C372.78 144.613 376.046 149.451 376.392 154.98C376.826 161.892 374.658 181.332 371.19 192.131C367.722 202.931 362.087 208.115 350.816 211.139C339.545 214.163 328.274 212.435 317.87 211.139C307.467 209.843 298.363 203.363 293.161 194.723C287.959 186.084 287.092 177.18 287.092 163.188C287.092 152.388 288.826 143.317 293.161 138.133C297.496 132.949 312.235 130.789 325.673 131.221C339.112 131.653 349.082 133.381 358.185 134.677Z" fill="url(#paint18_radial_416_740)"/>
<path d="M358.185 134.677C365.468 135.714 369.89 140.581 371.19 142.885C372.78 144.613 376.046 149.451 376.392 154.98C376.826 161.892 374.658 181.332 371.19 192.131C367.722 202.931 362.087 208.115 350.816 211.139C339.545 214.163 328.274 212.435 317.87 211.139C307.467 209.843 298.363 203.363 293.161 194.723C287.959 186.084 287.092 177.18 287.092 163.188C287.092 152.388 288.826 143.317 293.161 138.133C297.496 132.949 312.235 130.789 325.673 131.221C339.112 131.653 349.082 133.381 358.185 134.677Z" fill="url(#paint19_diamond_416_740)" fill-opacity="0.4"/>
<path d="M358.185 134.677C365.468 135.714 369.89 140.581 371.19 142.885C372.78 144.613 376.046 149.451 376.392 154.98C376.826 161.892 374.658 181.332 371.19 192.131C367.722 202.931 362.087 208.115 350.816 211.139C339.545 214.163 328.274 212.435 317.87 211.139C307.467 209.843 298.363 203.363 293.161 194.723C287.959 186.084 287.092 177.18 287.092 163.188C287.092 152.388 288.826 143.317 293.161 138.133C297.496 132.949 312.235 130.789 325.673 131.221C339.112 131.653 349.082 133.381 358.185 134.677Z" fill="url(#paint20_diamond_416_740)" fill-opacity="0.4"/>
<path d="M358.185 134.677C365.468 135.714 369.89 140.581 371.19 142.885C372.78 144.613 376.046 149.451 376.392 154.98C376.826 161.892 374.658 181.332 371.19 192.131C367.722 202.931 362.087 208.115 350.816 211.139C339.545 214.163 328.274 212.435 317.87 211.139C307.467 209.843 298.363 203.363 293.161 194.723C287.959 186.084 287.092 177.18 287.092 163.188C287.092 152.388 288.826 143.317 293.161 138.133C297.496 132.949 312.235 130.789 325.673 131.221C339.112 131.653 349.082 133.381 358.185 134.677Z" fill="url(#paint21_diamond_416_740)" fill-opacity="0.4"/>
<g filter="url(#filter2_i_416_740)">
<path fill-rule="evenodd" clip-rule="evenodd" d="M373.2 139.638H438.071V143.968L399.581 144.834L394.392 146.566C389.346 150.03 379.168 157.738 378.822 160.856C378.39 164.753 374.93 187.271 371.47 196.798C368.011 206.324 361.524 211.088 352.442 212.82C346.04 214.041 335.126 213.54 326.364 213.139C322.695 212.97 319.404 212.82 316.979 212.82C308.762 212.82 302.275 209.355 297.518 205.458C292.76 201.561 285.841 189.003 284.111 182.508C282.381 176.012 281.949 158.258 282.381 151.33C282.727 145.787 283.246 143.535 283.678 143.102C282.525 142.813 279.44 142.236 278.056 142.236C276.672 142.236 273.732 142.813 272.434 143.102C273.299 144.69 275.029 149.338 275.029 155.227C275.029 162.588 274.596 177.311 272.867 187.271C271.137 197.231 264.65 204.592 259.027 208.489C254.53 211.607 247.927 212.675 245.188 212.82H221.402C217.222 213.397 209.39 213.339 203.509 208.489C198.022 203.966 196.148 197.995 193.933 190.938C193.18 188.537 192.591 188.265 191.399 183.374C189.237 174.5 187.372 164.5 187.372 159.124C186.417 159.124 185.642 158.349 185.642 157.392L186.642 145.7C186.642 144.744 187.417 143.968 188.372 143.968H189.237C190.102 142.092 192.524 137.732 195.292 135.307C198.751 132.276 209.293 127.513 229.619 127.513C249.945 127.513 259.892 130.544 264.65 133.142C267.632 134.771 269.216 137.393 270.316 139.215C270.62 139.718 270.887 140.16 271.137 140.504C272.29 140.215 276.759 139.638 278.489 139.638C280.219 139.638 283.246 140.215 284.543 140.504C285.12 139.205 288.09 135.221 291.895 133.142C296.653 130.544 309.627 128.379 318.276 127.513C326.926 126.647 347.252 128.812 357.199 130.544C365.156 131.93 371.182 137.184 373.2 139.638ZM364.983 137.04C368.504 139.209 369.445 141.29 370.606 143.857C370.872 144.444 371.149 145.056 371.47 145.7C373.2 149.164 374.065 155.054 374.065 157.825C374.065 161.289 374.065 164.32 372.335 174.713C370.605 185.106 369.308 190.302 364.983 198.963C361.524 205.891 354.892 209.067 352.009 209.788C346.579 211.148 337.154 210.907 330.631 210.74C328.842 210.695 327.271 210.654 326.061 210.654C325.465 210.654 324.829 210.665 324.158 210.676C318.497 210.772 310.317 210.909 302.275 205.025C291.765 197.335 288.811 185.861 286.705 177.677C286.557 177.105 286.414 176.549 286.273 176.012C284.111 167.785 284.543 151.33 286.273 144.834C288.003 138.339 293.193 135.74 297.95 134.441C302.707 133.142 311.789 131.843 317.844 131.41C323.898 130.977 337.305 130.977 348.117 132.276C356.766 133.316 361.956 135.174 364.983 137.04ZM193.42 142.74C194.534 140.285 195.437 138.296 198.815 136.222C201.719 134.438 206.022 132.837 214.32 131.843C224.693 130.601 231.163 130.13 236.971 130.544C242.78 130.958 252.776 131.924 257.34 133.166C261.904 134.408 266.882 136.892 268.542 143.102C270.202 149.311 272.002 160.423 270.597 173.865C269.752 181.956 268.127 196.726 257.34 204.592C249.624 210.218 241.776 210.086 236.345 209.995C235.702 209.984 235.092 209.974 234.52 209.974C234.108 209.974 233.636 209.975 233.112 209.976C226.769 209.989 214.83 210.019 208.698 208.489C205.932 207.799 202.134 201.689 198.815 195.065C195.2 187.852 194.42 183 193.181 175.3C192.998 174.162 192.805 172.961 192.591 171.682C190.932 161.746 190.534 157.673 190.534 154.361C190.534 151.711 190.932 147.813 192.591 144.501C192.9 143.885 193.165 143.3 193.42 142.74Z" fill="#262939"/>
</g>
<path d="M416.286 207.267C415.421 213.29 426.238 218.453 426.238 218.453C426.238 218.453 432.295 222.756 435.324 226.197C438.352 229.639 437.919 237.814 433.16 244.268C428.401 250.721 408.931 256.314 397.249 256.314C385.567 256.314 367.395 252.442 361.77 252.012C356.145 251.581 352.684 253.733 350.521 256.314C348.357 258.895 347.059 265.349 353.117 269.221C359.174 273.093 378.644 273.954 386.432 274.384C394.22 274.814 418.017 272.921 430.564 267.93C443.112 262.94 453.928 250.721 456.092 239.105C458.255 227.488 452.63 212.614 444.842 206.407C437.054 200.199 430.564 197.802 426.238 198.232C421.911 198.662 417.152 201.244 416.286 207.267Z" fill="url(#paint22_radial_416_740)"/>
<path d="M416.286 207.267C415.421 213.29 426.238 218.453 426.238 218.453C426.238 218.453 432.295 222.756 435.324 226.197C438.352 229.639 437.919 237.814 433.16 244.268C428.401 250.721 408.931 256.314 397.249 256.314C385.567 256.314 367.395 252.442 361.77 252.012C356.145 251.581 352.684 253.733 350.521 256.314C348.357 258.895 347.059 265.349 353.117 269.221C359.174 273.093 378.644 273.954 386.432 274.384C394.22 274.814 418.017 272.921 430.564 267.93C443.112 262.94 453.928 250.721 456.092 239.105C458.255 227.488 452.63 212.614 444.842 206.407C437.054 200.199 430.564 197.802 426.238 198.232C421.911 198.662 417.152 201.244 416.286 207.267Z" fill="url(#paint23_linear_416_740)"/>
<path d="M416.286 180.307C415.421 186.33 426.238 191.493 426.238 191.493C426.238 191.493 432.295 195.795 435.324 199.237C438.352 202.679 437.919 210.854 433.16 217.307C428.401 223.761 408.931 229.354 397.249 229.354C385.567 229.354 367.395 225.481 361.77 225.051C356.145 224.621 352.684 226.772 350.521 229.354C348.357 231.935 347.059 238.389 353.117 242.261C359.174 246.133 378.644 246.993 386.432 247.424C394.22 247.854 418.017 245.961 430.564 240.97C443.112 235.979 453.928 223.761 456.092 212.144C458.255 200.528 452.63 185.653 444.842 179.446C437.054 173.239 430.564 170.841 426.238 171.272C421.911 171.702 417.152 174.283 416.286 180.307Z" fill="url(#paint24_radial_416_740)"/>
<path d="M416.286 180.307C415.421 186.33 426.238 191.493 426.238 191.493C426.238 191.493 432.295 195.795 435.324 199.237C438.352 202.679 437.919 210.854 433.16 217.307C428.401 223.761 408.931 229.354 397.249 229.354C385.567 229.354 367.395 225.481 361.77 225.051C356.145 224.621 352.684 226.772 350.521 229.354C348.357 231.935 347.059 238.389 353.117 242.261C359.174 246.133 378.644 246.993 386.432 247.424C394.22 247.854 418.017 245.961 430.564 240.97C443.112 235.979 453.928 223.761 456.092 212.144C458.255 200.528 452.63 185.653 444.842 179.446C437.054 173.239 430.564 170.841 426.238 171.272C421.911 171.702 417.152 174.283 416.286 180.307Z" fill="url(#paint25_linear_416_740)"/>
<ellipse rx="18.4872" ry="18.1021" transform="matrix(-1 0 0 1 282.471 99.1995)" fill="url(#paint26_radial_416_740)"/>
<ellipse rx="18.4872" ry="18.1021" transform="matrix(-1 0 0 1 282.471 99.1995)" fill="url(#paint27_diamond_416_740)" fill-opacity="0.4"/>
<ellipse rx="18.4872" ry="18.1021" transform="matrix(-1 0 0 1 282.471 99.1995)" fill="url(#paint28_diamond_416_740)" fill-opacity="0.4"/>
<ellipse rx="18.4872" ry="18.1021" transform="matrix(-1 0 0 1 282.471 99.1995)" fill="url(#paint29_diamond_416_740)" fill-opacity="0.4"/>
<circle r="13.4803" transform="matrix(-1 0 0 1 379.144 111.524)" fill="url(#paint30_radial_416_740)"/>
<circle r="13.4803" transform="matrix(-1 0 0 1 379.144 111.524)" fill="url(#paint31_diamond_416_740)" fill-opacity="0.4"/>
<circle r="13.4803" transform="matrix(-1 0 0 1 379.144 111.524)" fill="url(#paint32_diamond_416_740)" fill-opacity="0.4"/>
<circle r="13.4803" transform="matrix(-1 0 0 1 379.144 111.524)" fill="url(#paint33_diamond_416_740)" fill-opacity="0.4"/>
<g filter="url(#filter3_di_416_740)">
<ellipse rx="12.3248" ry="11.9397" transform="matrix(-1 0 0 1 281.701 99.9699)" fill="url(#paint34_diamond_416_740)"/>
</g>
<g filter="url(#filter4_di_416_740)">
<circle r="9.24362" transform="matrix(-1 0 0 1 377.988 112.68)" fill="url(#paint35_diamond_416_740)"/>
</g>
<g filter="url(#filter5_di_416_740)">
<ellipse rx="30.4269" ry="29.6566" transform="matrix(-1 0 0 1 328.304 170.838)" fill="url(#paint36_diamond_416_740)"/>
</g>
<g filter="url(#filter6_di_416_740)">
<ellipse rx="28.8863" ry="26.1903" transform="matrix(-1 0 0 1 235.097 170.452)" fill="url(#paint37_diamond_416_740)"/>
</g>
<g style="mix-blend-mode:screen">
<path d="M237.614 150.501C238.37 150.501 239.145 150.538 239.846 150.851C240.528 151.164 241.119 151.809 241.156 152.564C241.192 153.337 240.639 154.056 239.975 154.442C239.311 154.829 238.518 154.976 237.761 155.161C234.201 155.989 231.379 157.039 228.132 158.715C224.406 160.648 220.68 162.582 216.972 164.516C216.658 164.681 216.253 164.847 215.957 164.645C215.552 164.368 215.736 163.742 215.976 163.319C219.056 157.776 224.222 153.761 230.198 151.735C232.559 150.943 235.087 150.501 237.614 150.501Z" fill="url(#paint38_linear_416_740)"/>
</g>
<g style="mix-blend-mode:screen">
<path d="M332.246 146.434C333.002 146.434 333.777 146.471 334.478 146.784C335.16 147.097 335.751 147.741 335.787 148.496C335.824 149.27 335.271 149.988 334.607 150.375C333.943 150.762 333.15 150.909 332.393 151.093C328.833 151.922 326.011 152.971 322.764 154.647C319.038 156.581 315.312 158.514 311.604 160.448C311.29 160.614 310.884 160.78 310.589 160.577C310.183 160.301 310.368 159.675 310.608 159.251C313.688 153.708 318.853 149.693 324.83 147.668C327.191 146.876 329.718 146.434 332.246 146.434Z" fill="url(#paint39_linear_416_740)"/>
</g>
<g filter="url(#filter7_b_416_740)">
<path d="M191.382 142.806C192.497 140.338 193.4 138.338 196.78 136.253C198.943 134.918 201.882 133.684 206.669 132.729L200.373 202C199.159 200.009 197.94 197.745 196.78 195.418C193.163 188.165 192.382 183.286 191.143 175.544L191.142 175.544L191.142 175.538C190.959 174.395 190.766 173.191 190.552 171.906C188.892 161.917 188.494 157.821 188.494 154.491C188.494 151.827 188.892 147.908 190.552 144.578C190.861 143.958 191.127 143.37 191.382 142.806Z" fill="white" fill-opacity="0.01"/>
</g>
<path d="M198.646 111.159C199.293 106.64 201.879 104.496 203.899 104.207L201.475 121.153C199.724 119.56 198 115.678 198.646 111.159Z" fill="url(#paint40_linear_416_740)"/>
<defs>
<filter id="filter0_f_416_740" x="153.088" y="296.04" width="334.255" height="66.9604" filterUnits="userSpaceOnUse" color-interpolation-filters="sRGB">
<feFlood flood-opacity="0" result="BackgroundImageFix"/>
<feBlend mode="normal" in="SourceGraphic" in2="BackgroundImageFix" result="shape"/>
<feGaussianBlur stdDeviation="10" result="effect1_foregroundBlur_416_740"/>
</filter>
<filter id="filter1_ii_416_740" x="265.682" y="218.48" width="48.8203" height="44.0747" filterUnits="userSpaceOnUse" color-interpolation-filters="sRGB">
<feFlood flood-opacity="0" result="BackgroundImageFix"/>
<feBlend mode="normal" in="SourceGraphic" in2="BackgroundImageFix" result="shape"/>
<feColorMatrix in="SourceAlpha" type="matrix" values="0 0 0 0 0 0 0 0 0 0 0 0 0 0 0 0 0 0 127 0" result="hardAlpha"/>
<feOffset dx="1" dy="-3"/>
<feGaussianBlur stdDeviation="1.5"/>
<feComposite in2="hardAlpha" operator="arithmetic" k2="-1" k3="1"/>
<feColorMatrix type="matrix" values="0 0 0 0 0.12526 0 0 0 0 0.136707 0 0 0 0 0.154167 0 0 0 1 0"/>
<feBlend mode="normal" in2="shape" result="effect1_innerShadow_416_740"/>
<feColorMatrix in="SourceAlpha" type="matrix" values="0 0 0 0 0 0 0 0 0 0 0 0 0 0 0 0 0 0 127 0" result="hardAlpha"/>
<feOffset dy="3"/>
<feGaussianBlur stdDeviation="1.5"/>
<feComposite in2="hardAlpha" operator="arithmetic" k2="-1" k3="1"/>
<feColorMatrix type="matrix" values="0 0 0 0 0.183333 0 0 0 0 0.201667 0 0 0 0 0.229167 0 0 0 0.8 0"/>
<feBlend mode="normal" in2="effect1_innerShadow_416_740" result="effect2_innerShadow_416_740"/>
</filter>
<filter id="filter2_i_416_740" x="185.642" y="127.316" width="254.43" height="88.2737" filterUnits="userSpaceOnUse" color-interpolation-filters="sRGB">
<feFlood flood-opacity="0" result="BackgroundImageFix"/>
<feBlend mode="normal" in="SourceGraphic" in2="BackgroundImageFix" result="shape"/>
<feColorMatrix in="SourceAlpha" type="matrix" values="0 0 0 0 0 0 0 0 0 0 0 0 0 0 0 0 0 0 127 0" result="hardAlpha"/>
<feOffset dx="2" dy="2"/>
<feGaussianBlur stdDeviation="1.5"/>
<feComposite in2="hardAlpha" operator="arithmetic" k2="-1" k3="1"/>
<feColorMatrix type="matrix" values="0 0 0 0 0.406701 0 0 0 0 0.610284 0 0 0 0 0.920833 0 0 0 1 0"/>
<feBlend mode="normal" in2="shape" result="effect1_innerShadow_416_740"/>
</filter>
<filter id="filter3_di_416_740" x="264.376" y="83.0303" width="34.6494" height="33.8794" filterUnits="userSpaceOnUse" color-interpolation-filters="sRGB">
<feFlood flood-opacity="0" result="BackgroundImageFix"/>
<feColorMatrix in="SourceAlpha" type="matrix" values="0 0 0 0 0 0 0 0 0 0 0 0 0 0 0 0 0 0 127 0" result="hardAlpha"/>
<feOffset/>
<feGaussianBlur stdDeviation="2.5"/>
<feComposite in2="hardAlpha" operator="out"/>
<feColorMatrix type="matrix" values="0 0 0 0 0.3 0 0 0 0 0.832 0 0 0 0 1 0 0 0 0.4 0"/>
<feBlend mode="normal" in2="BackgroundImageFix" result="effect1_dropShadow_416_740"/>
<feBlend mode="normal" in="SourceGraphic" in2="effect1_dropShadow_416_740" result="shape"/>
<feColorMatrix in="SourceAlpha" type="matrix" values="0 0 0 0 0 0 0 0 0 0 0 0 0 0 0 0 0 0 127 0" result="hardAlpha"/>
<feOffset/>
<feGaussianBlur stdDeviation="2"/>
<feComposite in2="hardAlpha" operator="arithmetic" k2="-1" k3="1"/>
<feColorMatrix type="matrix" values="0 0 0 0 0.309804 0 0 0 0 0.67451 0 0 0 0 0.886275 0 0 0 1 0"/>
<feBlend mode="normal" in2="shape" result="effect2_innerShadow_416_740"/>
</filter>
<filter id="filter4_di_416_740" x="363.744" y="98.4363" width="28.4873" height="28.4873" filterUnits="userSpaceOnUse" color-interpolation-filters="sRGB">
<feFlood flood-opacity="0" result="BackgroundImageFix"/>
<feColorMatrix in="SourceAlpha" type="matrix" values="0 0 0 0 0 0 0 0 0 0 0 0 0 0 0 0 0 0 127 0" result="hardAlpha"/>
<feOffset/>
<feGaussianBlur stdDeviation="2.5"/>
<feComposite in2="hardAlpha" operator="out"/>
<feColorMatrix type="matrix" values="0 0 0 0 0.3 0 0 0 0 0.832 0 0 0 0 1 0 0 0 0.4 0"/>
<feBlend mode="normal" in2="BackgroundImageFix" result="effect1_dropShadow_416_740"/>
<feBlend mode="normal" in="SourceGraphic" in2="effect1_dropShadow_416_740" result="shape"/>
<feColorMatrix in="SourceAlpha" type="matrix" values="0 0 0 0 0 0 0 0 0 0 0 0 0 0 0 0 0 0 127 0" result="hardAlpha"/>
<feOffset/>
<feGaussianBlur stdDeviation="1.5"/>
<feComposite in2="hardAlpha" operator="arithmetic" k2="-1" k3="1"/>
<feColorMatrix type="matrix" values="0 0 0 0 0.309804 0 0 0 0 0.67451 0 0 0 0 0.886275 0 0 0 1 0"/>
<feBlend mode="normal" in2="shape" result="effect2_innerShadow_416_740"/>
</filter>
<filter id="filter5_di_416_740" x="292.877" y="136.181" width="70.8535" height="69.3132" filterUnits="userSpaceOnUse" color-interpolation-filters="sRGB">
<feFlood flood-opacity="0" result="BackgroundImageFix"/>
<feColorMatrix in="SourceAlpha" type="matrix" values="0 0 0 0 0 0 0 0 0 0 0 0 0 0 0 0 0 0 127 0" result="hardAlpha"/>
<feOffset/>
<feGaussianBlur stdDeviation="2.5"/>
<feComposite in2="hardAlpha" operator="out"/>
<feColorMatrix type="matrix" values="0 0 0 0 0.3 0 0 0 0 0.832 0 0 0 0 1 0 0 0 0.4 0"/>
<feBlend mode="normal" in2="BackgroundImageFix" result="effect1_dropShadow_416_740"/>
<feBlend mode="normal" in="SourceGraphic" in2="effect1_dropShadow_416_740" result="shape"/>
<feColorMatrix in="SourceAlpha" type="matrix" values="0 0 0 0 0 0 0 0 0 0 0 0 0 0 0 0 0 0 127 0" result="hardAlpha"/>
<feOffset/>
<feGaussianBlur stdDeviation="2.5"/>
<feComposite in2="hardAlpha" operator="arithmetic" k2="-1" k3="1"/>
<feColorMatrix type="matrix" values="0 0 0 0 0.309804 0 0 0 0 0.67451 0 0 0 0 0.886275 0 0 0 1 0"/>
<feBlend mode="normal" in2="shape" result="effect2_innerShadow_416_740"/>
</filter>
<filter id="filter6_di_416_740" x="201.211" y="139.262" width="67.7725" height="62.3806" filterUnits="userSpaceOnUse" color-interpolation-filters="sRGB">
<feFlood flood-opacity="0" result="BackgroundImageFix"/>
<feColorMatrix in="SourceAlpha" type="matrix" values="0 0 0 0 0 0 0 0 0 0 0 0 0 0 0 0 0 0 127 0" result="hardAlpha"/>
<feOffset/>
<feGaussianBlur stdDeviation="2.5"/>
<feComposite in2="hardAlpha" operator="out"/>
<feColorMatrix type="matrix" values="0 0 0 0 0.3 0 0 0 0 0.832 0 0 0 0 1 0 0 0 0.4 0"/>
<feBlend mode="normal" in2="BackgroundImageFix" result="effect1_dropShadow_416_740"/>
<feBlend mode="normal" in="SourceGraphic" in2="effect1_dropShadow_416_740" result="shape"/>
<feColorMatrix in="SourceAlpha" type="matrix" values="0 0 0 0 0 0 0 0 0 0 0 0 0 0 0 0 0 0 127 0" result="hardAlpha"/>
<feOffset/>
<feGaussianBlur stdDeviation="2.5"/>
<feComposite in2="hardAlpha" operator="arithmetic" k2="-1" k3="1"/>
<feColorMatrix type="matrix" values="0 0 0 0 0.309804 0 0 0 0 0.67451 0 0 0 0 0.886275 0 0 0 1 0"/>
<feBlend mode="normal" in2="shape" result="effect2_innerShadow_416_740"/>
</filter>
<filter id="filter7_b_416_740" x="186.494" y="130.729" width="22.1748" height="73.271" filterUnits="userSpaceOnUse" color-interpolation-filters="sRGB">
<feFlood flood-opacity="0" result="BackgroundImageFix"/>
<feGaussianBlur in="BackgroundImage" stdDeviation="1"/>
<feComposite in2="SourceAlpha" operator="in" result="effect1_backgroundBlur_416_740"/>
<feBlend mode="normal" in="SourceGraphic" in2="effect1_backgroundBlur_416_740" result="shape"/>
</filter>
<radialGradient id="paint0_radial_416_740" cx="0" cy="0" r="1" gradientUnits="userSpaceOnUse" gradientTransform="translate(402.782 307.542) rotate(-32.9903) scale(63.6914 78.672)">
<stop stop-color="#A5C5CF"/>
<stop offset="1" stop-color="#607791"/>
</radialGradient>
<linearGradient id="paint1_linear_416_740" x1="514.714" y1="310.558" x2="440.024" y2="310.976" gradientUnits="userSpaceOnUse">
<stop stop-color="white"/>
<stop offset="1" stop-color="white" stop-opacity="0"/>
</linearGradient>
<radialGradient id="paint2_radial_416_740" cx="0" cy="0" r="1" gradientUnits="userSpaceOnUse" gradientTransform="translate(229.595 309.136) rotate(-145.187) scale(63.6193 78.5608)">
<stop stop-color="#A5C5CF"/>
<stop offset="1" stop-color="#607791"/>
</radialGradient>
<linearGradient id="paint3_linear_416_740" x1="129.034" y1="299.236" x2="192.295" y2="311.368" gradientUnits="userSpaceOnUse">
<stop stop-color="white"/>
<stop offset="1" stop-color="white" stop-opacity="0"/>
</linearGradient>
<radialGradient id="paint4_radial_416_740" cx="0" cy="0" r="1" gradientUnits="userSpaceOnUse" gradientTransform="translate(264 296) rotate(-150.255) scale(48.3735 59.7344)">
<stop stop-color="#A5C5CF"/>
<stop offset="1" stop-color="#607791"/>
</radialGradient>
<radialGradient id="paint5_radial_416_740" cx="0" cy="0" r="1" gradientUnits="userSpaceOnUse" gradientTransform="translate(354.778 298.737) rotate(-34.8135) scale(63.6193 78.5608)">
<stop stop-color="#A5C5CF"/>
<stop offset="1" stop-color="#607791"/>
</radialGradient>
<radialGradient id="paint6_radial_416_740" cx="0" cy="0" r="1" gradientUnits="userSpaceOnUse" gradientTransform="translate(158.052 244.42) rotate(-60.6808) scale(50.9464 55.1573)">
<stop stop-color="#A5C5CF"/>
<stop offset="1" stop-color="#607791"/>
</radialGradient>
<linearGradient id="paint7_linear_416_740" x1="199.052" y1="228.42" x2="222.382" y2="287.027" gradientUnits="userSpaceOnUse">
<stop stop-color="#405469" stop-opacity="0"/>
<stop offset="1" stop-color="#405469"/>
</linearGradient>
<radialGradient id="paint8_radial_416_740" cx="0" cy="0" r="1" gradientUnits="userSpaceOnUse" gradientTransform="translate(148.987 207.725) rotate(-18.3281) scale(55.5698 78.9638)">
<stop stop-color="#A5C5CF"/>
<stop offset="1" stop-color="#607791"/>
</radialGradient>
<linearGradient id="paint9_linear_416_740" x1="192.408" y1="200.545" x2="203.121" y2="262.709" gradientUnits="userSpaceOnUse">
<stop stop-color="#405469" stop-opacity="0"/>
<stop offset="1" stop-color="#405469"/>
</linearGradient>
<radialGradient id="paint10_radial_416_740" cx="0" cy="0" r="1" gradientUnits="userSpaceOnUse" gradientTransform="translate(292 82) rotate(42.1485) scale(184.784 156.45)">
<stop stop-color="#50778E"/>
<stop offset="0.583333" stop-color="#3D6F85"/>
<stop offset="1" stop-color="#343E52"/>
</radialGradient>
<linearGradient id="paint11_linear_416_740" x1="446.545" y1="246.712" x2="270.917" y2="205.116" gradientUnits="userSpaceOnUse">
<stop stop-color="#273132"/>
<stop offset="1" stop-color="#30578F" stop-opacity="0"/>
</linearGradient>
<linearGradient id="paint12_linear_416_740" x1="184.643" y1="172.763" x2="311" y2="212" gradientUnits="userSpaceOnUse">
<stop stop-color="#B7D5E6"/>
<stop offset="1" stop-color="#72EEFF" stop-opacity="0"/>
</linearGradient>
<linearGradient id="paint13_linear_416_740" x1="254.027" y1="16.7719" x2="289.319" y2="68.0302" gradientUnits="userSpaceOnUse">
<stop stop-color="#BABB98"/>
<stop offset="0.1539" stop-color="#9C9D7F"/>
<stop offset="0.7399" stop-color="#2C2D24"/>
<stop offset="1"/>
</linearGradient>
<radialGradient id="paint14_radial_416_740" cx="0" cy="0" r="1" gradientUnits="userSpaceOnUse" gradientTransform="translate(234 171) rotate(96.3402) scale(45.2769 42.3437)">
<stop offset="0.462963" stop-color="#69C7FA"/>
<stop offset="0.684954" stop-color="#195EA1"/>
<stop offset="1" stop-color="#304758"/>
</radialGradient>
<radialGradient id="paint15_diamond_416_740" cx="0" cy="0" r="1" gradientUnits="userSpaceOnUse" gradientTransform="translate(236.532 166.077) rotate(107.51) scale(57.3946 61.2328)">
<stop offset="0.404046" stop-color="#69C7FA"/>
<stop offset="0.684954" stop-color="#195EA1" stop-opacity="0"/>
<stop offset="1" stop-color="#003B6B" stop-opacity="0"/>
</radialGradient>
<radialGradient id="paint16_diamond_416_740" cx="0" cy="0" r="1" gradientUnits="userSpaceOnUse" gradientTransform="translate(229.625 167.37) rotate(176.027) scale(49.7659 62.1045)">
<stop offset="0.404046" stop-color="#69C7FA"/>
<stop offset="0.684954" stop-color="#195EA1" stop-opacity="0"/>
<stop offset="1" stop-color="#003B6B" stop-opacity="0"/>
</radialGradient>
<radialGradient id="paint17_diamond_416_740" cx="0" cy="0" r="1" gradientUnits="userSpaceOnUse" gradientTransform="translate(232.215 169.525) rotate(-119.015) scale(59.6336 67.9649)">
<stop offset="0.404046" stop-color="#69C7FA"/>
<stop offset="0.684954" stop-color="#195EA1" stop-opacity="0"/>
<stop offset="1" stop-color="#003B6B" stop-opacity="0"/>
</radialGradient>
<radialGradient id="paint18_radial_416_740" cx="0" cy="0" r="1" gradientUnits="userSpaceOnUse" gradientTransform="translate(327.5 172) rotate(91.302) scale(44.0114 47.231)">
<stop offset="0.433484" stop-color="#69C7FA"/>
<stop offset="0.684954" stop-color="#195EA1"/>
<stop offset="1" stop-color="#304758"/>
</radialGradient>
<radialGradient id="paint19_diamond_416_740" cx="0" cy="0" r="1" gradientUnits="userSpaceOnUse" gradientTransform="translate(325.24 166.644) rotate(108.376) scale(66.004 78.1242)">
<stop offset="0.404046" stop-color="#69C7FA"/>
<stop offset="0.684954" stop-color="#195EA1" stop-opacity="0"/>
<stop offset="1" stop-color="#003B6B" stop-opacity="0"/>
</radialGradient>
<radialGradient id="paint20_diamond_416_740" cx="0" cy="0" r="1" gradientUnits="userSpaceOnUse" gradientTransform="translate(327.841 180.468) rotate(140.651) scale(44.2859 52.2365)">
<stop offset="0.404046" stop-color="#69C7FA"/>
<stop offset="0.684954" stop-color="#195EA1" stop-opacity="0"/>
<stop offset="1" stop-color="#003B6B" stop-opacity="0"/>
</radialGradient>
<radialGradient id="paint21_diamond_416_740" cx="0" cy="0" r="1" gradientUnits="userSpaceOnUse" gradientTransform="translate(325.24 166.644) rotate(-126.387) scale(58.5613 69.1923)">
<stop offset="0.404046" stop-color="#69C7FA"/>
<stop offset="0.684954" stop-color="#195EA1" stop-opacity="0"/>
<stop offset="1" stop-color="#003B6B" stop-opacity="0"/>
</radialGradient>
<radialGradient id="paint22_radial_416_740" cx="0" cy="0" r="1" gradientUnits="userSpaceOnUse" gradientTransform="translate(323.263 249) rotate(-16.3264) scale(116.318 84.8695)">
<stop stop-color="#A5C5CF"/>
<stop offset="1" stop-color="#607791"/>
</radialGradient>
<linearGradient id="paint23_linear_416_740" x1="402.873" y1="285.091" x2="426.003" y2="217.894" gradientUnits="userSpaceOnUse">
<stop stop-color="#405469" stop-opacity="0"/>
<stop offset="1" stop-color="#405469"/>
</linearGradient>
<radialGradient id="paint24_radial_416_740" cx="0" cy="0" r="1" gradientUnits="userSpaceOnUse" gradientTransform="translate(323.263 222.04) rotate(-16.3264) scale(116.318 84.8695)">
<stop stop-color="#A5C5CF"/>
<stop offset="1" stop-color="#607791"/>
</radialGradient>
<linearGradient id="paint25_linear_416_740" x1="402.873" y1="237.48" x2="437.181" y2="171.114" gradientUnits="userSpaceOnUse">
<stop stop-color="#405469" stop-opacity="0"/>
<stop offset="1" stop-color="#405469"/>
</linearGradient>
<radialGradient id="paint26_radial_416_740" cx="0" cy="0" r="1" gradientUnits="userSpaceOnUse" gradientTransform="translate(18.9583 17.9026) rotate(84.6005) scale(18.3832 20.1951)">
<stop offset="0.53125" stop-color="#69C7FA"/>
<stop offset="0.6875" stop-color="#327E9E"/>
<stop offset="1" stop-color="#2C3E4E"/>
</radialGradient>
<radialGradient id="paint27_diamond_416_740" cx="0" cy="0" r="1" gradientUnits="userSpaceOnUse" gradientTransform="translate(18.9583 17.9025) rotate(76.2005) scale(29.3471 28.9765)">
<stop offset="0.404046" stop-color="#69C7FA"/>
<stop offset="0.684954" stop-color="#195EA1" stop-opacity="0"/>
<stop offset="1" stop-color="#003B6B" stop-opacity="0"/>
</radialGradient>
<radialGradient id="paint28_diamond_416_740" cx="0" cy="0" r="1" gradientUnits="userSpaceOnUse" gradientTransform="translate(17.9583 18.9025) rotate(43.3425) scale(22.4479 20.2464)">
<stop offset="0.404046" stop-color="#69C7FA"/>
<stop offset="0.684954" stop-color="#195EA1" stop-opacity="0"/>
<stop offset="1" stop-color="#003B6B" stop-opacity="0"/>
</radialGradient>
<radialGradient id="paint29_diamond_416_740" cx="0" cy="0" r="1" gradientUnits="userSpaceOnUse" gradientTransform="translate(18.9583 17.9025) rotate(-53.8068) scale(25.4018 29.3504)">
<stop offset="0.404046" stop-color="#69C7FA"/>
<stop offset="0.684954" stop-color="#195EA1" stop-opacity="0"/>
<stop offset="1" stop-color="#003B6B" stop-opacity="0"/>
</radialGradient>
<radialGradient id="paint30_radial_416_740" cx="0" cy="0" r="1" gradientUnits="userSpaceOnUse" gradientTransform="translate(13.6241 13.9558) rotate(108.435) scale(15.8114 13.835)">
<stop offset="0.369792" stop-color="#69C7FA"/>
<stop offset="0.651042" stop-color="#327E9E"/>
<stop offset="0.911458" stop-color="#314352"/>
</radialGradient>
<radialGradient id="paint31_diamond_416_740" cx="0" cy="0" r="1" gradientUnits="userSpaceOnUse" gradientTransform="translate(13.6241 15.4559) rotate(74.4803) scale(19.8219 19.2089)">
<stop offset="0.404046" stop-color="#69C7FA"/>
<stop offset="0.684954" stop-color="#195EA1" stop-opacity="0"/>
<stop offset="1" stop-color="#003B6B" stop-opacity="0"/>
</radialGradient>
<radialGradient id="paint32_diamond_416_740" cx="0" cy="0" r="1" gradientUnits="userSpaceOnUse" gradientTransform="translate(11.6241 16.9559) rotate(32.7234) scale(15.8976 14.3527)">
<stop offset="0.404046" stop-color="#69C7FA"/>
<stop offset="0.684954" stop-color="#195EA1" stop-opacity="0"/>
<stop offset="1" stop-color="#003B6B" stop-opacity="0"/>
</radialGradient>
<radialGradient id="paint33_diamond_416_740" cx="0" cy="0" r="1" gradientUnits="userSpaceOnUse" gradientTransform="translate(13.6241 11.4559) rotate(-4.39871) scale(19.5576 13.7432)">
<stop offset="0.404046" stop-color="#69C7FA"/>
<stop offset="0.684954" stop-color="#195EA1" stop-opacity="0"/>
<stop offset="1" stop-color="#003B6B" stop-opacity="0"/>
</radialGradient>
<radialGradient id="paint34_diamond_416_740" cx="0" cy="0" r="1" gradientUnits="userSpaceOnUse" gradientTransform="translate(8.36328 19.6152) rotate(-35.2575) scale(19.945 14.087)">
<stop stop-color="#2B66FF"/>
<stop offset="0.526042" stop-color="#3748A1"/>
<stop offset="1" stop-color="#2E3172"/>
</radialGradient>
<radialGradient id="paint35_diamond_416_740" cx="0" cy="0" r="1" gradientUnits="userSpaceOnUse" gradientTransform="translate(6.27246 15.1859) rotate(-36.1193) scale(15.1212 10.7889)">
<stop stop-color="#2B66FF"/>
<stop offset="0.526042" stop-color="#3748A1"/>
<stop offset="1" stop-color="#2E3172"/>
</radialGradient>
<radialGradient id="paint36_diamond_416_740" cx="0" cy="0" r="1" gradientUnits="userSpaceOnUse" gradientTransform="translate(20.6468 48.7216) rotate(-35.4225) scale(49.3398 34.9189)">
<stop stop-color="#2B66FF"/>
<stop offset="0.526042" stop-color="#3748A1"/>
<stop offset="1" stop-color="#2E3172"/>
</radialGradient>
<radialGradient id="paint37_diamond_416_740" cx="0" cy="0" r="1" gradientUnits="userSpaceOnUse" gradientTransform="translate(19.6014 43.0268) rotate(-33.4895) scale(45.7695 31.5598)">
<stop stop-color="#2B66FF"/>
<stop offset="0.526042" stop-color="#3748A1"/>
<stop offset="1" stop-color="#2E3172"/>
</radialGradient>
<linearGradient id="paint38_linear_416_740" x1="222.614" y1="149.432" x2="230.697" y2="161.764" gradientUnits="userSpaceOnUse">
<stop stop-color="#BABB98"/>
<stop offset="0.1539" stop-color="#9C9D7F"/>
<stop offset="0.7399" stop-color="#2C2D24"/>
<stop offset="1"/>
</linearGradient>
<linearGradient id="paint39_linear_416_740" x1="317.246" y1="145.364" x2="325.329" y2="157.696" gradientUnits="userSpaceOnUse">
<stop stop-color="#BABB98"/>
<stop offset="0.1539" stop-color="#9C9D7F"/>
<stop offset="0.7399" stop-color="#2C2D24"/>
<stop offset="1"/>
</linearGradient>
<linearGradient id="paint40_linear_416_740" x1="205.633" y1="126.298" x2="195.272" y2="123.892" gradientUnits="userSpaceOnUse">
<stop stop-color="#2B66FF"/>
<stop offset="0.526042" stop-color="#3746A1"/>
<stop offset="1" stop-color="#271B74"/>
</linearGradient>
</defs>
</svg>
