<svg width="79" height="43" viewBox="0 0 79 43" fill="none" xmlns="http://www.w3.org/2000/svg">
<rect y="0.314941" width="78.9764" height="41.811" rx="7" fill="white"/>
<path d="M45.9684 9.96289H33.1074V33.0689H45.9684V9.96289Z" fill="#FF5A00"/>
<path d="M33.9639 21.5158C33.9639 16.8213 36.1708 12.6548 39.5573 9.96275C37.065 8.00316 33.9211 6.81885 30.4918 6.81885C22.3681 6.81885 15.7949 13.392 15.7949 21.5158C15.7949 29.6395 22.3681 36.2127 30.4918 36.2127C33.9211 36.2127 37.065 35.0284 39.5573 33.0688C36.1661 30.4148 33.9639 26.2102 33.9639 21.5158Z" fill="#EB001B"/>
<path d="M63.32 21.5158C63.32 29.6395 56.7468 36.2127 48.6231 36.2127C45.1938 36.2127 42.0499 35.0284 39.5576 33.0688C42.9869 30.372 45.151 26.2102 45.151 21.5158C45.151 16.8213 42.9441 12.6548 39.5576 9.96275C42.0452 8.00316 45.1891 6.81885 48.6183 6.81885C56.7468 6.81885 63.32 13.4348 63.32 21.5158Z" fill="#F79E1B"/>
</svg>
