<svg width="25" height="25" viewBox="0 0 25 25" fill="none" xmlns="http://www.w3.org/2000/svg">
<path d="M1.25004 11.875C1.24573 13.5249 1.6312 15.1524 2.37504 16.625C3.25699 18.3897 4.61285 19.874 6.29072 20.9116C7.9686 21.9493 9.90223 22.4993 11.875 22.5C13.5249 22.5043 15.1524 22.1189 16.625 21.375L23.75 23.75L21.375 16.625C22.1189 15.1524 22.5043 13.5249 22.5 11.875C22.4993 9.90223 21.9493 7.9686 20.9116 6.29072C19.874 4.61285 18.3897 3.25699 16.625 2.37504C15.1524 1.6312 13.5249 1.24573 11.875 1.25004H11.25C8.6446 1.39378 6.18373 2.49349 4.33861 4.33861C2.49349 6.18373 1.39378 8.6446 1.25004 11.25V11.875Z" stroke="#A5AFBB" stroke-width="2" stroke-linecap="round" stroke-linejoin="round"/>
</svg>
