<svg width="80" height="43" viewBox="0 0 80 43" fill="none" xmlns="http://www.w3.org/2000/svg">
<rect x="0.960938" y="0.314941" width="78.9764" height="41.811" rx="7" fill="white"/>
<path fill-rule="evenodd" clip-rule="evenodd" d="M17.3125 12.7527C17.8457 12.7495 19.4305 12.6061 20.1017 14.882C20.5539 16.4151 21.2742 18.9263 22.2626 22.4157H22.6652C23.7251 18.7369 24.4533 16.2257 24.8496 14.882C25.5279 12.5824 27.2236 12.7527 27.9018 12.7527L33.1348 12.7527V29.1054H27.8012V19.4685H27.4436L24.4703 29.1054H20.4575L17.4842 19.4614H17.1266V29.1054H11.793V12.7527L17.3125 12.7527ZM40.7938 12.7527V22.3968H41.2193L44.8359 14.4665C45.538 12.8884 47.0343 12.7527 47.0343 12.7527H52.1956V29.1055H46.7506V19.4614H46.3251L42.7794 27.3916C42.0773 28.9627 40.5101 29.1055 40.5101 29.1055H35.3488V12.7527H40.7938ZM71.016 20.5237C70.2565 22.6858 67.8713 24.2342 65.2305 24.2342H59.5204V29.1055H54.3425V20.5237H71.016Z" fill="#4DB45E"/>
<path fill-rule="evenodd" clip-rule="evenodd" d="M65.4806 12.7527H54.0713C54.3428 16.3934 57.4638 19.51 60.6947 19.51H71.3761C71.9925 16.4842 69.8705 12.7527 65.4806 12.7527Z" fill="url(#paint0_linear_416_483)"/>
<defs>
<linearGradient id="paint0_linear_416_483" x1="71.4808" y1="17.0033" x2="54.0713" y2="17.0033" gradientUnits="userSpaceOnUse">
<stop stop-color="#1F5CD7"/>
<stop offset="1" stop-color="#02AEFF"/>
</linearGradient>
</defs>
</svg>
