<svg width="35" height="33" viewBox="0 0 35 33" fill="none" xmlns="http://www.w3.org/2000/svg">
<path fill-rule="evenodd" clip-rule="evenodd" d="M17.7946 0.000594479C22.8538 0.0316218 27.9751 1.32769 31.2494 5.12549C34.6388 9.0569 35.6861 14.4225 34.5728 19.4617C33.4447 24.5679 30.2213 29.0562 25.4548 31.3535C20.6517 33.6684 15.0336 33.4722 10.2071 31.205C5.35749 28.9269 1.6178 24.7535 0.423006 19.5951C-0.771555 14.4376 0.595123 8.94418 4.12807 4.95916C7.48719 1.17021 12.6869 -0.0307307 17.7946 0.000594479Z" fill="#FFA319" fill-opacity="0.2"/>
<path d="M23.7069 11.7071C24.0974 11.3166 24.0974 10.6834 23.7069 10.2929C23.3163 9.90237 22.6832 9.90237 22.2927 10.2929L23.7069 11.7071ZM11.2929 21.2929C10.9024 21.6834 10.9024 22.3166 11.2929 22.7071C11.6834 23.0976 12.3166 23.0976 12.7071 22.7071L11.2929 21.2929ZM12.7073 10.2929C12.3168 9.90237 11.6837 9.90237 11.2931 10.2929C10.9026 10.6834 10.9026 11.3166 11.2931 11.7071L12.7073 10.2929ZM22.2929 22.7071C22.6834 23.0976 23.3166 23.0976 23.7071 22.7071C24.0976 22.3166 24.0976 21.6834 23.7071 21.2929L22.2929 22.7071ZM22.2927 10.2929L11.2929 21.2929L12.7071 22.7071L23.7069 11.7071L22.2927 10.2929ZM11.2931 11.7071L22.2929 22.7071L23.7071 21.2929L12.7073 10.2929L11.2931 11.7071Z" fill="#FFA319"/>
</svg>
