<svg width="121" height="43" viewBox="0 0 121 43" fill="none" xmlns="http://www.w3.org/2000/svg">
<rect x="0.212891" y="0.314941" width="120.787" height="41.811" rx="7" fill="white"/>
<path d="M35.1038 15.4206C33.7472 14.3313 31.8575 13.8286 29.6288 13.9842C28.6113 14.056 26.2371 14.5827 25.0743 14.8341C23.8388 15.1094 23.4996 15.7798 23.3421 16.5937L22.8213 19.2512C22.8213 19.2512 25.1954 18.4492 26.6611 18.102L25.5346 19.5864C25.2802 19.9215 25.0864 20.4961 25.0864 20.9151V35.3514L27.085 34.5733C28.2237 34.1663 28.7445 33.1608 28.7445 32.1673V28.7796C29.5197 29.0789 30.4888 29.2106 31.5184 29.1388C33.3838 29.0071 35.019 28.1213 36.1213 26.6489C37.2357 25.1406 37.7444 23.1535 37.587 20.8792C37.4053 18.4492 36.5695 16.6057 35.1038 15.4206ZM77.2205 28.7437H75.6943C74.9796 28.7437 74.3013 28.2769 74.0348 27.6305C73.1627 28.5402 71.9393 29.0071 70.3646 29.0071C68.5961 29.0071 67.1425 28.3248 66.1372 27.032C65.156 25.7631 64.6352 23.9316 64.6352 21.7171C64.6352 19.4068 65.1439 17.4796 66.1251 16.1389C67.1425 14.7383 68.6324 13.9962 70.4373 13.9962C71.7091 13.9962 72.9204 14.451 73.7804 15.2052V8.46582H75.0038C76.2394 8.46582 77.2326 9.45937 77.2326 10.6684L77.2205 28.7437ZM63.6177 28.7437H62.0914C61.3768 28.7437 60.6985 28.2769 60.432 27.6305C59.5598 28.5402 58.3364 29.0071 56.7617 29.0071C54.9933 29.0071 53.5397 28.3248 52.5343 27.032C51.5532 25.7631 51.0323 23.9316 51.0323 21.7171C51.0323 19.4068 51.5411 17.4796 52.5222 16.1389C53.5397 14.7383 55.0296 13.9962 56.8344 13.9962C58.1063 13.9962 59.3176 14.451 60.1776 15.2052V8.46582H61.401C62.6365 8.46582 63.6298 9.45937 63.6298 10.6684L63.6177 28.7437ZM38.98 18.4851C38.98 18.4851 42.7229 16.9409 44.5519 16.9409C45.0364 16.9409 46.4658 16.9409 46.6111 19.1434C45.7632 19.2272 44.4913 19.4188 43.1953 19.7539C40.0943 20.532 38.3137 22.3515 38.3137 24.7336C38.3137 27.0918 40.2518 28.9472 42.7229 28.9472C44.5882 28.9472 45.9086 28.5522 46.8776 27.6903C47.2531 28.3008 47.9678 28.7437 48.6824 28.7437H50.0996V18.509C50.0996 15.8995 47.8466 14.0081 44.673 14.0081H44.346C44.346 14.0081 43.2437 14.0081 41.6811 14.4151C41.6811 14.4151 39.525 14.9538 39.3191 16.3424C39.089 17.719 38.98 18.4851 38.98 18.4851ZM89.7211 25.9666C88.5461 25.9666 87.2016 25.38 86.7897 24.1112C87.8799 24.0034 89.8785 23.788 91.647 23.0338C94.0575 22.0164 95.2809 20.3764 95.2809 18.1619C95.2809 15.4566 93.3428 13.9004 89.9754 13.9004C87.9526 13.9004 86.1477 14.6785 84.8759 16.103C83.6525 17.4676 82.9863 19.3709 82.9863 21.4537C82.9863 26.0504 85.5421 28.8994 89.6605 28.8994C91.1141 28.8994 93.0158 28.4086 93.0885 28.3966C94.0575 28.1572 94.6268 27.5946 94.8448 26.6489L95.4868 23.8598C95.4989 23.8718 93.2096 25.9666 89.7211 25.9666ZM82.0172 19.1315C82.0172 14.9658 82.0172 10.7043 82.0172 10.6923C82.0172 9.51922 81.1572 8.46582 79.7763 8.46582H78.565C78.565 8.46582 78.565 13.3258 78.565 18.0781C78.565 22.2438 78.565 26.5053 78.565 26.5172C78.565 27.6903 79.4251 28.7437 80.8059 28.7437H82.0172C82.0172 28.7437 82.0172 23.8837 82.0172 19.1315Z" fill="#445A7D"/>
<path d="M73.9385 21.2858C73.9385 24.4939 73.0058 26.05 71.0798 26.05C68.4756 26.05 68.1727 23.4764 68.1727 21.5491C68.1727 20.1965 68.4392 17.0483 70.9224 17.0483C73.5509 17.0483 73.9385 19.7057 73.9385 21.2858ZM60.2024 21.2858C60.2024 24.4939 59.2697 26.05 57.3438 26.05C54.7395 26.05 54.4367 23.4764 54.4367 21.5491C54.4367 20.1965 54.7031 17.0483 57.1863 17.0483C59.8027 17.0483 60.2024 19.7057 60.2024 21.2858ZM46.6117 24.0031C46.6117 25.0086 45.1218 26.0021 43.5956 26.0021C42.6992 26.0021 41.7423 25.4515 41.7423 24.6255C41.7423 23.7996 42.033 23.237 43.5229 22.7582C44.6615 22.3751 45.7153 22.1836 46.6238 22.0519L46.6117 24.0031ZM31.1556 25.7268C30.1502 25.7986 29.3265 25.5712 28.7451 25.0565V17.6228C29.4356 17.4792 29.9443 17.3954 30.1623 17.3715C32.379 17.2158 33.7478 18.5206 33.9173 20.9267C34.0385 22.5187 33.6024 25.5592 31.1556 25.7268ZM91.8414 18.2094C91.8414 20.1845 89.0191 20.9147 86.4754 21.1781C86.6086 18.5446 88.0016 16.7969 90.0245 16.7969C90.7149 16.8088 91.8414 17.1919 91.8414 18.2094Z" fill="white"/>
</svg>
