<svg width="83" height="80" viewBox="0 0 83 80" fill="none" xmlns="http://www.w3.org/2000/svg">
<path fill-rule="evenodd" clip-rule="evenodd" d="M42.1987 0.00144116C54.1962 0.076659 66.341 3.21864 74.1056 12.4254C82.1434 21.9561 84.6271 34.9638 81.987 47.1799C79.3117 59.5585 71.6677 70.4394 60.3641 76.0086C48.9739 81.6205 35.6512 81.1448 24.2055 75.6485C12.7049 70.1259 3.8365 60.0084 1.00313 47.5032C-1.82969 35.0004 1.41129 21.6829 9.78942 12.0222C17.7553 2.83687 30.086 -0.0744987 42.1987 0.00144116Z" fill="#1975FF"/>
<g style="mix-blend-mode:screen">
<path d="M40.2888 4C41.5078 4 42.7565 4.06209 43.8863 4.58986C44.9863 5.11762 45.9377 6.20418 45.9972 7.47702C46.0566 8.78091 45.1647 9.99166 44.0944 10.6436C43.0241 11.2955 41.7456 11.5439 40.5267 11.8544C34.7886 13.2514 30.2397 15.0209 25.0071 17.846C19.0014 21.1057 12.9957 24.3654 7.01981 27.6251C6.51439 27.9045 5.8603 28.1839 5.38461 27.8425C4.73052 27.3768 5.02784 26.3213 5.41434 25.6072C10.3794 16.2627 18.7041 9.49494 28.337 6.08C32.1425 4.74508 36.2157 4 40.2888 4Z" fill="url(#paint0_linear_416_625)"/>
</g>
<path d="M41.7153 37.3383L42.1546 43.3222M17.9994 42.0873L65.8706 38.5733C66.4214 38.5329 66.7947 37.5028 66.7215 36.5055C66.6483 35.5082 65.9894 26.5323 65.9894 26.5323C65.9085 25.4307 64.95 24.6032 63.8484 24.6841L17.9718 28.0516C16.8702 28.1325 16.0427 29.0911 16.1236 30.1927C16.1236 30.1927 16.7824 39.1685 16.8556 40.1658C16.9288 41.1631 17.4486 42.1277 17.9994 42.0873ZM48.8886 25.7822L48.2297 16.8064C48.1489 15.7047 47.1903 14.8773 46.0887 14.9581L34.1209 15.8366C33.0193 15.9175 32.1918 16.8761 32.2727 17.9777L32.9315 26.9535L48.8886 25.7822ZM19.994 41.9408L63.8759 38.7197L65.0472 54.6768C65.1936 56.6714 64.2695 57.742 62.2749 57.8884L24.3769 60.6702C22.8809 60.78 21.3117 59.8925 21.1653 57.8979L19.994 41.9408Z" stroke="white" stroke-width="2" stroke-linecap="round" stroke-linejoin="round"/>
<defs>
<linearGradient id="paint0_linear_416_625" x1="16.1133" y1="2.19723" x2="29.9741" y2="22.4149" gradientUnits="userSpaceOnUse">
<stop stop-color="#BABB98"/>
<stop offset="0.1539" stop-color="#9C9D7F"/>
<stop offset="0.7399" stop-color="#2C2D24"/>
<stop offset="1"/>
</linearGradient>
</defs>
</svg>
