<svg width="80" height="77" viewBox="0 0 80 77" fill="none" xmlns="http://www.w3.org/2000/svg">
<path fill-rule="evenodd" clip-rule="evenodd" d="M40.6734 0.00138712C52.2373 0.0737842 63.9431 3.09794 71.4271 11.9595C79.1743 21.1328 81.5683 33.6526 79.0236 45.4106C76.445 57.325 69.0773 67.7979 58.1823 73.1583C47.2038 78.5597 34.3626 78.1018 23.3306 72.8117C12.2457 67.4961 3.69783 57.7581 0.966871 45.7218C-1.76355 33.6878 1.36028 20.8697 9.43559 11.5714C17.1136 2.73049 28.9986 -0.071705 40.6734 0.00138712Z" fill="#FFA319"/>
<g style="mix-blend-mode:screen">
<path d="M40.2888 4C41.5078 4 42.7565 4.06209 43.8863 4.58986C44.9863 5.11762 45.9377 6.20418 45.9972 7.47702C46.0566 8.78091 45.1647 9.99166 44.0944 10.6436C43.0241 11.2955 41.7456 11.5439 40.5267 11.8544C34.7886 13.2514 30.2397 15.0209 25.0071 17.846C19.0014 21.1057 12.9957 24.3654 7.01981 27.6251C6.51439 27.9045 5.8603 28.1839 5.38461 27.8425C4.73052 27.3768 5.02784 26.3213 5.41434 25.6072C10.3794 16.2627 18.7041 9.49494 28.337 6.08C32.1425 4.74508 36.2157 4 40.2888 4Z" fill="url(#paint0_linear_416_617)"/>
</g>
<path d="M53 38.5C48.0514 42 43.0717 43.5415 33.2315 50C32.7106 42.5 33.2315 34 33.2315 27C43.1027 30.5 47.5565 35 53 38.5Z" stroke="white" stroke-width="2" stroke-linejoin="round"/>
<defs>
<linearGradient id="paint0_linear_416_617" x1="16.1133" y1="2.19723" x2="29.9741" y2="22.4149" gradientUnits="userSpaceOnUse">
<stop stop-color="#BABB98"/>
<stop offset="0.1539" stop-color="#9C9D7F"/>
<stop offset="0.7399" stop-color="#2C2D24"/>
<stop offset="1"/>
</linearGradient>
</defs>
</svg>
