<svg width="79" height="42" viewBox="0 0 79 42" fill="none" xmlns="http://www.w3.org/2000/svg">
<rect x="0.0234375" width="78.9764" height="41.811" rx="7" fill="white"/>
<g clip-path="url(#clip0_416_506)">
<path d="M29.9764 31.8173C29.8703 31.531 29.678 31.3357 29.5387 31.0819C29.2005 30.6459 28.8026 30.2685 28.4047 29.8911C28.2655 29.8455 28.2058 29.7153 28.0731 29.6633C27.9869 29.5527 27.8477 29.4941 27.7349 29.4095C27.5095 29.2403 27.2641 29.0971 27.0121 28.954C26.5346 28.6546 25.9444 28.4659 25.3608 28.2707C24.7308 28.121 24.0677 28.0104 23.378 27.9193C22.6949 27.8216 22.0119 27.7305 21.4946 27.4637C21.1962 27.3791 20.9773 27.2164 20.7187 27.0863C20.48 26.9301 20.2213 26.7999 20.0224 26.6047C19.777 26.4615 19.6245 26.2208 19.4322 26.0255C19.3659 25.8954 19.2531 25.8173 19.2001 25.6741C19.1338 25.6481 19.1139 25.57 19.0741 25.5245C19.0277 25.4724 19.0277 25.3683 18.9481 25.3488C18.9083 25.6156 18.9216 25.9344 18.9481 26.2078C18.9812 26.3249 18.9945 26.4681 19.0277 26.5852C19.0476 26.6893 19.147 26.8585 19.1072 26.9366C17.0382 26.8325 15.5262 26.1882 14.2131 25.3422C13.5632 24.9192 13.0062 24.4051 12.4889 23.852C12.2634 23.5461 12.0181 23.2533 11.8191 22.9149C11.6135 22.583 11.4411 22.2056 11.2554 21.8542C10.9504 21.0928 10.6652 20.3119 10.5591 19.3553C10.4199 18.4637 10.453 17.3249 10.6586 16.4984C10.7315 16.0429 10.8841 15.6589 11.0167 15.262C11.1029 15.0798 11.1958 14.8975 11.2753 14.7088C11.3881 14.5526 11.4478 14.3379 11.587 14.2012C11.965 13.5049 12.5287 12.9843 13.1057 12.4832C13.729 12.0342 14.4386 11.6698 15.2941 11.4485C16.1164 11.2663 17.2371 11.2338 18.1258 11.4225C19.9296 11.7869 21.289 12.5808 22.4297 13.596C23.5836 14.5917 24.4722 15.8542 25.0823 17.39C25.7123 18.8477 25.9311 21.1188 25.3675 22.7717C25.1354 22.6416 24.9032 22.5179 24.6711 22.3943C24.3926 22.3162 24.1207 22.2251 23.7958 22.1926C23.4045 22.1861 23.0199 22.1926 22.7679 22.3162C23.2785 22.2641 23.6897 22.4008 24.008 22.5179C24.1937 22.5895 24.2998 22.6351 24.4457 22.7197C24.7308 22.8824 24.9828 23.032 25.195 23.2533C25.7985 23.7739 26.2296 24.4637 26.4351 25.3748C26.4351 25.4008 26.4683 25.3943 26.4617 25.3488C26.4882 25.3422 26.5015 25.3227 26.5147 25.2967C26.5479 25.2576 26.5877 25.2186 26.6208 25.173C26.6871 25.095 26.7535 25.0169 26.7999 24.9192C26.9391 24.7566 27.0519 24.5743 27.158 24.3856C27.4034 24.0342 27.589 23.6307 27.8013 23.2468C28.166 22.4268 28.4644 21.5418 28.6501 20.5396C29.0215 18.314 28.5771 16.2056 27.8013 14.6503C27.0055 13.0819 25.8914 11.826 24.4523 10.8824C23 9.94527 21.3023 9.25546 18.968 9.19038C18.9547 9.14483 18.9348 9.19689 18.8884 9.19038C17.6549 9.15134 16.6602 9.32054 15.6721 9.56782C15.2145 9.7175 14.737 9.84765 14.3325 10.0494C13.8683 10.1991 13.4969 10.4464 13.0725 10.6286C12.92 10.7717 12.6879 10.8433 12.5287 10.98C12.3231 11.0776 12.1706 11.2338 11.965 11.3314C11.6334 11.6177 11.282 11.8715 10.957 12.1644C10.6387 12.4507 10.3602 12.7761 10.0551 13.0754C10.0087 13.1795 9.92913 13.2511 9.84955 13.3292C9.79649 13.4268 9.73018 13.5114 9.64397 13.583C9.61081 13.7001 9.5047 13.7457 9.46492 13.8628C9.3787 13.9279 9.35881 14.0581 9.25934 14.1166C9.17313 14.3249 9.0206 14.4746 8.92113 14.6698C8.80176 14.8585 8.70891 15.0667 8.58955 15.249C8.40386 15.672 8.20491 16.0819 8.05239 16.5375C7.89323 16.98 7.7606 17.4485 7.66776 17.9561C7.56828 18.4312 7.47544 19.0494 7.4887 19.5505C7.42239 19.7327 7.47544 20.0711 7.4887 20.2858C7.4887 20.3249 7.46218 20.3379 7.46218 20.3639C7.46218 20.6047 7.52849 20.8976 7.54176 21.0472C7.59481 21.6004 7.69428 22.1145 7.85344 22.5635C7.95291 23.0646 8.16512 23.455 8.31765 23.9041C8.54976 24.2815 8.70891 24.7305 8.98744 25.0689C9.19302 25.4659 9.48481 25.7783 9.76334 26.1036C10.0618 26.416 10.3602 26.7349 10.7183 26.9887C11.3748 27.5483 12.1441 27.9973 12.9863 28.3813C14.558 29.1297 16.9056 29.6177 19.0144 29.4941C19.5516 29.4225 20.0953 29.3574 20.5861 29.2403C21.037 29.0776 21.5609 28.98 22.1047 28.9149C23.3448 28.8368 24.4191 28.9475 25.3741 29.2208C26.3423 29.4746 27.1779 29.8585 27.9007 30.3596C28.2854 30.5809 28.6037 30.8672 28.9286 31.1405C29.2602 31.4203 29.5255 31.7652 29.8305 32.0776C29.8703 32.1947 29.9499 32.2793 30.0096 32.3835C30.0891 32.4681 30.0494 32.6633 30.2417 32.6373C30.361 32.5201 30.2218 32.3509 30.2151 32.2078C30.0958 32.0841 30.0693 31.9214 29.9764 31.8173Z" fill="#FCB316"/>
<path d="M25.2178 24.8334C25.186 24.8334 25.178 24.85 25.1541 24.8555C25.0984 24.9386 25.1223 25.0714 25.1541 25.1545C25.3213 25.3926 25.377 25.7026 25.7431 25.8023C25.9182 25.7635 25.9022 25.5863 25.8943 25.4147C25.8147 25.2043 25.7033 25.0161 25.5202 24.8777C25.3929 24.8445 25.3053 24.7891 25.2178 24.8334ZM23.0531 25.4369C23.0531 25.4258 23.0292 25.4147 23.0212 25.4369C22.7188 25.4092 22.6153 25.5254 22.4641 25.6085C22.2015 26.0902 22.6233 26.5608 23.3635 26.5552C23.6579 26.5054 23.841 26.3725 23.8887 26.1455C23.8489 25.7414 23.6022 25.4811 23.0531 25.4369Z" fill="#FCB316"/>
<path d="M38.6239 26.0318C38.7552 26.5624 39.0353 26.9414 39.3504 27.2951C39.6655 27.6488 40.0331 27.9435 40.4795 28.1625C40.8996 28.4151 41.3547 28.6257 41.8798 28.7688C42.1337 28.853 42.3787 28.9541 42.6938 28.9878C42.9126 29.1057 43.1752 29.1646 43.1927 29.4678C43.184 29.8299 42.9301 29.9647 42.6063 30.0321C42.2825 29.9647 41.8798 29.9731 41.6085 29.8552C40.9258 29.7794 40.3744 29.5689 39.7968 29.3752C38.6939 28.9625 37.7662 28.3646 36.996 27.6319C36.8384 27.3793 36.6196 27.1772 36.4533 26.9329C36.287 26.6887 36.1732 26.394 35.9982 26.1497C34.6503 25.9813 33.7313 25.3918 32.9261 24.7097C32.1821 23.8928 31.587 22.9159 31.3419 21.619C31.0531 20.3726 31.1406 18.8146 31.4819 17.6103C32.2259 15.2776 33.7838 13.728 36.7246 13.5175C37.5386 13.5427 38.2476 13.6354 38.8953 13.8712C39.5517 14.0985 40.1731 14.5196 40.6633 14.9575C40.707 14.9912 40.7245 14.9996 40.7508 15.0418C40.8558 15.1849 41.1096 15.387 41.2497 15.5639C41.2759 15.5976 41.2672 15.6565 41.2934 15.6986C41.3459 15.7744 41.4247 15.8081 41.4772 15.8755C41.5035 15.9176 41.4947 15.9681 41.521 16.0018C41.556 16.0523 41.5998 16.1281 41.6523 16.2208C41.6698 16.2545 41.7311 16.2797 41.7398 16.305C41.8186 16.4481 41.8536 16.625 41.9236 16.785C41.9936 16.9534 42.0899 17.0966 42.1512 17.265C42.3262 17.7619 42.44 18.3514 42.51 18.9578C42.6851 20.7094 42.3262 22.2758 41.6523 23.438C41.3372 24.0444 40.8996 24.5412 40.3832 24.9623C39.9105 25.4423 39.2629 25.7287 38.6239 26.0318ZM36.4533 15.067C36.0595 15.0923 35.8231 15.2691 35.4993 15.3702C35.2892 15.5555 35.0267 15.6986 34.8691 15.9344C34.6066 16.0776 34.5365 16.3976 34.3265 16.5829C34.1514 17.004 33.9851 17.4756 33.8713 18.023C33.7663 18.5619 33.6963 19.1683 33.6875 19.7662C33.6788 21.2653 34.0114 22.7559 34.6328 23.6401C35.0004 24.0696 35.4468 24.4233 35.9894 24.6844C36.3045 24.7097 36.5496 24.8107 36.8909 24.8191C37.0835 24.7518 37.3986 24.8191 37.5211 24.6844C37.8012 24.7012 37.8625 24.5244 38.1075 24.5075C38.2388 24.3812 38.3789 24.2802 38.5627 24.2044C38.729 24.0275 38.8865 23.8507 39.0616 23.6822C39.1491 23.5559 39.2016 23.3791 39.3329 23.2864C40.1206 21.8379 40.2081 19.1851 39.6917 17.5008C39.4992 16.8861 39.2278 16.3892 38.9215 15.9765C38.5889 15.6481 38.1951 15.3702 37.7487 15.1512C37.3898 15.0754 37.0485 14.9828 36.5759 15.0249C36.5496 15.0249 36.5233 15.0333 36.5321 15.067C36.5146 15.067 36.4883 15.067 36.4533 15.067ZM46.0023 13.8459C46.7112 13.8712 47.5427 13.7869 48.1729 13.888C48.3129 14.0985 48.2604 14.3512 48.2604 14.587C48.3129 17.7787 48.2604 21.2063 48.2604 24.4654C48.2604 24.7265 48.2691 24.996 48.2604 25.2486C48.2516 25.4676 48.3129 25.7034 48.1729 25.9055C47.8578 25.9813 47.4026 25.9476 47 25.9476C46.5712 25.9476 46.1511 26.0066 45.871 25.8634C45.7922 22.0064 45.7922 17.8461 45.871 13.9806C45.8885 13.9133 45.9322 13.8712 46.0023 13.8459ZM51.4288 13.8459H53.5556C53.7482 14.0985 53.8095 14.4775 53.8707 14.8481C54.5096 17.1892 55.1398 19.5388 55.7262 21.939C55.8663 21.9558 55.8225 21.7958 55.8663 21.72C55.9276 21.6611 55.8925 21.5179 55.9538 21.459C55.9801 21.2653 56.1026 21.1642 56.0938 20.9368C56.2514 20.6421 56.3039 20.2378 56.4527 19.9347C56.6365 19.2272 56.8816 18.5704 57.0916 17.8882C57.2929 17.1808 57.5643 16.5408 57.7218 15.7997C58.0194 15.2018 58.0894 14.3849 58.4483 13.8459H59.3498C59.6736 14.4354 59.7961 15.2186 60.0762 15.8502C60.26 16.5576 60.5138 17.1977 60.7064 17.8966C61.1528 19.2525 61.6167 20.5915 62.0193 21.9895C62.2031 21.7284 62.2031 21.2905 62.3344 20.9873C62.4131 20.6421 62.4831 20.2884 62.6057 19.9852C62.9558 18.6041 63.2884 17.2145 63.691 15.8923C63.8398 15.2018 63.9886 14.4944 64.2336 13.888C64.7588 13.8122 65.564 13.8122 66.0892 13.888C66.1329 14.4017 65.8879 14.9575 65.7303 15.4123C65.6428 15.9681 65.4327 16.3976 65.3189 16.9366C64.9951 17.9219 64.75 18.9662 64.4174 19.9431C64.1636 20.9873 63.8223 21.9474 63.5597 22.9917C63.3846 23.4717 63.2621 24.0023 63.1046 24.516C62.9295 24.9876 62.8683 25.5687 62.6057 25.956H61.3366C61.0127 25.4086 60.8989 24.6676 60.6101 24.0865C59.9799 22.1664 59.2797 20.322 58.6671 18.3851C58.457 18.5956 58.457 19.0251 58.3082 19.2946C58.2119 19.6231 58.1157 19.9515 57.9931 20.2547C57.8181 20.92 57.5555 21.4842 57.4067 22.1664C57.1529 22.7643 56.9691 23.4296 56.7765 24.0865C56.514 24.6591 56.4177 25.3918 56.0938 25.9139C55.7613 26.015 55.2361 25.9308 54.8247 25.956C54.5097 25.6108 54.4746 24.9876 54.2821 24.516C54.1333 24.0275 54.0283 23.4885 53.8357 23.0338C53.5906 21.9727 53.223 21.0379 52.978 19.9852C52.6541 19.0083 52.374 17.9893 52.0765 16.9787C51.9102 16.4987 51.7876 15.985 51.6213 15.4965C51.5426 14.9744 51.175 14.5028 51.3062 13.9301C51.3238 13.888 51.3763 13.8627 51.4288 13.8459ZM69.2926 13.8459C70.0015 13.8712 70.8242 13.7869 71.4632 13.888C71.6207 14.3428 71.5507 14.8312 71.5507 15.3197V24.457C71.5507 24.9539 71.612 25.4339 71.4632 25.8971C70.973 25.9476 70.2553 25.9729 69.6514 25.9392C69.4764 25.9308 69.2663 25.9813 69.1525 25.855C68.995 25.4002 69.065 24.9202 69.065 24.4149V15.3702C69.065 14.8228 69.0125 14.2922 69.1525 13.9301C69.1875 13.888 69.24 13.8627 69.2926 13.8459Z" fill="#0269B3"/>
</g>
<defs>
<clipPath id="clip0_416_506">
<rect width="64.1102" height="26.9449" fill="white" transform="translate(7.45605 7.43311)"/>
</clipPath>
</defs>
</svg>
