<svg width="83" height="80" viewBox="0 0 83 80" fill="none" xmlns="http://www.w3.org/2000/svg">
<path fill-rule="evenodd" clip-rule="evenodd" d="M42.1987 0.00144116C54.1962 0.076659 66.341 3.21864 74.1056 12.4254C82.1434 21.9561 84.6271 34.9638 81.987 47.1799C79.3117 59.5585 71.6677 70.4394 60.3641 76.0086C48.9739 81.6205 35.6512 81.1448 24.2055 75.6485C12.7049 70.1259 3.8365 60.0084 1.00313 47.5032C-1.82969 35.0004 1.41129 21.6829 9.78942 12.0222C17.7553 2.83687 30.086 -0.0744987 42.1987 0.00144116Z" fill="#1975FF"/>
<g style="mix-blend-mode:screen">
<path d="M40.2888 4C41.5078 4 42.7565 4.06209 43.8863 4.58986C44.9863 5.11762 45.9377 6.20418 45.9972 7.47702C46.0567 8.78091 45.1647 9.99166 44.0944 10.6436C43.0241 11.2955 41.7456 11.5439 40.5267 11.8544C34.7886 13.2514 30.2397 15.0209 25.0071 17.846C19.0014 21.1057 12.9957 24.3654 7.01981 27.6251C6.51439 27.9045 5.8603 28.1839 5.38461 27.8425C4.73052 27.3768 5.02784 26.3213 5.41434 25.6072C10.3794 16.2627 18.7041 9.49494 28.337 6.08C32.1425 4.74508 36.2157 4 40.2888 4Z" fill="url(#paint0_linear_416_621)"/>
</g>
<path d="M61.2242 47.6327C61.2242 47.6327 63.3499 47.8609 64.5058 45.9686C65.6618 44.0763 65.4927 42.7795 64.0357 41.9509L61.1194 40.2801M61.2242 47.6327L50.6706 41.1718M61.2242 47.6327C61.2242 47.6327 62.9039 49.3869 61.653 51.4165C60.4021 53.4462 57.3643 52.7758 57.3643 52.7758M57.3643 52.7758L47.7229 46.757M57.3643 52.7758C57.3643 52.7758 58.3031 54.7208 56.9428 56.4682C55.5826 58.2157 53.3063 57.4713 53.3063 57.4713L48.9045 54.8102M48.9045 54.8102L44.5027 52.1491M48.9045 54.8102C48.9045 54.8102 50.578 56.8669 49.3437 58.6524C48.1093 60.438 45.9671 60.4539 44.7413 59.5846L40.4654 56.9615M40.4654 56.9615L37.6581 61.3159C37.6581 61.3159 35.9326 62.3438 34.3189 61.3017C32.7051 60.2596 32.6062 58.3473 32.6062 58.3473M40.4654 56.9615L41.353 55.2372C41.9227 54.4131 41.023 53.3657 39.8075 52.5548C38.592 51.744 36.7428 52.0701 36.7428 52.0701M32.6062 58.3473L36.7428 52.0701M32.6062 58.3473C32.6062 58.3473 29.5515 61.2981 27.7396 59.8085C25.9278 58.3189 26.3449 55.9538 26.3449 55.9538M36.7428 52.0701C36.7428 52.0701 36.3716 49.9646 34.894 49.0191C33.4164 48.0736 31.2824 48.8117 31.2824 48.8117M26.3449 55.9538L31.2824 48.8117M26.3449 55.9538C26.3449 55.9538 23.9671 59.0264 21.5939 57.3946C19.2207 55.7627 20.8845 52.6954 20.8845 52.6954M31.2824 48.8117C31.2824 48.8117 32.3002 45.798 30.8453 44.3057C29.3905 42.8135 26.6021 44.5715 26.6021 44.5715M26.6021 44.5715C26.6021 44.5715 26.6313 42.0336 25.2281 40.8338C23.8248 39.6339 22.376 39.5276 21.6907 40.3721L19.3351 43.9084M26.6021 44.5715L20.8845 52.6954M20.8845 52.6954C20.8845 52.6954 18.3459 53.5049 16.9798 52.1779C15.6137 50.8509 15.6552 49.3963 16.3198 48.4348L19.3351 43.9084M19.3351 43.9084L13.3561 40.1464C11.6308 39.0609 11.1101 36.762 12.1985 35.0357L16.6941 27.9046C17.2138 27.0803 18.2208 26.7188 19.1416 27.0259L22.4365 28.1246C24.9765 28.9717 27.7657 28.328 29.681 26.4526C31.939 24.2416 35.3624 23.7785 38.1303 25.3095L38.759 25.6573M38.759 25.6573L39.5579 24.9216C41.5944 23.0465 44.5894 22.6924 47.0113 24.0405L47.4497 24.2845C49.9605 25.6821 53.0746 25.2457 55.1018 23.2123L58.1791 20.1256C59.3534 18.9478 61.2462 18.9365 62.4435 20.1002L67.8093 25.3154C68.8701 26.3464 69.0579 27.9921 68.2563 29.2329L61.1194 40.2801M38.759 25.6573L34.0624 30.11C33.0303 31.0156 32.9642 31.9921 34.4706 33.7768C35.9769 35.5615 37.8055 35.1185 38.8375 34.2129L40.793 32.6688C42.5854 31.2535 45.0487 31.0726 47.0347 32.2105L61.1194 40.2801" stroke="white" stroke-width="2" stroke-linecap="round" stroke-linejoin="round"/>
<defs>
<linearGradient id="paint0_linear_416_621" x1="16.1133" y1="2.19723" x2="29.9741" y2="22.4149" gradientUnits="userSpaceOnUse">
<stop stop-color="#BABB98"/>
<stop offset="0.1539" stop-color="#9C9D7F"/>
<stop offset="0.7399" stop-color="#2C2D24"/>
<stop offset="1"/>
</linearGradient>
</defs>
</svg>
