<svg width="25" height="25" viewBox="0 0 25 25" fill="none" xmlns="http://www.w3.org/2000/svg">
<path d="M10.1917 16.6667H15.8083V14.6667H10.1917V16.6667ZM15.8083 16.6667C17.7551 16.6667 19.3333 18.2449 19.3333 20.1917H21.3333C21.3333 17.1403 18.8597 14.6667 15.8083 14.6667V16.6667ZM10.1917 14.6667C7.14029 14.6667 4.66667 17.1403 4.66667 20.1917H6.66667C6.66667 18.2449 8.24486 16.6667 10.1917 16.6667V14.6667ZM15.6667 8.33333C15.6667 9.80609 14.4728 11 13 11V13C15.5773 13 17.6667 10.9107 17.6667 8.33333H15.6667ZM13 11C11.5272 11 10.3333 9.80609 10.3333 8.33333H8.33333C8.33333 10.9107 10.4227 13 13 13V11ZM10.3333 8.33333C10.3333 6.86057 11.5272 5.66667 13 5.66667V3.66667C10.4227 3.66667 8.33333 5.756 8.33333 8.33333H10.3333ZM13 5.66667C14.4728 5.66667 15.6667 6.86057 15.6667 8.33333H17.6667C17.6667 5.756 15.5773 3.66667 13 3.66667V5.66667ZM23 12C23 17.5228 18.5228 22 13 22V24C19.6274 24 25 18.6274 25 12H23ZM13 22C7.47715 22 3 17.5228 3 12H1C1 18.6274 6.37258 24 13 24V22ZM3 12C3 6.47715 7.47715 2 13 2V0C6.37258 0 1 5.37258 1 12H3ZM13 2C18.5228 2 23 6.47715 23 12H25C25 5.37258 19.6274 0 13 0V2Z" fill="white"/>
</svg>
