<svg width="16" height="19" viewBox="0 0 16 19" fill="none" xmlns="http://www.w3.org/2000/svg">
<path fill-rule="evenodd" clip-rule="evenodd" d="M7.44638 0.0122463C4.60424 0.217955 2.10914 1.87181 0.83675 4.39334C0.267575 5.52129 0.000607167 6.64633 1.33991e-06 7.91966C-0.000453031 8.82565 0.114629 9.57537 0.38036 10.398C0.647959 11.2264 1.1743 12.1955 1.73194 12.8865C1.82639 13.0035 3.22745 14.4138 4.84541 16.0204C6.61269 17.6712 7.47333 18.4321 7.85123 18.7563C7.99898 18.883 8.21314 18.876 8.35511 18.7428C8.76229 18.3607 9.68105 17.487 11.158 16.0204C12.776 14.4138 14.1771 13.0035 14.2716 12.8865C14.9313 12.0697 15.4933 10.9537 15.7505 9.94971C15.9535 9.15739 16.0159 8.59681 15.9967 7.7368C15.9826 7.10656 15.9348 6.69997 15.8127 6.17213C15.4028 4.3997 14.3816 2.80441 12.9433 1.68951C11.6972 0.723617 10.2299 0.153724 8.65036 0.0221838C8.35398 -0.00249729 7.72206 -0.00770385 7.44638 0.0122463ZM8.58417 4.36533C9.26068 4.47795 9.88095 4.79294 10.3893 5.28203C10.8892 5.76301 11.1799 6.2667 11.3536 6.95294C11.4141 7.19244 11.4204 7.26208 11.4212 7.70499C11.4219 8.08506 11.4119 8.24019 11.3762 8.40587C11.2295 9.08477 10.9235 9.6419 10.4266 10.1346C9.76221 10.7935 8.93586 11.1341 8.00172 11.1341C7.05991 11.1341 6.23992 10.7936 5.56501 10.1222C5.08007 9.63977 4.77958 9.09524 4.63178 8.4309C4.569 8.14875 4.5532 7.47405 4.60275 7.19184C4.69183 6.6847 4.8678 6.24044 5.14214 5.83012C5.32265 5.56016 5.71651 5.15532 5.98553 4.96328C6.39183 4.67317 6.9162 4.45306 7.40851 4.36596C7.68795 4.31652 8.28893 4.31619 8.58417 4.36533Z" fill="#FF551A"/>
</svg>
