<svg width="80" height="42" viewBox="0 0 80 42" fill="none" xmlns="http://www.w3.org/2000/svg">
<rect x="0.542969" width="78.9764" height="41.811" rx="7" fill="white"/>
<path d="M30.8677 13.8721C31.3532 14.5227 31.7642 15.2295 32.0924 15.9783L22.7825 23.0916L18.8916 20.5636V17.5223L22.7825 20.0503L30.8677 13.8721Z" fill="#21A038"/>
<path d="M14.9208 20.3489C14.9208 20.2124 14.924 20.0768 14.9304 19.942L12.5724 19.8223C12.5644 19.997 12.5596 20.1733 12.5596 20.3513C12.5586 21.7421 12.8225 23.1193 13.3362 24.4041C13.8499 25.6889 14.6033 26.8558 15.5532 27.8381L17.2258 26.1053C16.4946 25.3506 15.9145 24.4534 15.519 23.4655C15.1234 22.4776 14.9201 21.4184 14.9208 20.3489Z" fill="url(#paint0_linear_416_468)"/>
<path d="M22.78 12.2025C22.9116 12.2025 23.0424 12.2075 23.1724 12.2142L23.2904 9.76932C23.1213 9.761 22.9512 9.75684 22.78 9.75684C21.4375 9.75515 20.1081 10.0283 18.8678 10.5606C17.6275 11.093 16.501 11.874 15.5527 12.8589L17.2253 14.5925C17.9536 13.8344 18.8192 13.233 19.7725 12.8228C20.7257 12.4127 21.7478 12.2018 22.78 12.2025Z" fill="url(#paint1_linear_416_468)"/>
<path d="M22.7807 28.4953C22.6491 28.4953 22.5183 28.4953 22.3875 28.4845L22.2695 30.9285C22.4391 30.9374 22.6096 30.9418 22.7807 30.9418C24.1226 30.9433 25.4515 30.6699 26.691 30.1374C27.9306 29.6049 29.0565 28.8238 30.004 27.839L28.3346 26.1062C27.6063 26.8639 26.7407 27.465 25.7876 27.875C24.8345 28.285 23.8127 28.4958 22.7807 28.4953Z" fill="url(#paint2_linear_416_468)"/>
<path d="M27.2108 13.624L29.198 12.1059C27.3817 10.5815 25.1145 9.75163 22.7773 9.75588V12.2024C24.3599 12.2004 25.9058 12.6961 27.2108 13.624Z" fill="url(#paint3_linear_416_468)"/>
<path d="M33.0003 20.349C33.0016 19.7126 32.9479 19.0772 32.8397 18.4507L30.6399 20.131C30.6399 20.2035 30.6399 20.2758 30.6399 20.349C30.6405 21.4872 30.4103 22.6129 29.9643 23.653C29.5182 24.6931 28.8663 25.6244 28.0508 26.3866L29.6375 28.2043C30.6977 27.2122 31.545 26.0003 32.1243 24.6471C32.7036 23.2938 33.0021 21.8295 33.0003 20.349Z" fill="#21A038"/>
<path d="M22.7809 28.4954C21.6827 28.4958 20.5966 28.2571 19.593 27.7948C18.5894 27.3325 17.6907 26.6569 16.955 25.8118L15.2021 27.4555C16.1592 28.5546 17.3284 29.4329 18.634 30.0336C19.9396 30.6341 21.3524 30.9436 22.7809 30.9418V28.4954Z" fill="url(#paint4_linear_416_468)"/>
<path d="M17.5099 14.311L15.924 12.4934C14.8634 13.4853 14.0159 14.6972 13.4363 16.0504C12.8567 17.4037 12.558 18.8681 12.5596 20.3487H14.9208C14.9203 19.2105 15.1505 18.0849 15.5965 17.0448C16.0425 16.0047 16.6944 15.0733 17.5099 14.311Z" fill="url(#paint5_linear_416_468)"/>
<path fill-rule="evenodd" clip-rule="evenodd" d="M37.9971 27.4689V12.4943H43.4827C46.3147 12.4943 48.2932 14.4922 48.2932 17.4122C48.2932 20.3322 46.2772 22.3493 43.4077 22.3493H40.2664V27.4689H37.9971ZM55.7856 25.6727C55.1855 26.8445 53.8633 27.5841 52.438 27.5841C50.3281 27.5841 48.8559 26.297 48.8559 24.3568C48.8559 22.4357 50.2812 21.3311 52.9162 21.1678L55.7481 20.9949V20.1689C55.7481 18.949 54.9698 18.2862 53.582 18.2862C52.438 18.2862 51.6034 18.8914 51.4346 19.8135H49.3904C49.456 17.8732 51.2377 16.4612 53.6476 16.4612C56.2451 16.4612 57.933 17.854 57.933 20.0152V27.4689H55.8325V25.6727H55.7856ZM60.7368 31.5415C62.9498 31.5415 63.9907 30.677 64.9003 28.0548L68.8856 16.6053H66.5788L63.9063 25.4518H63.8594L61.1869 16.6053H58.8145L62.6591 27.5073L62.4528 28.1701C62.1059 29.2939 61.5433 29.7261 60.5399 29.7261C60.3617 29.7261 60.0148 29.7069 59.8741 29.6877V31.4839C60.0054 31.5223 60.568 31.5415 60.7368 31.5415ZM40.2666 14.4537H42.8828C44.8521 14.4537 45.9773 15.5295 45.9773 17.4218C45.9773 19.314 44.8521 20.3994 42.8735 20.3994H40.2666V14.4537ZM53.0477 25.8072C51.8381 25.8072 51.0691 25.2116 51.0691 24.2991C51.0691 23.3578 51.8099 22.8103 53.2259 22.7239L55.7484 22.5606V23.4058C55.7484 24.8082 54.5856 25.8072 53.0477 25.8072Z" fill="black"/>
<defs>
<linearGradient id="paint0_linear_416_468" x1="16.0307" y1="27.5328" x2="13.2814" y2="19.8649" gradientUnits="userSpaceOnUse">
<stop offset="0.14" stop-color="#F1E813"/>
<stop offset="0.3" stop-color="#E6E418"/>
<stop offset="0.58" stop-color="#C9DA26"/>
<stop offset="0.89" stop-color="#A2CC39"/>
</linearGradient>
<linearGradient id="paint1_linear_416_468" x1="16.2269" y1="13.2914" x2="22.9302" y2="10.8268" gradientUnits="userSpaceOnUse">
<stop offset="0.06" stop-color="#0FA7DF"/>
<stop offset="0.54" stop-color="#0098F8"/>
<stop offset="0.92" stop-color="#0290EA"/>
</linearGradient>
<linearGradient id="paint2_linear_416_468" x1="22.1139" y1="29.4652" x2="29.6529" y2="27.8221" gradientUnits="userSpaceOnUse">
<stop offset="0.12" stop-color="#A2CC39"/>
<stop offset="0.28" stop-color="#86C239"/>
<stop offset="0.87" stop-color="#219F38"/>
</linearGradient>
<linearGradient id="paint3_linear_416_468" x1="22.2862" y1="10.5753" x2="28.7489" y2="12.4994" gradientUnits="userSpaceOnUse">
<stop offset="0.06" stop-color="#0290EA"/>
<stop offset="0.79" stop-color="#0C89CA"/>
</linearGradient>
<linearGradient id="paint4_linear_416_468" x1="15.7944" y1="27.1577" x2="22.8463" y2="29.7005" gradientUnits="userSpaceOnUse">
<stop offset="0.13" stop-color="#F1E813"/>
<stop offset="0.3" stop-color="#EAE616"/>
<stop offset="0.53" stop-color="#D8DF1F"/>
<stop offset="0.8" stop-color="#BAD52D"/>
<stop offset="0.98" stop-color="#A2CC39"/>
</linearGradient>
<linearGradient id="paint5_linear_416_468" x1="13.4392" y1="20.6448" x2="16.4258" y2="13.1491" gradientUnits="userSpaceOnUse">
<stop offset="0.07" stop-color="#A2CC39"/>
<stop offset="0.26" stop-color="#81C45E"/>
<stop offset="0.92" stop-color="#0FA7DF"/>
</linearGradient>
</defs>
</svg>
