<svg width="80" height="43" viewBox="0 0 80 43" fill="none" xmlns="http://www.w3.org/2000/svg">
<rect x="0.441406" y="0.314941" width="78.9764" height="41.811" rx="7" fill="white"/>
<g clip-path="url(#clip0_416_512)">
<path d="M64.6173 17.7777V25.2739H61.9294V20.0155H59.3413V25.2739H56.6533V17.7772H64.6173V17.7777Z" fill="black"/>
<path fill-rule="evenodd" clip-rule="evenodd" d="M51.1329 25.5419C53.5391 25.5419 55.3259 24.0727 55.3259 21.8454C55.3259 19.6897 54.0076 18.29 51.8044 18.29C50.7875 18.29 49.9485 18.6464 49.3166 19.2614C49.4674 17.9903 50.5469 17.0622 51.7353 17.0622C52.0096 17.0622 54.0746 17.0579 54.0746 17.0579L55.2423 14.8326C55.2423 14.8326 52.6498 14.8914 51.4446 14.8914C48.691 14.9392 46.8311 17.4317 46.8311 20.459C46.8311 23.9858 48.6451 25.5419 51.1329 25.5419ZM51.1475 20.261C52.0409 20.261 52.6603 20.8456 52.6603 21.8452C52.6603 22.7448 52.11 23.4861 51.1475 23.4881C50.2269 23.4881 49.6075 22.8013 49.6075 21.8605C49.6075 20.8607 50.2269 20.261 51.1475 20.261Z" fill="black"/>
<path d="M44.6433 22.7643C44.6433 22.7643 44.0085 23.1287 43.0604 23.1977C41.9705 23.2299 40.9993 22.5443 40.9993 21.3263C40.9993 20.1382 41.8563 19.4572 43.033 19.4572C43.7545 19.4572 44.709 19.9552 44.709 19.9552C44.709 19.9552 45.4074 18.6789 45.7692 18.0407C45.1067 17.5406 44.2243 17.2665 43.198 17.2665C40.6078 17.2665 38.6016 18.9483 38.6016 21.3112C38.6016 23.7044 40.4872 25.347 43.198 25.2975C43.9556 25.2694 45.0009 25.0044 45.638 24.5969L44.6433 22.7643Z" fill="black"/>
<path d="M11.5908 12.5637L15.3195 19.2006V23.249L11.5952 29.8729L11.5908 12.5637Z" fill="#5B57A2"/>
<path d="M25.9072 16.7855L29.4011 14.653L36.5515 14.6464L25.9072 21.1399V16.7855Z" fill="#D90751"/>
<path d="M25.8875 12.5246L25.9073 21.3117L22.1699 19.0249V5.88977L25.8878 12.5246H25.8875Z" fill="#FAB718"/>
<path d="M36.5515 14.6464L29.4009 14.6531L25.8875 12.5246L22.1699 5.88977L36.5513 14.6464H36.5515Z" fill="#ED6F26"/>
<path d="M25.9073 29.9097V25.6465L22.1699 23.4031L22.172 36.5512L25.9073 29.9097Z" fill="#63B22F"/>
<path d="M29.3924 27.7966L15.3192 19.2006L11.5908 12.5637L36.5364 27.7879L29.3921 27.7966H29.3924Z" fill="#1487C9"/>
<path d="M22.1719 36.5511L25.9067 29.9096L29.3918 27.7965L36.5358 27.7878L22.1719 36.5511Z" fill="#017F36"/>
<path d="M11.5947 29.8729L22.2 23.4033L18.6345 21.2249L15.319 23.249L11.5947 29.8729Z" fill="#984995"/>
</g>
<defs>
<clipPath id="clip0_416_512">
<rect width="61.3228" height="30.6614" fill="white" transform="translate(11.5908 5.88977)"/>
</clipPath>
</defs>
</svg>
