<svg width="26" height="26" viewBox="0 0 26 26" fill="none" xmlns="http://www.w3.org/2000/svg">
<path fill-rule="evenodd" clip-rule="evenodd" d="M6.62938 0.029709C4.25627 0.211675 2.46315 0.910389 1.53709 2.01398C1.37508 2.20704 1.30799 2.30072 1.18178 2.51013C1.03192 2.75877 0.808215 3.22565 0.821887 3.26129C0.828128 3.27754 0.825453 3.28602 0.815962 3.28015C0.806451 3.27429 0.77889 3.3251 0.754716 3.39307C0.730523 3.46105 0.69458 3.55681 0.674844 3.60586C0.509692 4.0161 0.302908 4.86876 0.182179 5.63717C0.122915 6.01446 0.0572898 6.65614 0.021406 7.20943C-0.00663136 7.6415 -0.00736466 18.6191 0.0206132 19.0245C0.12553 20.5448 0.372814 21.7087 0.803618 22.7101C1.1168 23.4382 1.47435 23.9603 1.96426 24.4052C2.11491 24.542 2.28435 24.6639 2.54958 24.8264C3.76414 25.5705 5.24763 25.8912 7.88428 25.9797C8.68486 26.0066 18.8732 26.0069 19.2511 25.98C20.7705 25.8722 22.0044 25.5776 22.9961 25.0862C23.6173 24.7783 24.0855 24.4312 24.4359 24.0187C24.6157 23.807 24.8487 23.4714 24.8487 23.4241C24.8487 23.4129 24.857 23.4038 24.8672 23.4038C24.8774 23.4038 24.8918 23.3837 24.8992 23.3592C24.9067 23.3347 24.9234 23.3012 24.9364 23.2848C24.9683 23.2446 25.1474 22.8594 25.2361 22.6403C25.6313 21.6645 25.8695 20.4326 25.9795 18.7961C26.0078 18.3739 26.0063 7.39314 25.9779 6.95505C25.8567 5.09094 25.4724 3.63394 24.8122 2.5357C24.5989 2.18076 24.277 1.79941 23.9791 1.5487C23.9183 1.49751 23.8506 1.43952 23.8286 1.41982C23.78 1.37626 23.3384 1.10016 23.1754 1.01144C22.6513 0.726222 21.9332 0.476043 21.239 0.336844C20.7697 0.242749 20.756 0.240371 20.44 0.19806C19.7638 0.107533 19.0381 0.0519644 18.1019 0.0190472C17.217 -0.0120666 7.05097 -0.00261368 6.62938 0.029709ZM7.02303 7.84887C7.20344 7.87142 7.33729 7.932 7.44552 8.04007C7.48643 8.08093 7.52753 8.11193 7.53682 8.10894C7.54609 8.10594 7.54879 8.11143 7.54278 8.12114C7.53678 8.13085 7.5577 8.18682 7.58929 8.2455C7.6504 8.3591 7.6801 8.43319 7.85839 8.917C8.00589 9.31724 8.23094 9.86863 8.41248 10.2745C8.50992 10.4924 8.89141 11.2434 8.98458 11.4008C9.0351 11.4862 9.07646 11.5595 9.07646 11.5637C9.07646 11.5902 9.61162 12.4481 9.65064 12.4842C9.65654 12.4896 9.68719 12.5342 9.71878 12.5833C9.84228 12.7751 10.085 13.0761 10.2458 13.2369C10.5499 13.5411 10.7034 13.6336 10.9039 13.6336C11.0468 13.6336 11.12 13.5563 11.1652 13.3576C11.1949 13.227 11.1987 13.0365 11.1996 11.6139C11.2009 9.87267 11.1962 9.78417 11.0868 9.45721C11.0243 9.27065 10.8994 9.03145 10.7974 8.90297C10.4778 8.50036 10.4247 8.38466 10.4674 8.18375C10.4801 8.1238 10.4887 8.0674 10.4864 8.05842C10.4842 8.04942 10.49 8.04685 10.4994 8.05267C10.5089 8.05852 10.5368 8.03595 10.5615 8.00254C10.5862 7.96914 10.6567 7.91821 10.7182 7.88938L10.83 7.83694H12.4548H14.0796L14.1779 7.88228C14.2992 7.93819 14.3408 7.97495 14.3883 8.06803C14.4719 8.23175 14.4719 8.23377 14.484 10.4446L14.4957 12.5765L14.5555 12.674C14.6788 12.8752 14.8546 12.8837 15.1268 12.7016C15.3802 12.5321 15.7157 12.1913 16.0154 11.7991C16.1403 11.6355 16.5601 11.0358 16.5901 10.978C16.6042 10.9508 16.6204 10.924 16.6262 10.9186C16.637 10.9082 16.7 10.8139 16.7345 10.7563C17.2253 9.93633 17.4886 9.43978 17.8044 8.73864C17.9952 8.3151 18.0518 8.21088 18.1512 8.09996C18.2834 7.9524 18.4383 7.87665 18.6664 7.84804C18.8743 7.82198 20.5702 7.82059 20.8144 7.84627C21.039 7.8699 21.1827 7.93607 21.2584 8.05065C21.3068 8.12408 21.3117 8.14839 21.3108 8.31128C21.3098 8.46964 21.2997 8.52007 21.225 8.73698C21.1273 9.02093 20.8174 9.64984 20.5505 10.1061C20.1068 10.8644 19.6283 11.6077 18.9174 12.6427C18.6705 13.0024 18.5875 13.1474 18.5644 13.2596C18.5145 13.503 18.622 13.6626 19.2852 14.3292C19.5607 14.6062 19.9102 14.9728 20.0619 15.1439C20.2136 15.315 20.3465 15.4496 20.3572 15.443C20.368 15.4363 20.3706 15.441 20.3629 15.4533C20.3553 15.4657 20.383 15.5134 20.4252 15.5604C20.4885 15.6308 20.7113 15.8987 20.8005 16.0115C21.3112 16.6576 21.565 17.0714 21.6472 17.3919C21.7483 17.7864 21.6008 18.0498 21.2327 18.1322C21.1092 18.1598 18.9747 18.1608 18.8549 18.1333C18.8004 18.1207 18.68 18.074 18.5874 18.0293C18.4466 17.9615 18.3879 17.9169 18.2298 17.7578C18.0512 17.578 17.664 17.1657 17.3787 16.8514C17.3078 16.7734 17.2392 16.7126 17.2261 16.7164C17.2131 16.7201 17.2066 16.7122 17.2117 16.6987C17.2243 16.6661 16.5558 16.0087 16.2691 15.7717C15.6491 15.2591 15.2914 15.0729 14.9291 15.0739C14.7218 15.0745 14.6135 15.1223 14.5439 15.2438L14.4957 15.328L14.4848 16.4676C14.4746 17.5256 14.4711 17.6149 14.4356 17.7161C14.3384 17.9933 14.0741 18.1055 13.413 18.1499C12.8733 18.1861 12.3337 18.1312 11.7712 17.9826C11.6677 17.9552 11.5498 17.9242 11.5092 17.9137C11.2182 17.8379 10.5718 17.5618 10.1861 17.3486C9.43006 16.9306 8.55239 16.2031 7.92839 15.4773C7.66807 15.1745 7.28472 14.6524 6.90922 14.0894C6.71658 13.8006 6.54242 13.5375 6.52221 13.5048C6.50199 13.4721 6.45174 13.3918 6.41057 13.3264C6.29059 13.136 5.99936 12.645 5.91678 12.4941C5.87503 12.4178 5.79726 12.2767 5.74396 12.1805C5.44 11.6322 5.05364 10.8031 4.83731 10.2349C4.79166 10.115 4.74487 9.99459 4.73336 9.96734C4.68226 9.84645 4.52971 9.38135 4.46839 9.15949C4.29 8.51411 4.27769 8.22519 4.42014 8.02513C4.4752 7.9478 4.64495 7.86843 4.79855 7.84823C4.97706 7.82475 6.83436 7.82529 7.02303 7.84887Z" fill="white"/>
</svg>
