<svg width="10" height="12" viewBox="0 0 10 12" fill="none" xmlns="http://www.w3.org/2000/svg">
    <path fill-rule="evenodd" clip-rule="evenodd" d="M0.714286 0C0.319797 0 0 0.335786 0 0.75V11.25C0 11.6642 0.319797 12 0.714286 12H2.85714C3.25163 12 3.57143 11.6642 3.57143 11.25V0.75C3.57143 0.335786 3.25163 0 2.85714 0H0.714286Z" fill="#616872"/>
    <path fill-rule="evenodd" clip-rule="evenodd" d="M7.14286 0C6.74837 0 6.42857 0.335786 6.42857 0.75V11.25C6.42857 11.6642 6.74837 12 7.14286 12H9.28571C9.6802 12 10 11.6642 10 11.25V0.75C10 0.335786 9.6802 0 9.28571 0H7.14286Z" fill="#616872"/>
</svg>