<svg width="19" height="19" viewBox="0 0 19 19" fill="none" xmlns="http://www.w3.org/2000/svg">
<path fill-rule="evenodd" clip-rule="evenodd" d="M9.10865 0.117712C8.82327 0.272722 8.76208 0.418603 8.70318 1.08352L8.65493 1.62766L8.06337 1.72765C4.89933 2.26224 2.27302 4.88946 1.73124 8.06174L1.63025 8.65338L1.08619 8.70164C0.412417 8.76131 0.272726 8.82225 0.116557 9.12433C-0.0388523 9.42488 -0.0388523 9.57228 0.116557 9.87284C0.272726 10.1749 0.412417 10.2359 1.08619 10.2955L1.63025 10.3438L1.73166 10.9354C2.17009 13.4929 3.97922 15.7484 6.41092 16.7691C7.0023 17.0172 7.94321 17.2794 8.44366 17.3354C8.63912 17.3572 8.65856 17.4 8.70318 17.9083C8.76276 18.5874 8.82318 18.727 9.1258 18.8834C9.42631 19.0389 9.57369 19.0389 9.8742 18.8834C10.1762 18.7272 10.2372 18.5875 10.2968 17.9137L10.3451 17.3697L10.9929 17.2606C12.1949 17.0583 13.57 16.3997 14.6162 15.5254C15.9735 14.391 16.9802 12.6498 17.2698 10.9354L17.3697 10.3438L17.9138 10.2955C18.5876 10.2359 18.7273 10.1749 18.8834 9.87284C19.0389 9.57228 19.0389 9.42488 18.8834 9.12433C18.7273 8.82225 18.5876 8.76131 17.9138 8.70164L17.3697 8.65338L17.2687 8.06174C16.7375 4.95217 14.0593 2.25277 10.9929 1.73652L10.3451 1.62749L10.2968 1.08344C10.2372 0.409644 10.1762 0.269933 9.8742 0.11374C9.57885 -0.0390724 9.3953 -0.0380581 9.10865 0.117712ZM11.1716 5.92575C12.0455 6.34168 12.6554 6.95124 13.0734 7.82678C13.3817 8.47251 13.3873 8.5026 13.3873 9.49858C13.3873 10.4946 13.3817 10.5247 13.0734 11.1704C12.6559 12.0447 12.0458 12.655 11.1716 13.0725C10.5259 13.3808 10.4958 13.3865 9.5 13.3865C8.50417 13.3865 8.47408 13.3808 7.82844 13.0725C6.95422 12.655 6.34407 12.0447 5.92661 11.1704C5.61832 10.5247 5.61266 10.4946 5.61266 9.49858C5.61266 8.5026 5.61832 8.47251 5.92661 7.82678C6.42343 6.78608 7.26191 6.05972 8.4014 5.68259C8.61648 5.61142 9.06225 5.57838 9.62676 5.59182C10.4537 5.61142 10.5588 5.63416 11.1716 5.92575ZM8.52817 7.35C7.66171 7.74175 7.17698 8.51359 7.17875 9.49858C7.18112 10.8779 8.12388 11.8212 9.5 11.8212C10.8761 11.8212 11.8189 10.8779 11.8212 9.49858C11.823 8.50885 11.3314 7.74124 10.4351 7.33403C9.95288 7.11504 9.03073 7.12273 8.52817 7.35Z" fill="#FF5519"/>
</svg>
