<svg width="45" height="44" viewBox="0 0 45 44" fill="none" xmlns="http://www.w3.org/2000/svg">
<path fill-rule="evenodd" clip-rule="evenodd" d="M22.8788 0.000792638C29.3835 0.0421624 35.968 1.77025 40.1777 6.83399C44.5356 12.0759 45.8822 19.2301 44.4508 25.9489C43.0003 32.7572 38.856 38.7417 32.7275 41.8047C26.5521 44.8913 19.329 44.6296 13.1235 41.6067C6.88821 38.5692 2.08003 33.0046 0.543865 26.1268C-0.991999 19.2502 0.765159 11.9256 5.30752 6.61221C9.62639 1.56028 16.3117 -0.0409743 22.8788 0.000792638Z" fill="#1975FF"/>
<g style="mix-blend-mode:screen">
<path d="M21.7962 2C22.48 2 23.1805 2.03363 23.8143 2.3195C24.4314 2.60538 24.9651 3.19393 24.9984 3.88339C25.0318 4.58966 24.5314 5.24548 23.931 5.59862C23.3306 5.95175 22.6134 6.08628 21.9296 6.25444C18.7107 7.01116 16.1589 7.96967 13.2235 9.49992C9.85445 11.2656 6.48542 13.0313 3.13307 14.7969C2.84953 14.9483 2.48261 15.0996 2.21576 14.9147C1.84883 14.6624 2.01562 14.0907 2.23243 13.7039C5.01772 8.64231 9.68767 4.97643 15.0915 3.12667C17.2263 2.40358 19.5112 2 21.7962 2Z" fill="url(#paint0_linear_416_719)"/>
</g>
<path d="M23 12C26.5 13.5 29.1803 16.5 33 19.6393C30.7334 24.4092 31 26.5 29.1803 32C24.5 32 22 31.5 16.8197 32C15 27 15.049 24.508 13 19.6393C16.8164 17.1494 18.5 15 23 12Z" stroke="white" stroke-width="2" stroke-linejoin="round"/>
<defs>
<linearGradient id="paint0_linear_416_719" x1="8.2343" y1="1.0235" x2="15.6441" y2="12.2169" gradientUnits="userSpaceOnUse">
<stop stop-color="#BABB98"/>
<stop offset="0.1539" stop-color="#9C9D7F"/>
<stop offset="0.7399" stop-color="#2C2D24"/>
<stop offset="1"/>
</linearGradient>
</defs>
</svg>
