<svg width="122" height="42" viewBox="0 0 122 42" fill="none" xmlns="http://www.w3.org/2000/svg">
<rect x="0.291016" width="120.787" height="41.811" rx="7" fill="white"/>
<path d="M27.2356 19.7304V28.4752C27.2356 29.6826 26.2476 30.6614 25.0289 30.6614H11.7887C10.57 30.6614 9.58203 29.6826 9.58203 28.4752V19.7304M21.7188 15.358V14.2649C21.7188 13.0575 20.7309 12.0787 19.5121 12.0787H17.3055C16.0867 12.0787 15.0988 13.0575 15.0988 14.2649V15.358M18.4088 21.9166V26.289M11.7887 24.1028H25.0289C26.2476 24.1028 27.2356 23.124 27.2356 21.9166V17.5442C27.2356 16.3368 26.2476 15.358 25.0289 15.358H11.7887C10.57 15.358 9.58203 16.3368 9.58203 17.5442V21.9166C9.58203 23.124 10.57 24.1028 11.7887 24.1028Z" stroke="#616872" stroke-width="2" stroke-linecap="round" stroke-linejoin="round"/>
<path d="M40.6587 21.5014C39.6553 21.5014 38.8083 21.2797 38.1177 20.8364C37.427 20.3884 36.9043 19.77 36.5497 18.9814C36.195 18.1927 36.0177 17.2827 36.0177 16.2514C36.0177 15.22 36.195 14.31 36.5497 13.5214C36.9043 12.7327 37.427 12.1167 38.1177 11.6734C38.8083 11.2254 39.6553 11.0014 40.6587 11.0014C41.6667 11.0014 42.5137 11.2254 43.1997 11.6734C43.8903 12.1167 44.413 12.7327 44.7677 13.5214C45.127 14.31 45.3067 15.22 45.3067 16.2514C45.3067 17.2827 45.127 18.1927 44.7677 18.9814C44.413 19.77 43.8903 20.3884 43.1997 20.8364C42.5137 21.2797 41.6667 21.5014 40.6587 21.5014ZM40.6587 20.5144C41.4473 20.5144 42.1053 20.3347 42.6327 19.9754C43.16 19.616 43.5543 19.1167 43.8157 18.4774C44.0817 17.8334 44.2147 17.0914 44.2147 16.2514C44.2147 15.4114 44.0817 14.6717 43.8157 14.0324C43.5543 13.393 43.16 12.8937 42.6327 12.5344C42.1053 12.175 41.4473 11.993 40.6587 11.9884C39.87 11.9884 39.2143 12.168 38.6917 12.5274C38.169 12.8867 37.7747 13.3884 37.5087 14.0324C37.2473 14.6717 37.1143 15.4114 37.1097 16.2514C37.105 17.0914 37.2333 17.831 37.4947 18.4704C37.7607 19.105 38.1573 19.6044 38.6847 19.9684C39.212 20.3277 39.87 20.5097 40.6587 20.5144ZM46.7015 21.2914V13.7314H52.7145V21.2914H51.6855V14.7184H47.7305V21.2914H46.7015ZM53.9792 21.2914V20.3884C54.2592 20.4397 54.4716 20.428 54.6162 20.3534C54.7656 20.274 54.8752 20.1434 54.9452 19.9614C55.0152 19.7747 55.0736 19.5437 55.1202 19.2684C55.1949 18.811 55.2626 18.307 55.3232 17.7564C55.3839 17.2057 55.4376 16.599 55.4842 15.9364C55.5356 15.269 55.5869 14.534 55.6382 13.7314H60.7762V21.2914H59.7542V14.7184H56.5902C56.5576 15.213 56.5202 15.7054 56.4782 16.1954C56.4362 16.6854 56.3919 17.1567 56.3452 17.6094C56.3032 18.0574 56.2566 18.4704 56.2052 18.8484C56.1539 19.2264 56.1002 19.553 56.0442 19.8284C55.9602 20.2437 55.8482 20.575 55.7082 20.8224C55.5729 21.0697 55.3699 21.233 55.0992 21.3124C54.8286 21.3917 54.4552 21.3847 53.9792 21.2914ZM64.895 21.5014C64.3256 21.5014 63.8473 21.3987 63.46 21.1934C63.0773 20.988 62.7903 20.715 62.599 20.3744C62.4076 20.0337 62.312 19.6627 62.312 19.2614C62.312 18.8507 62.3936 18.5007 62.557 18.2114C62.725 17.9174 62.9513 17.677 63.236 17.4904C63.5253 17.3037 63.859 17.1614 64.237 17.0634C64.6196 16.97 65.042 16.8884 65.504 16.8184C65.9706 16.7437 66.4256 16.6807 66.869 16.6294C67.317 16.5734 67.709 16.5197 68.045 16.4684L67.681 16.6924C67.695 15.9457 67.5503 15.3927 67.247 15.0334C66.9436 14.674 66.4163 14.4944 65.665 14.4944C65.147 14.4944 64.7083 14.611 64.349 14.8444C63.9943 15.0777 63.7446 15.4464 63.6 15.9504L62.599 15.6564C62.7716 14.9797 63.1193 14.4547 63.642 14.0814C64.1646 13.708 64.8436 13.5214 65.679 13.5214C66.3696 13.5214 66.9553 13.652 67.436 13.9134C67.9213 14.17 68.2643 14.5434 68.465 15.0334C68.5583 15.2527 68.619 15.4977 68.647 15.7684C68.675 16.039 68.689 16.3144 68.689 16.5944V21.2914H67.772V19.3944L68.038 19.5064C67.7813 20.155 67.3823 20.6497 66.841 20.9904C66.2996 21.331 65.651 21.5014 64.895 21.5014ZM65.014 20.6124C65.4946 20.6124 65.9146 20.526 66.274 20.3534C66.6333 20.1807 66.9226 19.945 67.142 19.6464C67.3613 19.343 67.5036 19.0024 67.569 18.6244C67.625 18.3817 67.6553 18.1157 67.66 17.8264C67.6646 17.5324 67.667 17.313 67.667 17.1684L68.059 17.3714C67.709 17.418 67.3286 17.4647 66.918 17.5114C66.512 17.558 66.1106 17.6117 65.714 17.6724C65.322 17.733 64.9673 17.8054 64.65 17.8894C64.4353 17.95 64.2276 18.0364 64.027 18.1484C63.8263 18.2557 63.6606 18.4004 63.53 18.5824C63.404 18.7644 63.341 18.9907 63.341 19.2614C63.341 19.4807 63.3946 19.693 63.502 19.8984C63.614 20.1037 63.7913 20.274 64.034 20.4094C64.2813 20.5447 64.608 20.6124 65.014 20.6124ZM72.5623 21.2914V14.6834H69.8813V13.7314H76.2723V14.6834H73.5913V21.2914H72.5623ZM79.4828 21.5014C78.9135 21.5014 78.4352 21.3987 78.0478 21.1934C77.6652 20.988 77.3782 20.715 77.1868 20.3744C76.9955 20.0337 76.8998 19.6627 76.8998 19.2614C76.8998 18.8507 76.9815 18.5007 77.1448 18.2114C77.3128 17.9174 77.5392 17.677 77.8238 17.4904C78.1132 17.3037 78.4468 17.1614 78.8248 17.0634C79.2075 16.97 79.6298 16.8884 80.0918 16.8184C80.5585 16.7437 81.0135 16.6807 81.4568 16.6294C81.9048 16.5734 82.2968 16.5197 82.6328 16.4684L82.2688 16.6924C82.2828 15.9457 82.1382 15.3927 81.8348 15.0334C81.5315 14.674 81.0042 14.4944 80.2528 14.4944C79.7348 14.4944 79.2962 14.611 78.9368 14.8444C78.5822 15.0777 78.3325 15.4464 78.1878 15.9504L77.1868 15.6564C77.3595 14.9797 77.7072 14.4547 78.2298 14.0814C78.7525 13.708 79.4315 13.5214 80.2668 13.5214C80.9575 13.5214 81.5432 13.652 82.0238 13.9134C82.5092 14.17 82.8522 14.5434 83.0528 15.0334C83.1462 15.2527 83.2068 15.4977 83.2348 15.7684C83.2628 16.039 83.2768 16.3144 83.2768 16.5944V21.2914H82.3598V19.3944L82.6258 19.5064C82.3692 20.155 81.9702 20.6497 81.4288 20.9904C80.8875 21.331 80.2388 21.5014 79.4828 21.5014ZM79.6018 20.6124C80.0825 20.6124 80.5025 20.526 80.8618 20.3534C81.2212 20.1807 81.5105 19.945 81.7298 19.6464C81.9492 19.343 82.0915 19.0024 82.1568 18.6244C82.2128 18.3817 82.2432 18.1157 82.2478 17.8264C82.2525 17.5324 82.2548 17.313 82.2548 17.1684L82.6468 17.3714C82.2968 17.418 81.9165 17.4647 81.5058 17.5114C81.0998 17.558 80.6985 17.6117 80.3018 17.6724C79.9098 17.733 79.5552 17.8054 79.2378 17.8894C79.0232 17.95 78.8155 18.0364 78.6148 18.1484C78.4142 18.2557 78.2485 18.4004 78.1178 18.5824C77.9918 18.7644 77.9288 18.9907 77.9288 19.2614C77.9288 19.4807 77.9825 19.693 78.0898 19.8984C78.2018 20.1037 78.3792 20.274 78.6218 20.4094C78.8692 20.5447 79.1958 20.6124 79.6018 20.6124ZM87.3419 22.9714V20.4094C87.7712 20.4094 88.0792 20.2717 88.2659 19.9964C88.4525 19.7164 88.6042 19.2707 88.7209 18.6594C88.8002 18.2627 88.8655 17.8357 88.9169 17.3784C88.9682 16.921 89.0125 16.3984 89.0499 15.8104C89.0872 15.2177 89.1222 14.5247 89.1549 13.7314H94.1529V20.4094H94.8809V22.9714H93.8869V21.2914H88.3289V22.9714H87.3419ZM89.0849 20.4094H93.1309V14.6134H90.1069C90.0929 14.968 90.0719 15.3437 90.0439 15.7404C90.0205 16.137 89.9902 16.5337 89.9529 16.9304C89.9202 17.327 89.8805 17.7004 89.8339 18.0504C89.7919 18.3957 89.7405 18.699 89.6799 18.9604C89.6099 19.2964 89.5329 19.5834 89.4489 19.8214C89.3695 20.0594 89.2482 20.2554 89.0849 20.4094ZM95.5827 21.2914V20.3884C95.8627 20.4397 96.0751 20.428 96.2197 20.3534C96.3691 20.274 96.4787 20.1434 96.5487 19.9614C96.6187 19.7747 96.6771 19.5437 96.7237 19.2684C96.7984 18.811 96.8661 18.307 96.9267 17.7564C96.9874 17.2057 97.0411 16.599 97.0877 15.9364C97.1391 15.269 97.1904 14.534 97.2417 13.7314H102.38V21.2914H101.358V14.7184H98.1937C98.1611 15.213 98.1237 15.7054 98.0817 16.1954C98.0397 16.6854 97.9954 17.1567 97.9487 17.6094C97.9067 18.0574 97.8601 18.4704 97.8087 18.8484C97.7574 19.2264 97.7037 19.553 97.6477 19.8284C97.5637 20.2437 97.4517 20.575 97.3117 20.8224C97.1764 21.0697 96.9734 21.233 96.7027 21.3124C96.4321 21.3917 96.0587 21.3847 95.5827 21.2914ZM109.074 21.2914V18.4424H107.31C107.105 18.4424 106.893 18.4354 106.673 18.4214C106.459 18.4027 106.258 18.377 106.071 18.3444C105.539 18.2417 105.087 18.0084 104.713 17.6444C104.345 17.2757 104.16 16.767 104.16 16.1184C104.16 15.4837 104.333 14.975 104.678 14.5924C105.024 14.205 105.441 13.953 105.931 13.8364C106.155 13.785 106.382 13.7547 106.61 13.7454C106.844 13.736 107.044 13.7314 107.212 13.7314H110.103L110.11 21.2914H109.074ZM103.915 21.2914L106.022 18.1204H107.163L105.042 21.2914H103.915ZM107.254 17.5604H109.074V14.6134H107.254C107.142 14.6134 106.986 14.618 106.785 14.6274C106.585 14.6367 106.396 14.667 106.218 14.7184C106.064 14.765 105.91 14.8467 105.756 14.9634C105.607 15.0754 105.481 15.227 105.378 15.4184C105.276 15.605 105.224 15.8337 105.224 16.1044C105.224 16.4824 105.327 16.7857 105.532 17.0144C105.742 17.2384 106.004 17.3924 106.316 17.4764C106.484 17.5137 106.652 17.537 106.82 17.5464C106.988 17.5557 107.133 17.5604 107.254 17.5604ZM42.5277 34.5014C41.8603 34.5014 41.2793 34.359 40.7847 34.0744C40.29 33.785 39.8957 33.3814 39.6017 32.8634C39.3123 32.3407 39.1373 31.727 39.0767 31.0224H37.5997V34.2914H36.5707V26.7314H37.5997V30.0004H39.0697C39.1303 29.2864 39.3077 28.6704 39.6017 28.1524C39.9003 27.6297 40.297 27.2284 40.7917 26.9484C41.291 26.6637 41.872 26.5214 42.5347 26.5214C43.286 26.5214 43.9277 26.6917 44.4597 27.0324C44.9963 27.373 45.4047 27.842 45.6847 28.4394C45.9693 29.0367 46.1117 29.7227 46.1117 30.4974C46.1117 31.2907 45.967 31.9884 45.6777 32.5904C45.393 33.1924 44.9823 33.6614 44.4457 33.9974C43.9137 34.3334 43.2743 34.5014 42.5277 34.5014ZM42.5067 33.5144C43.356 33.5144 43.986 33.239 44.3967 32.6884C44.812 32.133 45.0197 31.405 45.0197 30.5044C45.0197 29.585 44.8097 28.857 44.3897 28.3204C43.9743 27.779 43.349 27.5084 42.5137 27.5084C41.7157 27.5084 41.1043 27.7744 40.6797 28.3064C40.255 28.8337 40.0427 29.564 40.0427 30.4974C40.0427 31.412 40.2503 32.1447 40.6657 32.6954C41.0857 33.2414 41.6993 33.5144 42.5067 33.5144ZM51.0469 34.5014C50.3515 34.5014 49.7635 34.3264 49.2829 33.9764C48.8022 33.6217 48.4382 33.1434 48.1909 32.5414C47.9435 31.9347 47.8199 31.2557 47.8199 30.5044C47.8199 29.739 47.9435 29.0577 48.1909 28.4604C48.4429 27.8584 48.8115 27.3847 49.2969 27.0394C49.7822 26.694 50.3795 26.5214 51.0889 26.5214C51.7795 26.5214 52.3722 26.6964 52.8669 27.0464C53.3615 27.3964 53.7395 27.8724 54.0009 28.4744C54.2669 29.0764 54.3999 29.753 54.3999 30.5044C54.3999 31.2604 54.2669 31.9394 54.0009 32.5414C53.7349 33.1434 53.3522 33.6217 52.8529 33.9764C52.3535 34.3264 51.7515 34.5014 51.0469 34.5014ZM47.6449 37.6514V26.7314H48.5689V32.4224H48.6809V37.6514H47.6449ZM50.9419 33.5424C51.4692 33.5424 51.9079 33.4094 52.2579 33.1434C52.6079 32.8774 52.8692 32.5157 53.0419 32.0584C53.2192 31.5964 53.3079 31.0784 53.3079 30.5044C53.3079 29.935 53.2215 29.4217 53.0489 28.9644C52.8762 28.507 52.6125 28.1454 52.2579 27.8794C51.9079 27.6134 51.4622 27.4804 50.9209 27.4804C50.3935 27.4804 49.9549 27.6087 49.6049 27.8654C49.2595 28.122 49.0005 28.479 48.8279 28.9364C48.6552 29.389 48.5689 29.9117 48.5689 30.5044C48.5689 31.0877 48.6552 31.6104 48.8279 32.0724C49.0005 32.5297 49.2619 32.889 49.6119 33.1504C49.9619 33.4117 50.4052 33.5424 50.9419 33.5424ZM58.0398 34.2914V33.3884C58.3198 33.4397 58.5321 33.428 58.6768 33.3534C58.8261 33.274 58.9358 33.1434 59.0058 32.9614C59.0758 32.7747 59.1341 32.5437 59.1808 32.2684C59.2554 31.811 59.3231 31.307 59.3838 30.7564C59.4444 30.2057 59.4981 29.599 59.5448 28.9364C59.5961 28.269 59.6474 27.534 59.6988 26.7314H64.8368V34.2914H63.8148V27.7184H60.6508C60.6181 28.213 60.5808 28.7054 60.5388 29.1954C60.4968 29.6854 60.4524 30.1567 60.4058 30.6094C60.3638 31.0574 60.3171 31.4704 60.2658 31.8484C60.2144 32.2264 60.1608 32.553 60.1048 32.8284C60.0208 33.2437 59.9088 33.575 59.7688 33.8224C59.6334 34.0697 59.4304 34.233 59.1598 34.3124C58.8891 34.3917 58.5158 34.3847 58.0398 34.2914ZM72.7985 26.7314V34.2914H71.7975V28.4044L67.6535 34.2914H66.7855V26.7314H67.7865V32.5694L71.9375 26.7314H72.7985ZM81.2592 35.6004V34.2914H74.7562V26.7314H75.7852V33.3044H79.7402V26.7314H80.7692V33.3394H82.2882V35.6004H81.2592Z" fill="#3D4A56"/>
</svg>
