<svg width="80" height="43" viewBox="0 0 80 43" fill="none" xmlns="http://www.w3.org/2000/svg">
<rect x="0.480469" y="0.314941" width="78.9764" height="41.811" rx="7" fill="white"/>
<g clip-path="url(#clip0_416_497)">
<path d="M36.066 30.7083H31.3242L34.2901 12.7197H39.0316L36.066 30.7083Z" fill="#00579F"/>
<path d="M53.2563 13.1595C52.321 12.7955 50.8375 12.3937 49.0033 12.3937C44.3206 12.3937 41.0231 14.8431 41.0029 18.3449C40.964 20.9286 43.3638 22.3636 45.1587 23.2251C46.9932 24.1054 47.6168 24.68 47.6168 25.4646C47.5981 26.6697 46.1344 27.2252 44.7692 27.2252C42.8761 27.2252 41.8617 26.9388 40.3202 26.2684L39.6958 25.981L39.0322 30.019C40.1444 30.516 42.1933 30.957 44.3206 30.9764C49.296 30.9764 52.5352 28.5649 52.5735 24.8331C52.5925 22.7853 51.3253 21.2163 48.5933 19.9341C46.9348 19.111 45.9192 18.556 45.9192 17.7139C45.9386 16.9483 46.7782 16.1641 48.6504 16.1641C50.1919 16.1257 51.3245 16.4892 52.1825 16.8529L52.6114 17.0439L53.2563 13.1595Z" fill="#00579F"/>
<path d="M59.558 24.3356C59.9485 23.3021 61.4511 19.3025 61.4511 19.3025C61.4314 19.3409 61.8409 18.25 62.075 17.5803L62.4064 19.1303C62.4064 19.1303 63.3043 23.4362 63.4993 24.3356C62.7582 24.3356 60.4946 24.3356 59.558 24.3356ZM65.4111 12.7197H61.7434C60.6123 12.7197 59.753 13.0448 59.265 14.2122L52.2217 30.708H57.1971C57.1971 30.708 58.0162 28.4878 58.1923 28.0096C58.7381 28.0096 63.5781 28.0096 64.2803 28.0096C64.4165 28.6412 64.8461 30.708 64.8461 30.708H69.2365L65.4111 12.7197Z" fill="#00579F"/>
<path d="M27.3643 12.7197L22.7205 24.9862L22.2131 22.4984C21.3545 19.6278 18.662 16.509 15.6572 14.9582L19.9107 30.6892H24.9251L32.3783 12.7197H27.3643Z" fill="#00579F"/>
<path d="M18.4083 12.7197H10.7792L10.7012 13.0832C16.6523 14.576 20.5936 18.1742 22.213 22.4992L20.5545 14.2318C20.2815 13.0829 19.4424 12.7576 18.4083 12.7197Z" fill="#FAA61A"/>
</g>
<defs>
<clipPath id="clip0_416_497">
<rect width="58.5354" height="18.5827" fill="white" transform="translate(10.7012 12.3937)"/>
</clipPath>
</defs>
</svg>
