<svg width="35" height="35" viewBox="0 0 35 35" fill="none" xmlns="http://www.w3.org/2000/svg">
<rect width="35" height="35" rx="17.5" fill="#0077FF"/>
<path d="M18.3597 23.625C11.7827 23.625 8.03131 19.0267 7.875 11.375H11.1695C11.2777 16.9911 13.7065 19.37 15.6303 19.8605V11.375H18.7324V16.2186C20.6322 16.0101 22.6281 13.8029 23.3015 11.375H26.4036C26.1498 12.6342 25.6441 13.8264 24.9179 14.8772C24.1917 15.9279 23.2608 16.8146 22.1832 17.4816C23.386 18.0911 24.4484 18.9538 25.3002 20.0128C26.152 21.0717 26.774 22.3029 27.125 23.625H23.7103C23.3952 22.4767 22.7547 21.4487 21.8692 20.67C20.9837 19.8912 19.8925 19.3964 18.7324 19.2474V23.625H18.3597Z" fill="white"/>
</svg>
