<svg width="122" height="43" viewBox="0 0 122 43" fill="none" xmlns="http://www.w3.org/2000/svg">
<rect x="0.920898" y="0.314941" width="120.787" height="41.811" rx="7" fill="white"/>
<g clip-path="url(#clip0_416_448)">
<path d="M103.785 16.9341L101.719 21.7774C101.719 21.8447 101.647 21.912 101.647 21.9793L101.576 22.1138L101.505 21.9793C101.505 21.912 101.434 21.8447 101.434 21.7774L99.3671 16.9341H96.6592L100.222 25.2755L98.7256 28.4371H101.434L106.422 16.9341H103.785Z" fill="black"/>
<path d="M83.8322 17.4052C83.3334 17.0689 82.7633 16.8671 82.0506 16.7998C80.839 16.6653 79.6988 17.0689 78.9861 17.8761V16.9343H76.5635V25.2757H78.9861V20.9032C78.9861 19.8942 79.2 19.6924 79.3427 19.4233C79.6275 18.9524 80.1976 18.6833 80.839 18.7506C81.4805 18.7506 82.1219 19.0197 82.4067 19.4906C82.6207 19.8269 82.6207 20.2305 82.6207 20.4996C82.6207 21.2396 82.6207 25.2757 82.6207 25.2757H85.0437V20.2305C85.0437 18.8852 84.6158 18.0107 83.8322 17.4052Z" fill="black"/>
<path d="M71.9309 17.0014C70.7198 16.5978 69.437 16.665 68.2254 17.2032C67.3705 17.5396 66.7291 18.145 66.2303 18.885C65.8023 19.5577 65.5889 20.2976 65.5889 21.1721C65.5889 22.0466 65.8023 22.7866 66.2303 23.4593C66.6578 24.1319 67.2279 24.6028 67.9406 25.0065C68.6529 25.3428 69.5083 25.5446 70.2919 25.5446C70.7198 25.5446 71.1473 25.4774 71.5747 25.4101C71.9309 25.3428 72.2875 25.2083 72.6436 25.0065C73.3564 24.6028 73.9265 24.1319 74.3539 23.5266C74.7814 22.8538 74.9954 22.1139 74.9954 21.2394C74.924 19.2213 73.7838 17.6741 71.9309 17.0014ZM72.5723 21.1721C72.5723 21.9121 72.2875 22.5175 71.7887 22.9211C71.4321 23.2574 70.9333 23.392 70.2205 23.392C69.5796 23.392 69.0803 23.1902 68.6529 22.9211C68.1541 22.5175 67.9406 21.9121 67.8693 21.1721C67.8693 20.3649 68.1541 19.6249 68.7955 19.154C69.1517 18.885 69.5796 18.7504 70.1497 18.7504C70.7198 18.7504 71.1473 18.885 71.5034 19.154C72.2875 19.6249 72.6436 20.3649 72.5723 21.1721Z" fill="black"/>
<path d="M62.8096 17.4048C62.382 17.0684 61.7406 16.8666 61.028 16.7993C60.8855 16.7993 60.743 16.7993 60.6005 16.7993C59.6027 16.7993 58.8189 17.2029 58.1063 18.0102L57.9638 18.1447H57.6787C57.4649 17.8757 57.2511 17.6066 56.9661 17.472C56.5385 17.0684 55.9684 16.8666 55.2558 16.7993C54.1156 16.6648 53.1892 17.0012 52.4053 17.8084V16.9339H49.9824V25.2753H52.4053V20.9028V20.8355C52.4053 19.8937 52.5478 19.6919 52.6904 19.4229C52.9754 18.952 53.5455 18.6829 54.1156 18.6829C54.6857 18.6829 55.2558 18.952 55.5408 19.4229C55.7547 19.7592 55.7547 20.1628 55.7547 20.5664V25.208H58.2488V20.7682C58.2488 19.961 58.3913 19.6247 58.5339 19.3556C58.8189 18.8847 59.389 18.6829 59.9591 18.6829C60.5292 18.6829 61.028 19.0192 61.3131 19.4229C61.4556 19.6919 61.5268 20.0283 61.5268 20.2973C61.5268 20.4319 61.5268 20.4992 61.5268 20.6337V25.2753H63.9497V20.2301C63.9497 19.7592 63.8785 19.3556 63.8072 18.952C63.6647 18.2793 63.3084 17.7411 62.8096 17.4048Z" fill="black"/>
<path d="M94.2355 22.7192C93.8793 23.0556 93.0239 23.661 91.8837 23.7282C90.9575 23.7282 90.1734 23.5265 89.6746 22.9883C89.4612 22.7192 89.2472 22.4501 89.1759 22.1138H95.9458V22.0465C96.0171 21.7102 96.0171 21.3738 96.0171 21.1048C96.0171 20.8357 95.9458 20.4321 95.8031 19.8939C95.5183 18.9521 94.9482 18.2122 94.1642 17.6068C93.3092 17.0013 92.4538 16.7995 92.2404 16.7995C90.4587 16.5305 88.4631 17.2704 87.4655 18.8176C86.7528 19.8939 86.7528 20.9702 86.8241 21.3065C86.8241 21.7102 86.8954 22.9883 87.9643 24.0646C89.1759 25.3427 90.9575 25.41 91.5276 25.4773C93.9507 25.5445 95.5897 24.1319 95.9458 23.7955L94.2355 22.7192ZM90.0313 19.2212C90.3874 18.9521 90.8148 18.8176 91.385 18.8176C91.9551 18.8176 92.3825 18.9521 92.7391 19.2212C93.0953 19.4903 93.3806 19.8266 93.5227 20.2975H89.1759C89.3898 19.8266 89.6746 19.4903 90.0313 19.2212Z" fill="black"/>
<path d="M33.1652 11.4852C27.678 11.4852 23.3311 15.6559 23.3311 20.7684C23.3311 25.8808 27.7492 30.0516 33.1652 30.0516C38.5811 30.0516 42.9993 25.8808 42.9993 20.7684C43.0705 15.6559 38.5811 11.4852 33.1652 11.4852ZM33.1652 24.1991C31.1698 24.1991 29.4596 22.6519 29.4596 20.7684C29.4596 18.8848 31.0986 17.3376 33.1652 17.3376C35.2317 17.3376 36.8708 18.8848 36.8708 20.7684C36.7995 22.6519 35.2317 24.1991 33.1652 24.1991Z" fill="#8B3FFD"/>
<path d="M23.3309 14.2433V27.7644H19.8391L15.3496 14.2433H23.3309Z" fill="#8B3FFD"/>
</g>
<defs>
<clipPath id="clip0_416_448">
<rect width="91.9843" height="21.3701" fill="white" transform="translate(14.8574 10.5354)"/>
</clipPath>
</defs>
</svg>
