<svg width="35" height="35" viewBox="0 0 35 35" fill="none" xmlns="http://www.w3.org/2000/svg">
<rect width="35" height="35" rx="17.5" fill="#F40000"/>
<path fill-rule="evenodd" clip-rule="evenodd" d="M9.85468 23.6747C9.51145 23.5732 9.19828 23.3925 8.94159 23.148C8.6849 22.9035 8.49223 22.6023 8.37983 22.2698C7.73756 20.5514 7.54725 13.3761 8.78422 11.9596C9.19591 11.4988 9.77716 11.2151 10.4018 11.17C13.7202 10.8217 23.9728 10.8682 25.1503 11.2861C25.4815 11.391 25.7841 11.5677 26.0354 11.803C26.2867 12.0382 26.4802 12.326 26.6014 12.6446C27.3031 14.421 27.3269 20.8765 26.5062 22.5833C26.2885 23.0276 25.924 23.3875 25.4714 23.605C24.2345 24.2088 11.496 24.1972 9.85468 23.6747ZM15.1237 20.3076L21.0707 17.2889L15.1237 14.2469V20.3076Z" fill="white"/>
</svg>
